%TF.GenerationSoftware,KiCad,Pcbnew,7.0.11-7.0.11~ubuntu20.04.1*%
%TF.CreationDate,2024-03-20T21:38:14+00:00*%
%TF.ProjectId,MDFPGA,4d444650-4741-42e6-9b69-6361645f7063,rev?*%
%TF.SameCoordinates,Original*%
%TF.FileFunction,Soldermask,Top*%
%TF.FilePolarity,Negative*%
%FSLAX46Y46*%
G04 Gerber Fmt 4.6, Leading zero omitted, Abs format (unit mm)*
G04 Created by KiCad (PCBNEW 7.0.11-7.0.11~ubuntu20.04.1) date 2024-03-20 21:38:14*
%MOMM*%
%LPD*%
G01*
G04 APERTURE LIST*
G04 Aperture macros list*
%AMRoundRect*
0 Rectangle with rounded corners*
0 $1 Rounding radius*
0 $2 $3 $4 $5 $6 $7 $8 $9 X,Y pos of 4 corners*
0 Add a 4 corners polygon primitive as box body*
4,1,4,$2,$3,$4,$5,$6,$7,$8,$9,$2,$3,0*
0 Add four circle primitives for the rounded corners*
1,1,$1+$1,$2,$3*
1,1,$1+$1,$4,$5*
1,1,$1+$1,$6,$7*
1,1,$1+$1,$8,$9*
0 Add four rect primitives between the rounded corners*
20,1,$1+$1,$2,$3,$4,$5,0*
20,1,$1+$1,$4,$5,$6,$7,0*
20,1,$1+$1,$6,$7,$8,$9,0*
20,1,$1+$1,$8,$9,$2,$3,0*%
G04 Aperture macros list end*
%ADD10RoundRect,0.062500X0.375000X0.062500X-0.375000X0.062500X-0.375000X-0.062500X0.375000X-0.062500X0*%
%ADD11RoundRect,0.062500X0.062500X0.375000X-0.062500X0.375000X-0.062500X-0.375000X0.062500X-0.375000X0*%
%ADD12R,5.600000X5.600000*%
%ADD13R,1.700000X1.700000*%
%ADD14O,1.700000X1.700000*%
%ADD15RoundRect,0.250000X0.262500X0.450000X-0.262500X0.450000X-0.262500X-0.450000X0.262500X-0.450000X0*%
%ADD16R,2.000000X1.500000*%
%ADD17R,2.000000X3.800000*%
%ADD18C,1.600000*%
%ADD19RoundRect,0.200000X0.600000X-0.600000X0.600000X0.600000X-0.600000X0.600000X-0.600000X-0.600000X0*%
%ADD20RoundRect,0.250000X-0.450000X0.262500X-0.450000X-0.262500X0.450000X-0.262500X0.450000X0.262500X0*%
%ADD21RoundRect,0.250000X-1.075000X0.375000X-1.075000X-0.375000X1.075000X-0.375000X1.075000X0.375000X0*%
%ADD22R,3.000000X3.000000*%
%ADD23C,3.000000*%
%ADD24C,4.300000*%
%ADD25R,2.000000X2.000000*%
%ADD26C,2.000000*%
%ADD27RoundRect,0.250000X0.600000X-0.600000X0.600000X0.600000X-0.600000X0.600000X-0.600000X-0.600000X0*%
%ADD28C,1.700000*%
%ADD29RoundRect,0.250000X0.375000X1.075000X-0.375000X1.075000X-0.375000X-1.075000X0.375000X-1.075000X0*%
%ADD30RoundRect,0.250001X1.099999X-1.099999X1.099999X1.099999X-1.099999X1.099999X-1.099999X-1.099999X0*%
%ADD31C,2.700000*%
%ADD32RoundRect,0.150000X-0.875000X-0.150000X0.875000X-0.150000X0.875000X0.150000X-0.875000X0.150000X0*%
%ADD33R,1.600000X1.500000*%
%ADD34R,3.300000X3.500000*%
%ADD35C,10.200000*%
%ADD36RoundRect,0.150000X-0.675000X-0.150000X0.675000X-0.150000X0.675000X0.150000X-0.675000X0.150000X0*%
%ADD37R,3.500000X3.500000*%
%ADD38RoundRect,0.750000X-0.750000X-1.000000X0.750000X-1.000000X0.750000X1.000000X-0.750000X1.000000X0*%
%ADD39RoundRect,0.875000X-0.875000X-0.875000X0.875000X-0.875000X0.875000X0.875000X-0.875000X0.875000X0*%
G04 APERTURE END LIST*
D10*
%TO.C,U3*%
X79067500Y-40020000D03*
X79067500Y-39520000D03*
X79067500Y-39020000D03*
X79067500Y-38520000D03*
X79067500Y-38020000D03*
X79067500Y-37520000D03*
X79067500Y-37020000D03*
X79067500Y-36520000D03*
X79067500Y-36020000D03*
X79067500Y-35520000D03*
X79067500Y-35020000D03*
X79067500Y-34520000D03*
D11*
X78380000Y-33832500D03*
X77880000Y-33832500D03*
X77380000Y-33832500D03*
X76880000Y-33832500D03*
X76380000Y-33832500D03*
X75880000Y-33832500D03*
X75380000Y-33832500D03*
X74880000Y-33832500D03*
X74380000Y-33832500D03*
X73880000Y-33832500D03*
X73380000Y-33832500D03*
X72880000Y-33832500D03*
D10*
X72192500Y-34520000D03*
X72192500Y-35020000D03*
X72192500Y-35520000D03*
X72192500Y-36020000D03*
X72192500Y-36520000D03*
X72192500Y-37020000D03*
X72192500Y-37520000D03*
X72192500Y-38020000D03*
X72192500Y-38520000D03*
X72192500Y-39020000D03*
X72192500Y-39520000D03*
X72192500Y-40020000D03*
D11*
X72880000Y-40707500D03*
X73380000Y-40707500D03*
X73880000Y-40707500D03*
X74380000Y-40707500D03*
X74880000Y-40707500D03*
X75380000Y-40707500D03*
X75880000Y-40707500D03*
X76380000Y-40707500D03*
X76880000Y-40707500D03*
X77380000Y-40707500D03*
X77880000Y-40707500D03*
X78380000Y-40707500D03*
D12*
X75630000Y-37270000D03*
%TD*%
D13*
%TO.C,J11*%
X87630000Y-49530000D03*
D14*
X85090000Y-49530000D03*
%TD*%
D15*
%TO.C,R13*%
X87045000Y-57525000D03*
X85220000Y-57525000D03*
%TD*%
D13*
%TO.C,J10*%
X92710000Y-57150000D03*
D14*
X95250000Y-57150000D03*
%TD*%
D16*
%TO.C,U4*%
X85626000Y-31095000D03*
X85626000Y-33395000D03*
D17*
X91926000Y-33395000D03*
D16*
X85626000Y-35695000D03*
%TD*%
D15*
%TO.C,R12*%
X94892500Y-53437500D03*
X93067500Y-53437500D03*
%TD*%
D18*
%TO.C,A1*%
X1905000Y-38735000D03*
X4445000Y-38735000D03*
D19*
X6985000Y-38735000D03*
D18*
X9525000Y-38735000D03*
X12065000Y-38735000D03*
X14605000Y-38735000D03*
X17145000Y-38735000D03*
D19*
X19685000Y-38735000D03*
D18*
X22225000Y-38735000D03*
X24765000Y-38735000D03*
X27305000Y-38735000D03*
X29845000Y-38735000D03*
D19*
X32385000Y-38735000D03*
D18*
X34925000Y-38735000D03*
X37465000Y-38735000D03*
X40005000Y-38693119D03*
X42545000Y-38735000D03*
D19*
X45085000Y-38735000D03*
D18*
X47625000Y-38735000D03*
X50165000Y-38735000D03*
X50165000Y-20955000D03*
X47625000Y-20955000D03*
D19*
X45085000Y-20955000D03*
D18*
X42545000Y-20955000D03*
X40005000Y-20955000D03*
X37465000Y-20955000D03*
X34925000Y-20955000D03*
D19*
X32385000Y-20955000D03*
D18*
X29845000Y-20955000D03*
X27305000Y-20955000D03*
X24765000Y-20955000D03*
X22225000Y-20955000D03*
D19*
X19685000Y-20955000D03*
D18*
X17145000Y-20955000D03*
X14605000Y-20955000D03*
X12065000Y-20955000D03*
X9525000Y-20955000D03*
D19*
X6985000Y-20955000D03*
D18*
X4445000Y-20955000D03*
X1905000Y-20955000D03*
%TD*%
D20*
%TO.C,R3*%
X26035000Y-4929500D03*
X26035000Y-6754500D03*
%TD*%
D21*
%TO.C,D1*%
X14595000Y-12435000D03*
X14595000Y-15235000D03*
%TD*%
D15*
%TO.C,R6*%
X86002500Y-65145000D03*
X84177500Y-65145000D03*
%TD*%
D13*
%TO.C,J1*%
X67310000Y-5080000D03*
D14*
X69850000Y-5080000D03*
X72390000Y-5080000D03*
X74930000Y-5080000D03*
X77470000Y-5080000D03*
X80010000Y-5080000D03*
%TD*%
D13*
%TO.C,J2*%
X1905000Y-46355000D03*
D14*
X4445000Y-46355000D03*
X6985000Y-46355000D03*
X9525000Y-46355000D03*
%TD*%
D22*
%TO.C,J7*%
X57280000Y-63875000D03*
D23*
X57280000Y-68955000D03*
%TD*%
D15*
%TO.C,R10*%
X68860500Y-37586000D03*
X67035500Y-37586000D03*
%TD*%
D24*
%TO.C,H4*%
X93980000Y-68580000D03*
%TD*%
%TO.C,H2*%
X93980000Y-5080000D03*
%TD*%
D25*
%TO.C,SP1*%
X78730000Y-65145000D03*
D26*
X71130000Y-65145000D03*
%TD*%
D13*
%TO.C,J9*%
X95250000Y-27940000D03*
D14*
X92710000Y-27940000D03*
%TD*%
D15*
%TO.C,R5*%
X94511500Y-43685000D03*
X92686500Y-43685000D03*
%TD*%
%TO.C,R2*%
X58890000Y-4820000D03*
X57065000Y-4820000D03*
%TD*%
D13*
%TO.C,J8*%
X72390000Y-10160000D03*
D14*
X74930000Y-10160000D03*
X72390000Y-12700000D03*
X74930000Y-12700000D03*
%TD*%
D27*
%TO.C,J3*%
X20320000Y-50800000D03*
D28*
X20320000Y-48260000D03*
X22860000Y-50800000D03*
X22860000Y-48260000D03*
X25400000Y-50800000D03*
X25400000Y-48260000D03*
X27940000Y-50800000D03*
X27940000Y-48260000D03*
X30480000Y-50800000D03*
X30480000Y-48260000D03*
X33020000Y-50800000D03*
X33020000Y-48260000D03*
X35560000Y-50800000D03*
X35560000Y-48260000D03*
X38100000Y-50800000D03*
X38100000Y-48260000D03*
%TD*%
D20*
%TO.C,R9*%
X76330000Y-20798500D03*
X76330000Y-22623500D03*
%TD*%
D15*
%TO.C,R1*%
X58890000Y-2280000D03*
X57065000Y-2280000D03*
%TD*%
D29*
%TO.C,D3*%
X87532500Y-54350000D03*
X84732500Y-54350000D03*
%TD*%
%TO.C,D2*%
X94999000Y-40764000D03*
X92199000Y-40764000D03*
%TD*%
D13*
%TO.C,J5*%
X44450000Y-5080000D03*
D14*
X46990000Y-5080000D03*
X49530000Y-5080000D03*
X52070000Y-5080000D03*
%TD*%
D20*
%TO.C,R7*%
X89411000Y-18004500D03*
X89411000Y-19829500D03*
%TD*%
%TO.C,R8*%
X86871000Y-18004500D03*
X86871000Y-19829500D03*
%TD*%
D24*
%TO.C,H3*%
X5080000Y-68580000D03*
%TD*%
%TO.C,H1*%
X5080000Y-5080000D03*
%TD*%
D30*
%TO.C,J4*%
X23705000Y-69440000D03*
D31*
X23705000Y-65480000D03*
X23705000Y-61520000D03*
X23705000Y-57560000D03*
%TD*%
D32*
%TO.C,U1*%
X28370000Y-4191000D03*
X28370000Y-5461000D03*
X28370000Y-6731000D03*
X28370000Y-8001000D03*
X28370000Y-9271000D03*
X28370000Y-10541000D03*
X28370000Y-11811000D03*
X28370000Y-13081000D03*
X37670000Y-13081000D03*
X37670000Y-11811000D03*
X37670000Y-10541000D03*
X37670000Y-9271000D03*
X37670000Y-8001000D03*
X37670000Y-6731000D03*
X37670000Y-5461000D03*
X37670000Y-4191000D03*
%TD*%
D33*
%TO.C,X1*%
X62360000Y-32844000D03*
X64900000Y-32844000D03*
X64900000Y-30644000D03*
X62360000Y-30644000D03*
%TD*%
D20*
%TO.C,R4*%
X18415000Y-12860000D03*
X18415000Y-14685000D03*
%TD*%
D34*
%TO.C,BT1*%
X59985000Y-27204000D03*
X59985000Y-11404000D03*
D35*
X59985000Y-19304000D03*
%TD*%
D36*
%TO.C,U6*%
X78531000Y-21076000D03*
X78531000Y-22346000D03*
X78531000Y-23616000D03*
X78531000Y-24886000D03*
X83781000Y-24886000D03*
X83781000Y-23616000D03*
X83781000Y-22346000D03*
X83781000Y-21076000D03*
%TD*%
D20*
%TO.C,R11*%
X91951000Y-18004500D03*
X91951000Y-19829500D03*
%TD*%
D37*
%TO.C,CON1*%
X11715000Y-56192500D03*
D38*
X5715000Y-56192500D03*
D39*
X8715000Y-60892500D03*
%TD*%
D27*
%TO.C,J6*%
X56645000Y-50800000D03*
D28*
X56645000Y-48260000D03*
X59185000Y-50800000D03*
X59185000Y-48260000D03*
X61725000Y-50800000D03*
X61725000Y-48260000D03*
X64265000Y-50800000D03*
X64265000Y-48260000D03*
X66805000Y-50800000D03*
X66805000Y-48260000D03*
X69345000Y-50800000D03*
X69345000Y-48260000D03*
X71885000Y-50800000D03*
X71885000Y-48260000D03*
X74425000Y-50800000D03*
X74425000Y-48260000D03*
%TD*%
M02*
