%TF.GenerationSoftware,KiCad,Pcbnew,7.0.11-7.0.11~ubuntu20.04.1*%
%TF.CreationDate,2024-03-20T21:38:14+00:00*%
%TF.ProjectId,MDFPGA,4d444650-4741-42e6-9b69-6361645f7063,rev?*%
%TF.SameCoordinates,Original*%
%TF.FileFunction,Copper,L4,Bot*%
%TF.FilePolarity,Positive*%
%FSLAX46Y46*%
G04 Gerber Fmt 4.6, Leading zero omitted, Abs format (unit mm)*
G04 Created by KiCad (PCBNEW 7.0.11-7.0.11~ubuntu20.04.1) date 2024-03-20 21:38:14*
%MOMM*%
%LPD*%
G01*
G04 APERTURE LIST*
G04 Aperture macros list*
%AMRoundRect*
0 Rectangle with rounded corners*
0 $1 Rounding radius*
0 $2 $3 $4 $5 $6 $7 $8 $9 X,Y pos of 4 corners*
0 Add a 4 corners polygon primitive as box body*
4,1,4,$2,$3,$4,$5,$6,$7,$8,$9,$2,$3,0*
0 Add four circle primitives for the rounded corners*
1,1,$1+$1,$2,$3*
1,1,$1+$1,$4,$5*
1,1,$1+$1,$6,$7*
1,1,$1+$1,$8,$9*
0 Add four rect primitives between the rounded corners*
20,1,$1+$1,$2,$3,$4,$5,0*
20,1,$1+$1,$4,$5,$6,$7,0*
20,1,$1+$1,$6,$7,$8,$9,0*
20,1,$1+$1,$8,$9,$2,$3,0*%
G04 Aperture macros list end*
%TA.AperFunction,ComponentPad*%
%ADD10R,1.700000X1.700000*%
%TD*%
%TA.AperFunction,ComponentPad*%
%ADD11O,1.700000X1.700000*%
%TD*%
%TA.AperFunction,ComponentPad*%
%ADD12C,1.600000*%
%TD*%
%TA.AperFunction,ComponentPad*%
%ADD13RoundRect,0.200000X0.600000X-0.600000X0.600000X0.600000X-0.600000X0.600000X-0.600000X-0.600000X0*%
%TD*%
%TA.AperFunction,ComponentPad*%
%ADD14R,3.000000X3.000000*%
%TD*%
%TA.AperFunction,ComponentPad*%
%ADD15C,3.000000*%
%TD*%
%TA.AperFunction,ComponentPad*%
%ADD16R,2.000000X2.000000*%
%TD*%
%TA.AperFunction,ComponentPad*%
%ADD17C,2.000000*%
%TD*%
%TA.AperFunction,ComponentPad*%
%ADD18RoundRect,0.250000X0.600000X-0.600000X0.600000X0.600000X-0.600000X0.600000X-0.600000X-0.600000X0*%
%TD*%
%TA.AperFunction,ComponentPad*%
%ADD19C,1.700000*%
%TD*%
%TA.AperFunction,ComponentPad*%
%ADD20RoundRect,0.250001X1.099999X-1.099999X1.099999X1.099999X-1.099999X1.099999X-1.099999X-1.099999X0*%
%TD*%
%TA.AperFunction,ComponentPad*%
%ADD21C,2.700000*%
%TD*%
%TA.AperFunction,ComponentPad*%
%ADD22R,3.500000X3.500000*%
%TD*%
%TA.AperFunction,ComponentPad*%
%ADD23RoundRect,0.750000X-0.750000X-1.000000X0.750000X-1.000000X0.750000X1.000000X-0.750000X1.000000X0*%
%TD*%
%TA.AperFunction,ComponentPad*%
%ADD24RoundRect,0.875000X-0.875000X-0.875000X0.875000X-0.875000X0.875000X0.875000X-0.875000X0.875000X0*%
%TD*%
%TA.AperFunction,SMDPad,CuDef*%
%ADD25RoundRect,0.250000X-0.250000X-0.475000X0.250000X-0.475000X0.250000X0.475000X-0.250000X0.475000X0*%
%TD*%
%TA.AperFunction,SMDPad,CuDef*%
%ADD26RoundRect,0.250000X0.475000X-0.250000X0.475000X0.250000X-0.475000X0.250000X-0.475000X-0.250000X0*%
%TD*%
%TA.AperFunction,SMDPad,CuDef*%
%ADD27RoundRect,0.250000X-0.475000X0.250000X-0.475000X-0.250000X0.475000X-0.250000X0.475000X0.250000X0*%
%TD*%
%TA.AperFunction,SMDPad,CuDef*%
%ADD28RoundRect,0.250000X0.425000X-0.450000X0.425000X0.450000X-0.425000X0.450000X-0.425000X-0.450000X0*%
%TD*%
%TA.AperFunction,SMDPad,CuDef*%
%ADD29RoundRect,0.225000X0.225000X0.375000X-0.225000X0.375000X-0.225000X-0.375000X0.225000X-0.375000X0*%
%TD*%
%TA.AperFunction,SMDPad,CuDef*%
%ADD30RoundRect,0.250000X0.250000X0.475000X-0.250000X0.475000X-0.250000X-0.475000X0.250000X-0.475000X0*%
%TD*%
%TA.AperFunction,ViaPad*%
%ADD31C,0.635000*%
%TD*%
%TA.AperFunction,ViaPad*%
%ADD32C,0.508000*%
%TD*%
%TA.AperFunction,Conductor*%
%ADD33C,0.254000*%
%TD*%
%TA.AperFunction,Conductor*%
%ADD34C,0.190500*%
%TD*%
G04 APERTURE END LIST*
D10*
%TO.P,J11,1,Pin_1*%
%TO.N,Net-(D3-K)*%
X87630000Y-49530000D03*
D11*
%TO.P,J11,2,Pin_2*%
%TO.N,/FPGA/CDONE*%
X85090000Y-49530000D03*
%TD*%
D10*
%TO.P,J10,1,Pin_1*%
%TO.N,/FPGA/~{CRESET_B}*%
X92710000Y-57150000D03*
D11*
%TO.P,J10,2,Pin_2*%
%TO.N,GND*%
X95250000Y-57150000D03*
%TD*%
D12*
%TO.P,A1,1,GP0*%
%TO.N,/UART0_TX*%
X1905000Y-38735000D03*
%TO.P,A1,2,GP1*%
%TO.N,/UART0_RX*%
X4445000Y-38735000D03*
D13*
%TO.P,A1,3,GND*%
%TO.N,GND*%
X6985000Y-38735000D03*
D12*
%TO.P,A1,4,GP2*%
%TO.N,/RED1*%
X9525000Y-38735000D03*
%TO.P,A1,5,GP3*%
%TO.N,/GREEN1*%
X12065000Y-38735000D03*
%TO.P,A1,6,GP4*%
%TO.N,/BLUE1*%
X14605000Y-38735000D03*
%TO.P,A1,7,GP5*%
%TO.N,/RED2*%
X17145000Y-38735000D03*
D13*
%TO.P,A1,8,GND*%
%TO.N,GND*%
X19685000Y-38735000D03*
D12*
%TO.P,A1,9,GP6*%
%TO.N,/GREEN2*%
X22225000Y-38735000D03*
%TO.P,A1,10,GP7*%
%TO.N,/BLUE2*%
X24765000Y-38735000D03*
%TO.P,A1,11,GP8*%
%TO.N,/ADDRA*%
X27305000Y-38735000D03*
%TO.P,A1,12,GP9*%
%TO.N,/ADDRB*%
X29845000Y-38735000D03*
D13*
%TO.P,A1,13,GND*%
%TO.N,GND*%
X32385000Y-38735000D03*
D12*
%TO.P,A1,14,GP10*%
%TO.N,/ADDRC*%
X34925000Y-38735000D03*
%TO.P,A1,15,GP11*%
%TO.N,/ADDRD*%
X37465000Y-38735000D03*
%TO.P,A1,16,GP12*%
%TO.N,unconnected-(A1-GP12-Pad16)*%
X40005000Y-38693119D03*
%TO.P,A1,17,GP13*%
%TO.N,/CLK*%
X42545000Y-38735000D03*
D13*
%TO.P,A1,18,GND*%
%TO.N,GND*%
X45085000Y-38735000D03*
D12*
%TO.P,A1,19,GP14*%
%TO.N,/LATCH*%
X47625000Y-38735000D03*
%TO.P,A1,20,GP15*%
%TO.N,/OE*%
X50165000Y-38735000D03*
%TO.P,A1,21,GP16*%
%TO.N,CTRL_MISO*%
X50165000Y-20955000D03*
%TO.P,A1,22,GP17*%
%TO.N,~{CTRL_SS}*%
X47625000Y-20955000D03*
D13*
%TO.P,A1,23,GND*%
%TO.N,GND*%
X45085000Y-20955000D03*
D12*
%TO.P,A1,24,GP18*%
%TO.N,CTRL_CLK*%
X42545000Y-20955000D03*
%TO.P,A1,25,GP19*%
%TO.N,CTRL_MOSI*%
X40005000Y-20955000D03*
%TO.P,A1,26,GP20*%
%TO.N,/SDA*%
X37465000Y-20955000D03*
%TO.P,A1,27,GP21*%
%TO.N,/SCL*%
X34925000Y-20955000D03*
D13*
%TO.P,A1,28,GND*%
%TO.N,GND*%
X32385000Y-20955000D03*
D12*
%TO.P,A1,29,GP22*%
%TO.N,/RTCSQWAVE*%
X29845000Y-20955000D03*
%TO.P,A1,30,RUN*%
%TO.N,unconnected-(A1-RUN-Pad30)*%
X27305000Y-20955000D03*
%TO.P,A1,31,GP26*%
%TO.N,~{CTRL_RESET}*%
X24765000Y-20955000D03*
%TO.P,A1,32,GP27*%
%TO.N,/BUZZER*%
X22225000Y-20955000D03*
D13*
%TO.P,A1,33,AGND*%
%TO.N,GND*%
X19685000Y-20955000D03*
D12*
%TO.P,A1,34,GP28*%
%TO.N,unconnected-(A1-GP28-Pad34)*%
X17145000Y-20955000D03*
%TO.P,A1,35,ADC_VREF*%
%TO.N,unconnected-(A1-ADC_VREF-Pad35)*%
X14605000Y-20955000D03*
%TO.P,A1,36,3V3_OUT*%
%TO.N,+3V3*%
X12065000Y-20955000D03*
%TO.P,A1,37,3V3_EN*%
%TO.N,unconnected-(A1-3V3_EN-Pad37)*%
X9525000Y-20955000D03*
D13*
%TO.P,A1,38,GND*%
%TO.N,GND*%
X6985000Y-20955000D03*
D12*
%TO.P,A1,39,VSYS*%
%TO.N,unconnected-(A1-VSYS-Pad39)*%
X4445000Y-20955000D03*
%TO.P,A1,40,VBUS*%
%TO.N,+5V*%
X1905000Y-20955000D03*
%TD*%
D10*
%TO.P,J1,1,Pin_1*%
%TO.N,+3V3*%
X67310000Y-5080000D03*
D11*
%TO.P,J1,2,Pin_2*%
%TO.N,/FPGA/FLASH_MOSI*%
X69850000Y-5080000D03*
%TO.P,J1,3,Pin_3*%
%TO.N,/FPGA/FLASH_MISO*%
X72390000Y-5080000D03*
%TO.P,J1,4,Pin_4*%
%TO.N,/FPGA/ICE_SCK*%
X74930000Y-5080000D03*
%TO.P,J1,5,Pin_5*%
%TO.N,/FPGA/ICE_SS*%
X77470000Y-5080000D03*
%TO.P,J1,6,Pin_6*%
%TO.N,GND*%
X80010000Y-5080000D03*
%TD*%
D10*
%TO.P,J2,1,Pin_1*%
%TO.N,+3V3*%
X1905000Y-46355000D03*
D11*
%TO.P,J2,2,Pin_2*%
%TO.N,/UART0_TX*%
X4445000Y-46355000D03*
%TO.P,J2,3,Pin_3*%
%TO.N,/UART0_RX*%
X6985000Y-46355000D03*
%TO.P,J2,4,Pin_4*%
%TO.N,GND*%
X9525000Y-46355000D03*
%TD*%
D14*
%TO.P,J7,1,Pin_1*%
%TO.N,+5V*%
X57280000Y-63875000D03*
D15*
%TO.P,J7,2,Pin_2*%
%TO.N,GND*%
X57280000Y-68955000D03*
%TD*%
D16*
%TO.P,SP1,1,1*%
%TO.N,Net-(R6-Pad2)*%
X78730000Y-65145000D03*
D17*
%TO.P,SP1,2,2*%
%TO.N,/BUZZER*%
X71130000Y-65145000D03*
%TD*%
D10*
%TO.P,J9,1,Pin_1*%
%TO.N,/FPGA/ICE_SS*%
X95250000Y-27940000D03*
D11*
%TO.P,J9,2,Pin_2*%
%TO.N,Net-(J9-Pin_2)*%
X92710000Y-27940000D03*
%TD*%
D10*
%TO.P,J8,1,Pin_1*%
%TO.N,/FPGA/FLASH_MOSI*%
X72390000Y-10160000D03*
D11*
%TO.P,J8,2,Pin_2*%
%TO.N,/FPGA/ICE_MISO*%
X74930000Y-10160000D03*
%TO.P,J8,3,Pin_3*%
%TO.N,/FPGA/ICE_MOSI*%
X72390000Y-12700000D03*
%TO.P,J8,4,Pin_4*%
%TO.N,/FPGA/FLASH_MISO*%
X74930000Y-12700000D03*
%TD*%
D18*
%TO.P,J3,1,Pin_1*%
%TO.N,/RED1*%
X20320000Y-50800000D03*
D19*
%TO.P,J3,2,Pin_2*%
%TO.N,/GREEN1*%
X20320000Y-48260000D03*
%TO.P,J3,3,Pin_3*%
%TO.N,/BLUE1*%
X22860000Y-50800000D03*
%TO.P,J3,4,Pin_4*%
%TO.N,GND*%
X22860000Y-48260000D03*
%TO.P,J3,5,Pin_5*%
%TO.N,/RED2*%
X25400000Y-50800000D03*
%TO.P,J3,6,Pin_6*%
%TO.N,/GREEN2*%
X25400000Y-48260000D03*
%TO.P,J3,7,Pin_7*%
%TO.N,/BLUE2*%
X27940000Y-50800000D03*
%TO.P,J3,8,Pin_8*%
%TO.N,GND*%
X27940000Y-48260000D03*
%TO.P,J3,9,Pin_9*%
%TO.N,/ADDRA*%
X30480000Y-50800000D03*
%TO.P,J3,10,Pin_10*%
%TO.N,/ADDRB*%
X30480000Y-48260000D03*
%TO.P,J3,11,Pin_11*%
%TO.N,/ADDRC*%
X33020000Y-50800000D03*
%TO.P,J3,12,Pin_12*%
%TO.N,/ADDRD*%
X33020000Y-48260000D03*
%TO.P,J3,13,Pin_13*%
%TO.N,/CLK*%
X35560000Y-50800000D03*
%TO.P,J3,14,Pin_14*%
%TO.N,/LATCH*%
X35560000Y-48260000D03*
%TO.P,J3,15,Pin_15*%
%TO.N,/OE*%
X38100000Y-50800000D03*
%TO.P,J3,16,Pin_16*%
%TO.N,GND*%
X38100000Y-48260000D03*
%TD*%
D10*
%TO.P,J5,1,Pin_1*%
%TO.N,+3V3*%
X44450000Y-5080000D03*
D11*
%TO.P,J5,2,Pin_2*%
%TO.N,/SCL*%
X46990000Y-5080000D03*
%TO.P,J5,3,Pin_3*%
%TO.N,/SDA*%
X49530000Y-5080000D03*
%TO.P,J5,4,Pin_4*%
%TO.N,GND*%
X52070000Y-5080000D03*
%TD*%
D20*
%TO.P,J4,1,Pin_1*%
%TO.N,+5V*%
X23705000Y-69440000D03*
D21*
%TO.P,J4,2,Pin_2*%
X23705000Y-65480000D03*
%TO.P,J4,3,Pin_3*%
%TO.N,GND*%
X23705000Y-61520000D03*
%TO.P,J4,4,Pin_4*%
X23705000Y-57560000D03*
%TD*%
D22*
%TO.P,CON1,1*%
%TO.N,+5V*%
X11715000Y-56192500D03*
D23*
%TO.P,CON1,2*%
%TO.N,GND*%
X5715000Y-56192500D03*
D24*
%TO.P,CON1,3*%
X8715000Y-60892500D03*
%TD*%
D18*
%TO.P,J6,1,Pin_1*%
%TO.N,/FPGA/RED1*%
X56645000Y-50800000D03*
D19*
%TO.P,J6,2,Pin_2*%
%TO.N,/FPGA/GREEN1*%
X56645000Y-48260000D03*
%TO.P,J6,3,Pin_3*%
%TO.N,/FPGA/BLUE1*%
X59185000Y-50800000D03*
%TO.P,J6,4,Pin_4*%
%TO.N,GND*%
X59185000Y-48260000D03*
%TO.P,J6,5,Pin_5*%
%TO.N,/FPGA/RED2*%
X61725000Y-50800000D03*
%TO.P,J6,6,Pin_6*%
%TO.N,/FPGA/GREEN2*%
X61725000Y-48260000D03*
%TO.P,J6,7,Pin_7*%
%TO.N,/FPGA/BLUE2*%
X64265000Y-50800000D03*
%TO.P,J6,8,Pin_8*%
%TO.N,GND*%
X64265000Y-48260000D03*
%TO.P,J6,9,Pin_9*%
%TO.N,/FPGA/ADDRA*%
X66805000Y-50800000D03*
%TO.P,J6,10,Pin_10*%
%TO.N,/FPGA/ADDRB*%
X66805000Y-48260000D03*
%TO.P,J6,11,Pin_11*%
%TO.N,/FPGA/ADDRC*%
X69345000Y-50800000D03*
%TO.P,J6,12,Pin_12*%
%TO.N,/FPGA/ADDRD*%
X69345000Y-48260000D03*
%TO.P,J6,13,Pin_13*%
%TO.N,/FPGA/CLK*%
X71885000Y-50800000D03*
%TO.P,J6,14,Pin_14*%
%TO.N,/FPGA/LATCH*%
X71885000Y-48260000D03*
%TO.P,J6,15,Pin_15*%
%TO.N,/FPGA/OE*%
X74425000Y-50800000D03*
%TO.P,J6,16,Pin_16*%
%TO.N,GND*%
X74425000Y-48260000D03*
%TD*%
D25*
%TO.P,C13,1*%
%TO.N,+3V3*%
X73348000Y-27807000D03*
%TO.P,C13,2*%
%TO.N,GND*%
X75248000Y-27807000D03*
%TD*%
D26*
%TO.P,C6,1*%
%TO.N,+1V2*%
X81156000Y-34665000D03*
%TO.P,C6,2*%
%TO.N,GND*%
X81156000Y-32765000D03*
%TD*%
D27*
%TO.P,C12,1*%
%TO.N,/FPGA/VPP_2V5*%
X72266000Y-34096000D03*
%TO.P,C12,2*%
%TO.N,GND*%
X72266000Y-35996000D03*
%TD*%
D26*
%TO.P,C15,1*%
%TO.N,+3V3*%
X72012000Y-40060000D03*
%TO.P,C15,2*%
%TO.N,GND*%
X72012000Y-38160000D03*
%TD*%
%TO.P,C11,1*%
%TO.N,+1V2*%
X79124000Y-34660000D03*
%TO.P,C11,2*%
%TO.N,GND*%
X79124000Y-32760000D03*
%TD*%
D25*
%TO.P,C8,1*%
%TO.N,+3V3*%
X73348000Y-29839000D03*
%TO.P,C8,2*%
%TO.N,GND*%
X75248000Y-29839000D03*
%TD*%
D26*
%TO.P,C9,1*%
%TO.N,+1V2*%
X76203000Y-42158000D03*
%TO.P,C9,2*%
%TO.N,GND*%
X76203000Y-40258000D03*
%TD*%
D28*
%TO.P,C3,1*%
%TO.N,+3V3*%
X87760000Y-34872000D03*
%TO.P,C3,2*%
%TO.N,GND*%
X87760000Y-32172000D03*
%TD*%
D27*
%TO.P,C1,1*%
%TO.N,+3V3*%
X33020000Y-7686000D03*
%TO.P,C1,2*%
%TO.N,GND*%
X33020000Y-9586000D03*
%TD*%
D26*
%TO.P,C10,1*%
%TO.N,+1V2*%
X74171000Y-42158000D03*
%TO.P,C10,2*%
%TO.N,GND*%
X74171000Y-40258000D03*
%TD*%
D25*
%TO.P,C2,1*%
%TO.N,+3V3*%
X63315000Y-31744000D03*
%TO.P,C2,2*%
%TO.N,GND*%
X65215000Y-31744000D03*
%TD*%
D28*
%TO.P,C5,1*%
%TO.N,+1V2*%
X85220000Y-34872000D03*
%TO.P,C5,2*%
%TO.N,GND*%
X85220000Y-32172000D03*
%TD*%
D27*
%TO.P,C17,1*%
%TO.N,+1V2*%
X82426000Y-38414000D03*
%TO.P,C17,2*%
%TO.N,GND*%
X82426000Y-40314000D03*
%TD*%
D29*
%TO.P,D4,1,K*%
%TO.N,/FPGA/VPP_2V5*%
X70487000Y-32760000D03*
%TO.P,D4,2,A*%
%TO.N,+3V3*%
X67187000Y-32760000D03*
%TD*%
D26*
%TO.P,C14,1*%
%TO.N,+3V3*%
X69980000Y-40060000D03*
%TO.P,C14,2*%
%TO.N,GND*%
X69980000Y-38160000D03*
%TD*%
D30*
%TO.P,C7,1*%
%TO.N,+3V3*%
X81979000Y-19552000D03*
%TO.P,C7,2*%
%TO.N,GND*%
X80079000Y-19552000D03*
%TD*%
D26*
%TO.P,C4,1*%
%TO.N,+1V2*%
X83188000Y-34660000D03*
%TO.P,C4,2*%
%TO.N,GND*%
X83188000Y-32760000D03*
%TD*%
D27*
%TO.P,C16,1*%
%TO.N,+1V2*%
X80267000Y-38348000D03*
%TO.P,C16,2*%
%TO.N,GND*%
X80267000Y-40248000D03*
%TD*%
D31*
%TO.N,GND*%
X35560000Y-8001000D03*
X76965000Y-38475000D03*
X85220000Y-27807000D03*
X82680000Y-29077000D03*
X20320000Y-14605000D03*
X75695000Y-38475000D03*
X74425000Y-38475000D03*
X80140000Y-29077000D03*
X76965000Y-35935000D03*
X35560000Y-13081000D03*
X52578000Y-18161000D03*
X81410000Y-27807000D03*
X74425000Y-35935000D03*
X86490000Y-29077000D03*
X63757000Y-33098000D03*
X78870000Y-27807000D03*
X30480000Y-9271000D03*
X30480000Y-13081000D03*
X81410000Y-29077000D03*
X77092000Y-24886000D03*
X77600000Y-29077000D03*
X78870000Y-29077000D03*
X87760000Y-27807000D03*
X83950000Y-29077000D03*
X75568000Y-30982000D03*
X92710000Y-44828000D03*
X85220000Y-29077000D03*
X80140000Y-27807000D03*
X86490000Y-27807000D03*
X87760000Y-29077000D03*
X88635000Y-65145000D03*
X82680000Y-27807000D03*
X77600000Y-27807000D03*
X83950000Y-27807000D03*
X83592500Y-57525000D03*
X75695000Y-35935000D03*
%TO.N,+3V3*%
X90046000Y-35300000D03*
X62360000Y-31744000D03*
X68710000Y-40380000D03*
X89030000Y-35300000D03*
X88268000Y-36062000D03*
X67186000Y-33903000D03*
X70869000Y-30220000D03*
X96520000Y-53437500D03*
X68202000Y-31871000D03*
X90681000Y-18028000D03*
X30226000Y-5461000D03*
X67821000Y-30220000D03*
X70869000Y-27807000D03*
X61595000Y-2280000D03*
X90046000Y-36316000D03*
X69345000Y-27807000D03*
X67821000Y-27807000D03*
X89030000Y-36316000D03*
X87122000Y-42545000D03*
X83696000Y-19552000D03*
X73409000Y-30728000D03*
X66805000Y-39618000D03*
X88141000Y-18004500D03*
X61595000Y-4820000D03*
X87125000Y-36062000D03*
X83592500Y-54350000D03*
X69345000Y-30220000D03*
D32*
%TO.N,CTRL_MOSI*%
X89281000Y-39497000D03*
%TO.N,CTRL_MISO*%
X88011000Y-38481000D03*
%TO.N,CTRL_CLK*%
X88646000Y-38989000D03*
D31*
%TO.N,+1V2*%
X84204000Y-34284000D03*
X83947000Y-35433000D03*
X66678000Y-42412000D03*
X81156000Y-38602000D03*
X86106000Y-37338000D03*
X69974500Y-37020000D03*
D32*
%TO.N,/FPGA/VPP_2V5*%
X71377000Y-33014000D03*
%TO.N,/FPGA/FLASH_MOSI*%
X85598000Y-24384000D03*
%TO.N,/FPGA/CLK*%
X68710000Y-46736000D03*
%TO.N,~{CTRL_RESET}*%
X89916000Y-40005000D03*
%TO.N,/FPGA/ICE_SS*%
X81029000Y-25013000D03*
%TO.N,Net-(J9-Pin_2)*%
X79886000Y-21076000D03*
%TD*%
D33*
%TO.N,GND*%
X33020000Y-9586000D02*
X33020000Y-11811000D01*
X71880000Y-36565000D02*
X71885000Y-36570000D01*
X31750000Y-13081000D02*
X30480000Y-13081000D01*
X77092000Y-24886000D02*
X77092000Y-20695000D01*
X30480000Y-13081000D02*
X30480000Y-9271000D01*
X63861000Y-33098000D02*
X65215000Y-31744000D01*
X79510000Y-32765000D02*
X79505000Y-32760000D01*
X33020000Y-11811000D02*
X31750000Y-13081000D01*
X35560000Y-8001000D02*
X35560000Y-13081000D01*
X30480000Y-13081000D02*
X35560000Y-13081000D01*
X34290000Y-13081000D02*
X35560000Y-13081000D01*
X84585000Y-31965000D02*
X85220000Y-31965000D01*
X83785000Y-32765000D02*
X84585000Y-31965000D01*
X33020000Y-11811000D02*
X34290000Y-13081000D01*
X78235000Y-19552000D02*
X80079000Y-19552000D01*
X63757000Y-33098000D02*
X63861000Y-33098000D01*
X77092000Y-20695000D02*
X78235000Y-19552000D01*
D34*
%TO.N,/BUZZER*%
X52959000Y-51689000D02*
X52959000Y-37084000D01*
X52959000Y-37084000D02*
X42291000Y-26416000D01*
X27686000Y-26416000D02*
X22225000Y-20955000D01*
X71120000Y-65145000D02*
X66415000Y-65145000D01*
X42291000Y-26416000D02*
X27686000Y-26416000D01*
X66415000Y-65145000D02*
X52959000Y-51689000D01*
D33*
%TO.N,+3V3*%
X88014000Y-35173000D02*
X88014000Y-34919000D01*
X87705000Y-34745000D02*
X87760000Y-34745000D01*
X87760000Y-35427000D02*
X87760000Y-34618000D01*
X62360000Y-31744000D02*
X62995000Y-31744000D01*
X83696000Y-19552000D02*
X81979000Y-19552000D01*
X30226000Y-5461000D02*
X30861000Y-5461000D01*
X30861000Y-5461000D02*
X33020000Y-7620000D01*
D34*
%TO.N,CTRL_MOSI*%
X62674500Y-45339000D02*
X40005000Y-22669500D01*
X89281000Y-39497000D02*
X89281000Y-43561000D01*
X87503000Y-45339000D02*
X62674500Y-45339000D01*
X89281000Y-43561000D02*
X87503000Y-45339000D01*
X40005000Y-22669500D02*
X40005000Y-20955000D01*
%TO.N,CTRL_MISO*%
X86868000Y-44323000D02*
X63119000Y-44323000D01*
X63119000Y-44323000D02*
X50165000Y-31369000D01*
X88011000Y-43180000D02*
X86868000Y-44323000D01*
X50165000Y-31369000D02*
X50165000Y-21082000D01*
X88011000Y-38481000D02*
X88011000Y-43180000D01*
%TO.N,CTRL_CLK*%
X88646000Y-38989000D02*
X88646000Y-43307000D01*
X87122000Y-44831000D02*
X62928500Y-44831000D01*
X62928500Y-44831000D02*
X42545000Y-24447500D01*
X42545000Y-24447500D02*
X42545000Y-21082000D01*
X88646000Y-43307000D02*
X87122000Y-44831000D01*
D33*
%TO.N,+1V2*%
X70159500Y-37205000D02*
X78743000Y-37205000D01*
X69974500Y-37020000D02*
X70159500Y-37205000D01*
X81730000Y-34345000D02*
X81410000Y-34665000D01*
X81410000Y-34665000D02*
X81405000Y-34660000D01*
D34*
%TO.N,/FPGA/FLASH_MOSI*%
X80010000Y-11557000D02*
X73787000Y-11557000D01*
X73787000Y-11557000D02*
X72390000Y-10160000D01*
X85598000Y-24384000D02*
X85598000Y-17145000D01*
X85598000Y-17145000D02*
X80010000Y-11557000D01*
%TO.N,/FPGA/CLK*%
X70615000Y-49905000D02*
X70615000Y-47374000D01*
X71885000Y-51175000D02*
X70615000Y-49905000D01*
X69977000Y-46736000D02*
X68710000Y-46736000D01*
X70615000Y-47374000D02*
X69977000Y-46736000D01*
%TO.N,~{CTRL_RESET}*%
X28702000Y-24892000D02*
X24765000Y-20955000D01*
X89916000Y-43942000D02*
X88011000Y-45847000D01*
X88011000Y-45847000D02*
X62484000Y-45847000D01*
X41529000Y-24892000D02*
X28702000Y-24892000D01*
X89916000Y-40005000D02*
X89916000Y-43942000D01*
X62484000Y-45847000D02*
X41529000Y-24892000D01*
%TO.N,/FPGA/ICE_SS*%
X81029000Y-25013000D02*
X94863000Y-25013000D01*
X95250000Y-25400000D02*
X95250000Y-27940000D01*
X94863000Y-25013000D02*
X95250000Y-25400000D01*
%TO.N,Net-(J9-Pin_2)*%
X79124000Y-25140000D02*
X80140000Y-26156000D01*
X79632000Y-21076000D02*
X79124000Y-21584000D01*
X79886000Y-21076000D02*
X79632000Y-21076000D01*
X79124000Y-21584000D02*
X79124000Y-25140000D01*
X90926000Y-26156000D02*
X92710000Y-27940000D01*
X80140000Y-26156000D02*
X90926000Y-26156000D01*
%TD*%
%TA.AperFunction,Conductor*%
%TO.N,+3V3*%
G36*
X68583000Y-31363000D02*
G01*
X68583000Y-31699377D01*
X68581738Y-31717023D01*
X68577500Y-31746498D01*
X68577500Y-34795007D01*
X68582289Y-34839541D01*
X68583000Y-34852797D01*
X68583000Y-39237000D01*
X72650000Y-39237000D01*
X72717039Y-39256685D01*
X72762794Y-39309489D01*
X72774000Y-39361000D01*
X72774000Y-41012500D01*
X72754315Y-41079539D01*
X72701511Y-41125294D01*
X72650000Y-41136500D01*
X66421000Y-41136500D01*
X66353961Y-41116815D01*
X66308206Y-41064011D01*
X66297000Y-41012500D01*
X66297000Y-26915000D01*
X66316685Y-26847961D01*
X66369489Y-26802206D01*
X66421000Y-26791000D01*
X68583000Y-26791000D01*
X68583000Y-31363000D01*
G37*
%TD.AperFunction*%
%TD*%
%TA.AperFunction,Conductor*%
%TO.N,+1V2*%
G36*
X83950000Y-43174000D02*
G01*
X66421000Y-43174000D01*
X66353961Y-43154315D01*
X66308206Y-43101511D01*
X66297000Y-43050000D01*
X66297000Y-41520000D01*
X66316685Y-41452961D01*
X66369489Y-41407206D01*
X66421000Y-41396000D01*
X83950000Y-41396000D01*
X83950000Y-43174000D01*
G37*
%TD.AperFunction*%
%TD*%
%TA.AperFunction,Conductor*%
%TO.N,+3V3*%
G36*
X74114039Y-26810685D02*
G01*
X74159794Y-26863489D01*
X74171000Y-26915000D01*
X74171000Y-31239000D01*
X74151315Y-31306039D01*
X74098511Y-31351794D01*
X74047000Y-31363000D01*
X68583000Y-31363000D01*
X68583000Y-26791000D01*
X74047000Y-26791000D01*
X74114039Y-26810685D01*
G37*
%TD.AperFunction*%
%TD*%
%TA.AperFunction,Conductor*%
%TO.N,GND*%
G36*
X77450499Y-39021631D02*
G01*
X77472920Y-39088994D01*
X77473000Y-39093492D01*
X77473000Y-39491000D01*
X83429589Y-39491000D01*
X83454170Y-39493421D01*
X83480458Y-39498649D01*
X83514621Y-39505445D01*
X83560037Y-39524257D01*
X83600768Y-39551472D01*
X83635527Y-39586231D01*
X83662741Y-39626959D01*
X83681554Y-39672378D01*
X83693579Y-39732829D01*
X83696000Y-39757411D01*
X83696000Y-40875588D01*
X83693579Y-40900170D01*
X83681554Y-40960621D01*
X83662741Y-41006040D01*
X83635530Y-41046765D01*
X83600765Y-41081530D01*
X83560040Y-41108741D01*
X83514623Y-41127553D01*
X83481823Y-41134078D01*
X83457239Y-41136500D01*
X73266761Y-41136500D01*
X73242180Y-41134079D01*
X73222590Y-41130182D01*
X73209377Y-41127554D01*
X73163959Y-41108741D01*
X73123231Y-41081527D01*
X73088472Y-41046768D01*
X73061257Y-41006037D01*
X73042445Y-40960619D01*
X73035921Y-40927819D01*
X73033500Y-40903239D01*
X73033500Y-39361004D01*
X73033499Y-39360992D01*
X73028722Y-39316560D01*
X73028000Y-39303090D01*
X73028000Y-39236999D01*
X73028000Y-38983000D01*
X77402560Y-38983000D01*
X77450499Y-39021631D01*
G37*
%TD.AperFunction*%
%TD*%
%TA.AperFunction,Conductor*%
%TO.N,/FPGA/VPP_2V5*%
G36*
X74114039Y-31642185D02*
G01*
X74159794Y-31694989D01*
X74171000Y-31746500D01*
X74171000Y-34795000D01*
X74151315Y-34862039D01*
X74098511Y-34907794D01*
X74047000Y-34919000D01*
X68961000Y-34919000D01*
X68893961Y-34899315D01*
X68848206Y-34846511D01*
X68837000Y-34795000D01*
X68837000Y-31746500D01*
X68856685Y-31679461D01*
X68909489Y-31633706D01*
X68961000Y-31622500D01*
X74047000Y-31622500D01*
X74114039Y-31642185D01*
G37*
%TD.AperFunction*%
%TD*%
%TA.AperFunction,Conductor*%
%TO.N,+1V2*%
G36*
X86180621Y-33928502D02*
G01*
X86227114Y-33982158D01*
X86238500Y-34034500D01*
X86238500Y-36700007D01*
X86250053Y-36807457D01*
X86250055Y-36807470D01*
X86261258Y-36858964D01*
X86261262Y-36858978D01*
X86295385Y-36961501D01*
X86373176Y-37082545D01*
X86373177Y-37082547D01*
X86418926Y-37135343D01*
X86418928Y-37135344D01*
X86418930Y-37135347D01*
X86434767Y-37149070D01*
X86446513Y-37159248D01*
X86484896Y-37218974D01*
X86490000Y-37254472D01*
X86490000Y-42907588D01*
X86487579Y-42932170D01*
X86475554Y-42992621D01*
X86456741Y-43038040D01*
X86429530Y-43078765D01*
X86394765Y-43113530D01*
X86354040Y-43140741D01*
X86308622Y-43159554D01*
X86270376Y-43167162D01*
X86248169Y-43171579D01*
X86223589Y-43174000D01*
X83950000Y-43174000D01*
X83950000Y-40947236D01*
X83951364Y-40928745D01*
X83951386Y-40928595D01*
X83951830Y-40925604D01*
X83954251Y-40901022D01*
X83955500Y-40875588D01*
X83955500Y-39757411D01*
X83954251Y-39731977D01*
X83951830Y-39707395D01*
X83951830Y-39707393D01*
X83951364Y-39704250D01*
X83950000Y-39685763D01*
X83950000Y-39490999D01*
X83950000Y-39237000D01*
X83696003Y-39237000D01*
X83501229Y-39237000D01*
X83482755Y-39235638D01*
X83479605Y-39235171D01*
X83479585Y-39235168D01*
X83455050Y-39232752D01*
X83455024Y-39232750D01*
X83429590Y-39231500D01*
X83429589Y-39231500D01*
X77965761Y-39231500D01*
X77941180Y-39229079D01*
X77921590Y-39225182D01*
X77908377Y-39222554D01*
X77862959Y-39203741D01*
X77822231Y-39176527D01*
X77787472Y-39141768D01*
X77760257Y-39101037D01*
X77741445Y-39055619D01*
X77729421Y-38995168D01*
X77727000Y-38970588D01*
X77727000Y-34169411D01*
X77729421Y-34144831D01*
X77741445Y-34084380D01*
X77760256Y-34038963D01*
X77787474Y-33998228D01*
X77822228Y-33963474D01*
X77862963Y-33936256D01*
X77908381Y-33917445D01*
X77941182Y-33910921D01*
X77965761Y-33908500D01*
X86112500Y-33908500D01*
X86180621Y-33928502D01*
G37*
%TD.AperFunction*%
%TD*%
%TA.AperFunction,Conductor*%
%TO.N,+3V3*%
G36*
X90497039Y-33922685D02*
G01*
X90542794Y-33975489D01*
X90554000Y-34027000D01*
X90554000Y-36700000D01*
X90534315Y-36767039D01*
X90481511Y-36812794D01*
X90430000Y-36824000D01*
X86868000Y-36824000D01*
X86800961Y-36804315D01*
X86755206Y-36751511D01*
X86744000Y-36700000D01*
X86744000Y-34027000D01*
X86763685Y-33959961D01*
X86816489Y-33914206D01*
X86868000Y-33903000D01*
X90430000Y-33903000D01*
X90497039Y-33922685D01*
G37*
%TD.AperFunction*%
%TD*%
%TA.AperFunction,Conductor*%
%TO.N,GND*%
G36*
X88407170Y-26793421D02*
G01*
X88433458Y-26798649D01*
X88467621Y-26805445D01*
X88513037Y-26824257D01*
X88553768Y-26851472D01*
X88588527Y-26886231D01*
X88615741Y-26926959D01*
X88634554Y-26972378D01*
X88646579Y-27032829D01*
X88649000Y-27057411D01*
X88649000Y-33271500D01*
X88628998Y-33339621D01*
X88575342Y-33386114D01*
X88523000Y-33397500D01*
X86867992Y-33397500D01*
X86760542Y-33409053D01*
X86760529Y-33409055D01*
X86709035Y-33420258D01*
X86709021Y-33420262D01*
X86606498Y-33454385D01*
X86485454Y-33532176D01*
X86485452Y-33532177D01*
X86432656Y-33577926D01*
X86408752Y-33605513D01*
X86349026Y-33643896D01*
X86313528Y-33649000D01*
X83950000Y-33649000D01*
X77346000Y-33649000D01*
X77346000Y-33902996D01*
X77346000Y-36697500D01*
X77325998Y-36765621D01*
X77272342Y-36812114D01*
X77220000Y-36823500D01*
X70596426Y-36823500D01*
X70528305Y-36803498D01*
X70481812Y-36749842D01*
X70480016Y-36745716D01*
X70474141Y-36731533D01*
X70474141Y-36731532D01*
X70448027Y-36697500D01*
X70382455Y-36612044D01*
X70262974Y-36520363D01*
X70262966Y-36520358D01*
X70123820Y-36462722D01*
X69974500Y-36443064D01*
X69825179Y-36462722D01*
X69686033Y-36520358D01*
X69686025Y-36520363D01*
X69566544Y-36612044D01*
X69474863Y-36731525D01*
X69474858Y-36731533D01*
X69417222Y-36870679D01*
X69397564Y-37019999D01*
X69397564Y-37020000D01*
X69417222Y-37169320D01*
X69474858Y-37308466D01*
X69474863Y-37308474D01*
X69566544Y-37427955D01*
X69643913Y-37487322D01*
X69686032Y-37519641D01*
X69825178Y-37577277D01*
X69974500Y-37596936D01*
X70058648Y-37585857D01*
X70095838Y-37586499D01*
X70095839Y-37586500D01*
X70095841Y-37586500D01*
X70103727Y-37587816D01*
X70111658Y-37588805D01*
X70111658Y-37588804D01*
X70111659Y-37588805D01*
X70164784Y-37586607D01*
X70169990Y-37586500D01*
X77220000Y-37586500D01*
X77288121Y-37606502D01*
X77334614Y-37660158D01*
X77346000Y-37712500D01*
X77346000Y-38983000D01*
X72697262Y-38983000D01*
X72679330Y-38981717D01*
X72674091Y-38980963D01*
X72650003Y-38977500D01*
X72650000Y-38977500D01*
X68968500Y-38977500D01*
X68900379Y-38957498D01*
X68853886Y-38903842D01*
X68842500Y-38851500D01*
X68842500Y-35304500D01*
X68862502Y-35236379D01*
X68916158Y-35189886D01*
X68968500Y-35178500D01*
X74046995Y-35178500D01*
X74047000Y-35178500D01*
X74098154Y-35173000D01*
X74298000Y-35173000D01*
X74298000Y-35078304D01*
X74321252Y-35058156D01*
X74353371Y-35024869D01*
X74400303Y-34935151D01*
X74419988Y-34868112D01*
X74430500Y-34795000D01*
X74430500Y-31746500D01*
X74424569Y-31691337D01*
X74413363Y-31639826D01*
X74406014Y-31613039D01*
X74373313Y-31555612D01*
X74356987Y-31486522D01*
X74371158Y-31434865D01*
X74400303Y-31379151D01*
X74419988Y-31312112D01*
X74430500Y-31239000D01*
X74430500Y-26918573D01*
X74450502Y-26850452D01*
X74504158Y-26803959D01*
X74531922Y-26794993D01*
X74539839Y-26793418D01*
X74564411Y-26791000D01*
X88382589Y-26791000D01*
X88407170Y-26793421D01*
G37*
%TD.AperFunction*%
%TD*%
M02*
