%TF.GenerationSoftware,KiCad,Pcbnew,7.0.11-7.0.11~ubuntu20.04.1*%
%TF.CreationDate,2024-03-20T21:38:14+00:00*%
%TF.ProjectId,MDFPGA,4d444650-4741-42e6-9b69-6361645f7063,rev?*%
%TF.SameCoordinates,Original*%
%TF.FileFunction,Soldermask,Bot*%
%TF.FilePolarity,Negative*%
%FSLAX46Y46*%
G04 Gerber Fmt 4.6, Leading zero omitted, Abs format (unit mm)*
G04 Created by KiCad (PCBNEW 7.0.11-7.0.11~ubuntu20.04.1) date 2024-03-20 21:38:14*
%MOMM*%
%LPD*%
G01*
G04 APERTURE LIST*
G04 Aperture macros list*
%AMRoundRect*
0 Rectangle with rounded corners*
0 $1 Rounding radius*
0 $2 $3 $4 $5 $6 $7 $8 $9 X,Y pos of 4 corners*
0 Add a 4 corners polygon primitive as box body*
4,1,4,$2,$3,$4,$5,$6,$7,$8,$9,$2,$3,0*
0 Add four circle primitives for the rounded corners*
1,1,$1+$1,$2,$3*
1,1,$1+$1,$4,$5*
1,1,$1+$1,$6,$7*
1,1,$1+$1,$8,$9*
0 Add four rect primitives between the rounded corners*
20,1,$1+$1,$2,$3,$4,$5,0*
20,1,$1+$1,$4,$5,$6,$7,0*
20,1,$1+$1,$6,$7,$8,$9,0*
20,1,$1+$1,$8,$9,$2,$3,0*%
G04 Aperture macros list end*
%ADD10R,1.700000X1.700000*%
%ADD11O,1.700000X1.700000*%
%ADD12C,1.600000*%
%ADD13RoundRect,0.200000X0.600000X-0.600000X0.600000X0.600000X-0.600000X0.600000X-0.600000X-0.600000X0*%
%ADD14R,3.000000X3.000000*%
%ADD15C,3.000000*%
%ADD16C,4.300000*%
%ADD17R,2.000000X2.000000*%
%ADD18C,2.000000*%
%ADD19RoundRect,0.250000X0.600000X-0.600000X0.600000X0.600000X-0.600000X0.600000X-0.600000X-0.600000X0*%
%ADD20C,1.700000*%
%ADD21RoundRect,0.250001X1.099999X-1.099999X1.099999X1.099999X-1.099999X1.099999X-1.099999X-1.099999X0*%
%ADD22C,2.700000*%
%ADD23R,3.500000X3.500000*%
%ADD24RoundRect,0.750000X-0.750000X-1.000000X0.750000X-1.000000X0.750000X1.000000X-0.750000X1.000000X0*%
%ADD25RoundRect,0.875000X-0.875000X-0.875000X0.875000X-0.875000X0.875000X0.875000X-0.875000X0.875000X0*%
%ADD26RoundRect,0.250000X-0.250000X-0.475000X0.250000X-0.475000X0.250000X0.475000X-0.250000X0.475000X0*%
%ADD27RoundRect,0.250000X0.475000X-0.250000X0.475000X0.250000X-0.475000X0.250000X-0.475000X-0.250000X0*%
%ADD28RoundRect,0.250000X-0.475000X0.250000X-0.475000X-0.250000X0.475000X-0.250000X0.475000X0.250000X0*%
%ADD29RoundRect,0.250000X0.425000X-0.450000X0.425000X0.450000X-0.425000X0.450000X-0.425000X-0.450000X0*%
%ADD30RoundRect,0.225000X0.225000X0.375000X-0.225000X0.375000X-0.225000X-0.375000X0.225000X-0.375000X0*%
%ADD31RoundRect,0.250000X0.250000X0.475000X-0.250000X0.475000X-0.250000X-0.475000X0.250000X-0.475000X0*%
G04 APERTURE END LIST*
D10*
%TO.C,J11*%
X87630000Y-49530000D03*
D11*
X85090000Y-49530000D03*
%TD*%
D10*
%TO.C,J10*%
X92710000Y-57150000D03*
D11*
X95250000Y-57150000D03*
%TD*%
D12*
%TO.C,A1*%
X1905000Y-38735000D03*
X4445000Y-38735000D03*
D13*
X6985000Y-38735000D03*
D12*
X9525000Y-38735000D03*
X12065000Y-38735000D03*
X14605000Y-38735000D03*
X17145000Y-38735000D03*
D13*
X19685000Y-38735000D03*
D12*
X22225000Y-38735000D03*
X24765000Y-38735000D03*
X27305000Y-38735000D03*
X29845000Y-38735000D03*
D13*
X32385000Y-38735000D03*
D12*
X34925000Y-38735000D03*
X37465000Y-38735000D03*
X40005000Y-38693119D03*
X42545000Y-38735000D03*
D13*
X45085000Y-38735000D03*
D12*
X47625000Y-38735000D03*
X50165000Y-38735000D03*
X50165000Y-20955000D03*
X47625000Y-20955000D03*
D13*
X45085000Y-20955000D03*
D12*
X42545000Y-20955000D03*
X40005000Y-20955000D03*
X37465000Y-20955000D03*
X34925000Y-20955000D03*
D13*
X32385000Y-20955000D03*
D12*
X29845000Y-20955000D03*
X27305000Y-20955000D03*
X24765000Y-20955000D03*
X22225000Y-20955000D03*
D13*
X19685000Y-20955000D03*
D12*
X17145000Y-20955000D03*
X14605000Y-20955000D03*
X12065000Y-20955000D03*
X9525000Y-20955000D03*
D13*
X6985000Y-20955000D03*
D12*
X4445000Y-20955000D03*
X1905000Y-20955000D03*
%TD*%
D10*
%TO.C,J1*%
X67310000Y-5080000D03*
D11*
X69850000Y-5080000D03*
X72390000Y-5080000D03*
X74930000Y-5080000D03*
X77470000Y-5080000D03*
X80010000Y-5080000D03*
%TD*%
D10*
%TO.C,J2*%
X1905000Y-46355000D03*
D11*
X4445000Y-46355000D03*
X6985000Y-46355000D03*
X9525000Y-46355000D03*
%TD*%
D14*
%TO.C,J7*%
X57280000Y-63875000D03*
D15*
X57280000Y-68955000D03*
%TD*%
D16*
%TO.C,H4*%
X93980000Y-68580000D03*
%TD*%
%TO.C,H2*%
X93980000Y-5080000D03*
%TD*%
D17*
%TO.C,SP1*%
X78730000Y-65145000D03*
D18*
X71130000Y-65145000D03*
%TD*%
D10*
%TO.C,J9*%
X95250000Y-27940000D03*
D11*
X92710000Y-27940000D03*
%TD*%
D10*
%TO.C,J8*%
X72390000Y-10160000D03*
D11*
X74930000Y-10160000D03*
X72390000Y-12700000D03*
X74930000Y-12700000D03*
%TD*%
D19*
%TO.C,J3*%
X20320000Y-50800000D03*
D20*
X20320000Y-48260000D03*
X22860000Y-50800000D03*
X22860000Y-48260000D03*
X25400000Y-50800000D03*
X25400000Y-48260000D03*
X27940000Y-50800000D03*
X27940000Y-48260000D03*
X30480000Y-50800000D03*
X30480000Y-48260000D03*
X33020000Y-50800000D03*
X33020000Y-48260000D03*
X35560000Y-50800000D03*
X35560000Y-48260000D03*
X38100000Y-50800000D03*
X38100000Y-48260000D03*
%TD*%
D10*
%TO.C,J5*%
X44450000Y-5080000D03*
D11*
X46990000Y-5080000D03*
X49530000Y-5080000D03*
X52070000Y-5080000D03*
%TD*%
D16*
%TO.C,H3*%
X5080000Y-68580000D03*
%TD*%
%TO.C,H1*%
X5080000Y-5080000D03*
%TD*%
D21*
%TO.C,J4*%
X23705000Y-69440000D03*
D22*
X23705000Y-65480000D03*
X23705000Y-61520000D03*
X23705000Y-57560000D03*
%TD*%
D23*
%TO.C,CON1*%
X11715000Y-56192500D03*
D24*
X5715000Y-56192500D03*
D25*
X8715000Y-60892500D03*
%TD*%
D19*
%TO.C,J6*%
X56645000Y-50800000D03*
D20*
X56645000Y-48260000D03*
X59185000Y-50800000D03*
X59185000Y-48260000D03*
X61725000Y-50800000D03*
X61725000Y-48260000D03*
X64265000Y-50800000D03*
X64265000Y-48260000D03*
X66805000Y-50800000D03*
X66805000Y-48260000D03*
X69345000Y-50800000D03*
X69345000Y-48260000D03*
X71885000Y-50800000D03*
X71885000Y-48260000D03*
X74425000Y-50800000D03*
X74425000Y-48260000D03*
%TD*%
D26*
%TO.C,C13*%
X73348000Y-27807000D03*
X75248000Y-27807000D03*
%TD*%
D27*
%TO.C,C6*%
X81156000Y-34665000D03*
X81156000Y-32765000D03*
%TD*%
D28*
%TO.C,C12*%
X72266000Y-34096000D03*
X72266000Y-35996000D03*
%TD*%
D27*
%TO.C,C15*%
X72012000Y-40060000D03*
X72012000Y-38160000D03*
%TD*%
%TO.C,C11*%
X79124000Y-34660000D03*
X79124000Y-32760000D03*
%TD*%
D26*
%TO.C,C8*%
X73348000Y-29839000D03*
X75248000Y-29839000D03*
%TD*%
D27*
%TO.C,C9*%
X76203000Y-42158000D03*
X76203000Y-40258000D03*
%TD*%
D29*
%TO.C,C3*%
X87760000Y-34872000D03*
X87760000Y-32172000D03*
%TD*%
D28*
%TO.C,C1*%
X33020000Y-7686000D03*
X33020000Y-9586000D03*
%TD*%
D27*
%TO.C,C10*%
X74171000Y-42158000D03*
X74171000Y-40258000D03*
%TD*%
D26*
%TO.C,C2*%
X63315000Y-31744000D03*
X65215000Y-31744000D03*
%TD*%
D29*
%TO.C,C5*%
X85220000Y-34872000D03*
X85220000Y-32172000D03*
%TD*%
D28*
%TO.C,C17*%
X82426000Y-38414000D03*
X82426000Y-40314000D03*
%TD*%
D30*
%TO.C,D4*%
X70487000Y-32760000D03*
X67187000Y-32760000D03*
%TD*%
D27*
%TO.C,C14*%
X69980000Y-40060000D03*
X69980000Y-38160000D03*
%TD*%
D31*
%TO.C,C7*%
X81979000Y-19552000D03*
X80079000Y-19552000D03*
%TD*%
D27*
%TO.C,C4*%
X83188000Y-34660000D03*
X83188000Y-32760000D03*
%TD*%
D28*
%TO.C,C16*%
X80267000Y-38348000D03*
X80267000Y-40248000D03*
%TD*%
M02*
