%TF.GenerationSoftware,KiCad,Pcbnew,7.0.11-7.0.11~ubuntu20.04.1*%
%TF.CreationDate,2024-03-20T21:38:14+00:00*%
%TF.ProjectId,MDFPGA,4d444650-4741-42e6-9b69-6361645f7063,rev?*%
%TF.SameCoordinates,Original*%
%TF.FileFunction,Copper,L2,Inr*%
%TF.FilePolarity,Positive*%
%FSLAX46Y46*%
G04 Gerber Fmt 4.6, Leading zero omitted, Abs format (unit mm)*
G04 Created by KiCad (PCBNEW 7.0.11-7.0.11~ubuntu20.04.1) date 2024-03-20 21:38:14*
%MOMM*%
%LPD*%
G01*
G04 APERTURE LIST*
G04 Aperture macros list*
%AMRoundRect*
0 Rectangle with rounded corners*
0 $1 Rounding radius*
0 $2 $3 $4 $5 $6 $7 $8 $9 X,Y pos of 4 corners*
0 Add a 4 corners polygon primitive as box body*
4,1,4,$2,$3,$4,$5,$6,$7,$8,$9,$2,$3,0*
0 Add four circle primitives for the rounded corners*
1,1,$1+$1,$2,$3*
1,1,$1+$1,$4,$5*
1,1,$1+$1,$6,$7*
1,1,$1+$1,$8,$9*
0 Add four rect primitives between the rounded corners*
20,1,$1+$1,$2,$3,$4,$5,0*
20,1,$1+$1,$4,$5,$6,$7,0*
20,1,$1+$1,$6,$7,$8,$9,0*
20,1,$1+$1,$8,$9,$2,$3,0*%
G04 Aperture macros list end*
%TA.AperFunction,ComponentPad*%
%ADD10R,1.700000X1.700000*%
%TD*%
%TA.AperFunction,ComponentPad*%
%ADD11O,1.700000X1.700000*%
%TD*%
%TA.AperFunction,ComponentPad*%
%ADD12C,1.600000*%
%TD*%
%TA.AperFunction,ComponentPad*%
%ADD13RoundRect,0.200000X0.600000X-0.600000X0.600000X0.600000X-0.600000X0.600000X-0.600000X-0.600000X0*%
%TD*%
%TA.AperFunction,ComponentPad*%
%ADD14R,3.000000X3.000000*%
%TD*%
%TA.AperFunction,ComponentPad*%
%ADD15C,3.000000*%
%TD*%
%TA.AperFunction,ComponentPad*%
%ADD16R,2.000000X2.000000*%
%TD*%
%TA.AperFunction,ComponentPad*%
%ADD17C,2.000000*%
%TD*%
%TA.AperFunction,ComponentPad*%
%ADD18RoundRect,0.250000X0.600000X-0.600000X0.600000X0.600000X-0.600000X0.600000X-0.600000X-0.600000X0*%
%TD*%
%TA.AperFunction,ComponentPad*%
%ADD19C,1.700000*%
%TD*%
%TA.AperFunction,ComponentPad*%
%ADD20RoundRect,0.250001X1.099999X-1.099999X1.099999X1.099999X-1.099999X1.099999X-1.099999X-1.099999X0*%
%TD*%
%TA.AperFunction,ComponentPad*%
%ADD21C,2.700000*%
%TD*%
%TA.AperFunction,ComponentPad*%
%ADD22R,3.500000X3.500000*%
%TD*%
%TA.AperFunction,ComponentPad*%
%ADD23RoundRect,0.750000X-0.750000X-1.000000X0.750000X-1.000000X0.750000X1.000000X-0.750000X1.000000X0*%
%TD*%
%TA.AperFunction,ComponentPad*%
%ADD24RoundRect,0.875000X-0.875000X-0.875000X0.875000X-0.875000X0.875000X0.875000X-0.875000X0.875000X0*%
%TD*%
%TA.AperFunction,ViaPad*%
%ADD25C,0.635000*%
%TD*%
%TA.AperFunction,ViaPad*%
%ADD26C,0.508000*%
%TD*%
G04 APERTURE END LIST*
D10*
%TO.N,Net-(D3-K)*%
%TO.C,J11*%
X87630000Y-49530000D03*
D11*
%TO.N,/FPGA/CDONE*%
X85090000Y-49530000D03*
%TD*%
D10*
%TO.N,/FPGA/~{CRESET_B}*%
%TO.C,J10*%
X92710000Y-57150000D03*
D11*
%TO.N,GND*%
X95250000Y-57150000D03*
%TD*%
D12*
%TO.N,/UART0_TX*%
%TO.C,A1*%
X1905000Y-38735000D03*
%TO.N,/UART0_RX*%
X4445000Y-38735000D03*
D13*
%TO.N,GND*%
X6985000Y-38735000D03*
D12*
%TO.N,/RED1*%
X9525000Y-38735000D03*
%TO.N,/GREEN1*%
X12065000Y-38735000D03*
%TO.N,/BLUE1*%
X14605000Y-38735000D03*
%TO.N,/RED2*%
X17145000Y-38735000D03*
D13*
%TO.N,GND*%
X19685000Y-38735000D03*
D12*
%TO.N,/GREEN2*%
X22225000Y-38735000D03*
%TO.N,/BLUE2*%
X24765000Y-38735000D03*
%TO.N,/ADDRA*%
X27305000Y-38735000D03*
%TO.N,/ADDRB*%
X29845000Y-38735000D03*
D13*
%TO.N,GND*%
X32385000Y-38735000D03*
D12*
%TO.N,/ADDRC*%
X34925000Y-38735000D03*
%TO.N,/ADDRD*%
X37465000Y-38735000D03*
%TO.N,unconnected-(A1-GP12-Pad16)*%
X40005000Y-38693119D03*
%TO.N,/CLK*%
X42545000Y-38735000D03*
D13*
%TO.N,GND*%
X45085000Y-38735000D03*
D12*
%TO.N,/LATCH*%
X47625000Y-38735000D03*
%TO.N,/OE*%
X50165000Y-38735000D03*
%TO.N,CTRL_MISO*%
X50165000Y-20955000D03*
%TO.N,~{CTRL_SS}*%
X47625000Y-20955000D03*
D13*
%TO.N,GND*%
X45085000Y-20955000D03*
D12*
%TO.N,CTRL_CLK*%
X42545000Y-20955000D03*
%TO.N,CTRL_MOSI*%
X40005000Y-20955000D03*
%TO.N,/SDA*%
X37465000Y-20955000D03*
%TO.N,/SCL*%
X34925000Y-20955000D03*
D13*
%TO.N,GND*%
X32385000Y-20955000D03*
D12*
%TO.N,/RTCSQWAVE*%
X29845000Y-20955000D03*
%TO.N,unconnected-(A1-RUN-Pad30)*%
X27305000Y-20955000D03*
%TO.N,~{CTRL_RESET}*%
X24765000Y-20955000D03*
%TO.N,/BUZZER*%
X22225000Y-20955000D03*
D13*
%TO.N,GND*%
X19685000Y-20955000D03*
D12*
%TO.N,unconnected-(A1-GP28-Pad34)*%
X17145000Y-20955000D03*
%TO.N,unconnected-(A1-ADC_VREF-Pad35)*%
X14605000Y-20955000D03*
%TO.N,+3V3*%
X12065000Y-20955000D03*
%TO.N,unconnected-(A1-3V3_EN-Pad37)*%
X9525000Y-20955000D03*
D13*
%TO.N,GND*%
X6985000Y-20955000D03*
D12*
%TO.N,unconnected-(A1-VSYS-Pad39)*%
X4445000Y-20955000D03*
%TO.N,+5V*%
X1905000Y-20955000D03*
%TD*%
D10*
%TO.N,+3V3*%
%TO.C,J1*%
X67310000Y-5080000D03*
D11*
%TO.N,/FPGA/FLASH_MOSI*%
X69850000Y-5080000D03*
%TO.N,/FPGA/FLASH_MISO*%
X72390000Y-5080000D03*
%TO.N,/FPGA/ICE_SCK*%
X74930000Y-5080000D03*
%TO.N,/FPGA/ICE_SS*%
X77470000Y-5080000D03*
%TO.N,GND*%
X80010000Y-5080000D03*
%TD*%
D10*
%TO.N,+3V3*%
%TO.C,J2*%
X1905000Y-46355000D03*
D11*
%TO.N,/UART0_TX*%
X4445000Y-46355000D03*
%TO.N,/UART0_RX*%
X6985000Y-46355000D03*
%TO.N,GND*%
X9525000Y-46355000D03*
%TD*%
D14*
%TO.N,+5V*%
%TO.C,J7*%
X57280000Y-63875000D03*
D15*
%TO.N,GND*%
X57280000Y-68955000D03*
%TD*%
D16*
%TO.N,Net-(R6-Pad2)*%
%TO.C,SP1*%
X78730000Y-65145000D03*
D17*
%TO.N,/BUZZER*%
X71130000Y-65145000D03*
%TD*%
D10*
%TO.N,/FPGA/ICE_SS*%
%TO.C,J9*%
X95250000Y-27940000D03*
D11*
%TO.N,Net-(J9-Pin_2)*%
X92710000Y-27940000D03*
%TD*%
D10*
%TO.N,/FPGA/FLASH_MOSI*%
%TO.C,J8*%
X72390000Y-10160000D03*
D11*
%TO.N,/FPGA/ICE_MISO*%
X74930000Y-10160000D03*
%TO.N,/FPGA/ICE_MOSI*%
X72390000Y-12700000D03*
%TO.N,/FPGA/FLASH_MISO*%
X74930000Y-12700000D03*
%TD*%
D18*
%TO.N,/RED1*%
%TO.C,J3*%
X20320000Y-50800000D03*
D19*
%TO.N,/GREEN1*%
X20320000Y-48260000D03*
%TO.N,/BLUE1*%
X22860000Y-50800000D03*
%TO.N,GND*%
X22860000Y-48260000D03*
%TO.N,/RED2*%
X25400000Y-50800000D03*
%TO.N,/GREEN2*%
X25400000Y-48260000D03*
%TO.N,/BLUE2*%
X27940000Y-50800000D03*
%TO.N,GND*%
X27940000Y-48260000D03*
%TO.N,/ADDRA*%
X30480000Y-50800000D03*
%TO.N,/ADDRB*%
X30480000Y-48260000D03*
%TO.N,/ADDRC*%
X33020000Y-50800000D03*
%TO.N,/ADDRD*%
X33020000Y-48260000D03*
%TO.N,/CLK*%
X35560000Y-50800000D03*
%TO.N,/LATCH*%
X35560000Y-48260000D03*
%TO.N,/OE*%
X38100000Y-50800000D03*
%TO.N,GND*%
X38100000Y-48260000D03*
%TD*%
D10*
%TO.N,+3V3*%
%TO.C,J5*%
X44450000Y-5080000D03*
D11*
%TO.N,/SCL*%
X46990000Y-5080000D03*
%TO.N,/SDA*%
X49530000Y-5080000D03*
%TO.N,GND*%
X52070000Y-5080000D03*
%TD*%
D20*
%TO.N,+5V*%
%TO.C,J4*%
X23705000Y-69440000D03*
D21*
X23705000Y-65480000D03*
%TO.N,GND*%
X23705000Y-61520000D03*
X23705000Y-57560000D03*
%TD*%
D22*
%TO.N,+5V*%
%TO.C,CON1*%
X11715000Y-56192500D03*
D23*
%TO.N,GND*%
X5715000Y-56192500D03*
D24*
X8715000Y-60892500D03*
%TD*%
D18*
%TO.N,/FPGA/RED1*%
%TO.C,J6*%
X56645000Y-50800000D03*
D19*
%TO.N,/FPGA/GREEN1*%
X56645000Y-48260000D03*
%TO.N,/FPGA/BLUE1*%
X59185000Y-50800000D03*
%TO.N,GND*%
X59185000Y-48260000D03*
%TO.N,/FPGA/RED2*%
X61725000Y-50800000D03*
%TO.N,/FPGA/GREEN2*%
X61725000Y-48260000D03*
%TO.N,/FPGA/BLUE2*%
X64265000Y-50800000D03*
%TO.N,GND*%
X64265000Y-48260000D03*
%TO.N,/FPGA/ADDRA*%
X66805000Y-50800000D03*
%TO.N,/FPGA/ADDRB*%
X66805000Y-48260000D03*
%TO.N,/FPGA/ADDRC*%
X69345000Y-50800000D03*
%TO.N,/FPGA/ADDRD*%
X69345000Y-48260000D03*
%TO.N,/FPGA/CLK*%
X71885000Y-50800000D03*
%TO.N,/FPGA/LATCH*%
X71885000Y-48260000D03*
%TO.N,/FPGA/OE*%
X74425000Y-50800000D03*
%TO.N,GND*%
X74425000Y-48260000D03*
%TD*%
D25*
%TO.N,GND*%
X35560000Y-8001000D03*
X76965000Y-38475000D03*
X85220000Y-27807000D03*
X82680000Y-29077000D03*
X20320000Y-14605000D03*
X75695000Y-38475000D03*
X74425000Y-38475000D03*
X80140000Y-29077000D03*
X76965000Y-35935000D03*
X35560000Y-13081000D03*
X52578000Y-18161000D03*
X81410000Y-27807000D03*
X74425000Y-35935000D03*
X86490000Y-29077000D03*
X63757000Y-33098000D03*
X78870000Y-27807000D03*
X30480000Y-9271000D03*
X30480000Y-13081000D03*
X81410000Y-29077000D03*
X77092000Y-24886000D03*
X77600000Y-29077000D03*
X78870000Y-29077000D03*
X87760000Y-27807000D03*
X83950000Y-29077000D03*
X75568000Y-30982000D03*
X92710000Y-44828000D03*
X85220000Y-29077000D03*
X80140000Y-27807000D03*
X86490000Y-27807000D03*
X87760000Y-29077000D03*
X88635000Y-65145000D03*
X82680000Y-27807000D03*
X77600000Y-27807000D03*
X83950000Y-27807000D03*
X83592500Y-57525000D03*
X75695000Y-35935000D03*
%TO.N,+3V3*%
X90046000Y-35300000D03*
X62360000Y-31744000D03*
X68710000Y-40380000D03*
X89030000Y-35300000D03*
X88268000Y-36062000D03*
X67186000Y-33903000D03*
X70869000Y-30220000D03*
X96520000Y-53437500D03*
X68202000Y-31871000D03*
X90681000Y-18028000D03*
X30226000Y-5461000D03*
X67821000Y-30220000D03*
X70869000Y-27807000D03*
X61595000Y-2280000D03*
X90046000Y-36316000D03*
X69345000Y-27807000D03*
X67821000Y-27807000D03*
X89030000Y-36316000D03*
X87122000Y-42545000D03*
X83696000Y-19552000D03*
X73409000Y-30728000D03*
X66805000Y-39618000D03*
X88141000Y-18004500D03*
X61595000Y-4820000D03*
X87125000Y-36062000D03*
X83592500Y-54350000D03*
X69345000Y-30220000D03*
D26*
%TO.N,CTRL_MOSI*%
X89281000Y-39497000D03*
%TO.N,CTRL_MISO*%
X88011000Y-38481000D03*
%TO.N,CTRL_CLK*%
X88646000Y-38989000D03*
D25*
%TO.N,+1V2*%
X84204000Y-34284000D03*
X83947000Y-35433000D03*
X66678000Y-42412000D03*
X81156000Y-38602000D03*
X86106000Y-37338000D03*
X69974500Y-37020000D03*
D26*
%TO.N,/FPGA/VPP_2V5*%
X71377000Y-33014000D03*
%TO.N,/FPGA/FLASH_MOSI*%
X85598000Y-24384000D03*
%TO.N,/FPGA/CLK*%
X68710000Y-46736000D03*
%TO.N,~{CTRL_RESET}*%
X89916000Y-40005000D03*
%TO.N,/FPGA/ICE_SS*%
X81029000Y-25013000D03*
%TO.N,Net-(J9-Pin_2)*%
X79886000Y-21076000D03*
%TD*%
%TA.AperFunction,Conductor*%
%TO.N,+3V3*%
G36*
X91913763Y-654685D02*
G01*
X91959518Y-707489D01*
X91969462Y-776647D01*
X91940437Y-840203D01*
X91896810Y-872433D01*
X91893709Y-873803D01*
X91887038Y-876748D01*
X91887021Y-876757D01*
X91508140Y-1087792D01*
X91508133Y-1087796D01*
X91150320Y-1332904D01*
X91150310Y-1332911D01*
X90816666Y-1609966D01*
X90816646Y-1609984D01*
X90509984Y-1916646D01*
X90509966Y-1916666D01*
X90232911Y-2250310D01*
X90232904Y-2250320D01*
X89987796Y-2608133D01*
X89987792Y-2608140D01*
X89776757Y-2987021D01*
X89776743Y-2987049D01*
X89601572Y-3383770D01*
X89601571Y-3383774D01*
X89463737Y-3795015D01*
X89364441Y-4217196D01*
X89364440Y-4217201D01*
X89311695Y-4595320D01*
X89304520Y-4646753D01*
X89284490Y-5080000D01*
X89304520Y-5513247D01*
X89304520Y-5513253D01*
X89304521Y-5513255D01*
X89364440Y-5942798D01*
X89364441Y-5942803D01*
X89463737Y-6364984D01*
X89601571Y-6776225D01*
X89601572Y-6776229D01*
X89776743Y-7172950D01*
X89776748Y-7172960D01*
X89776752Y-7172969D01*
X89776756Y-7172977D01*
X89776757Y-7172978D01*
X89987792Y-7551859D01*
X89987796Y-7551866D01*
X89987797Y-7551867D01*
X90232902Y-7909677D01*
X90232904Y-7909679D01*
X90232911Y-7909689D01*
X90460841Y-8184174D01*
X90509976Y-8243345D01*
X90816655Y-8550024D01*
X90816666Y-8550033D01*
X91150310Y-8827088D01*
X91150316Y-8827092D01*
X91150323Y-8827098D01*
X91508133Y-9072203D01*
X91887031Y-9283248D01*
X91887048Y-9283255D01*
X91887049Y-9283256D01*
X92283770Y-9458427D01*
X92283774Y-9458428D01*
X92283776Y-9458428D01*
X92283786Y-9458433D01*
X92695013Y-9596262D01*
X93117202Y-9695560D01*
X93546753Y-9755480D01*
X93871634Y-9770500D01*
X93871637Y-9770500D01*
X94088363Y-9770500D01*
X94088366Y-9770500D01*
X94413247Y-9755480D01*
X94842798Y-9695560D01*
X95264987Y-9596262D01*
X95676214Y-9458433D01*
X95676225Y-9458427D01*
X95676229Y-9458427D01*
X95920397Y-9350615D01*
X96072969Y-9283248D01*
X96451867Y-9072203D01*
X96809677Y-8827098D01*
X97143345Y-8550024D01*
X97450024Y-8243345D01*
X97727098Y-7909677D01*
X97972203Y-7551867D01*
X98183248Y-7172969D01*
X98250615Y-7020397D01*
X98358427Y-6776229D01*
X98358428Y-6776225D01*
X98358433Y-6776214D01*
X98496262Y-6364987D01*
X98595560Y-5942798D01*
X98655480Y-5513247D01*
X98675510Y-5080000D01*
X98655480Y-4646753D01*
X98595560Y-4217202D01*
X98496262Y-3795013D01*
X98358433Y-3383786D01*
X98358428Y-3383774D01*
X98358427Y-3383770D01*
X98183256Y-2987049D01*
X98183254Y-2987044D01*
X98183248Y-2987031D01*
X97972203Y-2608133D01*
X97727098Y-2250323D01*
X97727092Y-2250316D01*
X97727088Y-2250310D01*
X97450033Y-1916666D01*
X97450024Y-1916655D01*
X97143345Y-1609976D01*
X97097216Y-1571671D01*
X96809689Y-1332911D01*
X96809679Y-1332904D01*
X96809677Y-1332902D01*
X96571137Y-1169498D01*
X96451866Y-1087796D01*
X96451859Y-1087792D01*
X96072978Y-876757D01*
X96072961Y-876748D01*
X96067827Y-874481D01*
X96063189Y-872434D01*
X96009814Y-827349D01*
X95989286Y-760563D01*
X96008124Y-693281D01*
X96060346Y-646864D01*
X96113276Y-635000D01*
X96400834Y-635000D01*
X96464307Y-652476D01*
X96641548Y-758090D01*
X96644666Y-760012D01*
X96770540Y-840203D01*
X96817116Y-869875D01*
X96822545Y-873538D01*
X96998570Y-999218D01*
X97002002Y-1001759D01*
X97164219Y-1126232D01*
X97168874Y-1129985D01*
X97333920Y-1269771D01*
X97337552Y-1272972D01*
X97488327Y-1411132D01*
X97492235Y-1414873D01*
X97645125Y-1567763D01*
X97648866Y-1571671D01*
X97787026Y-1722446D01*
X97790227Y-1726078D01*
X97930013Y-1891124D01*
X97933766Y-1895779D01*
X98058239Y-2057996D01*
X98060780Y-2061428D01*
X98186460Y-2237453D01*
X98190123Y-2242882D01*
X98299974Y-2415313D01*
X98301917Y-2418465D01*
X98412650Y-2604300D01*
X98416116Y-2610516D01*
X98510534Y-2791889D01*
X98511946Y-2794686D01*
X98606942Y-2989004D01*
X98610102Y-2996011D01*
X98688351Y-3184920D01*
X98689307Y-3187298D01*
X98741305Y-3320556D01*
X98765977Y-3383786D01*
X98767949Y-3388838D01*
X98770693Y-3396627D01*
X98832163Y-3591591D01*
X98832747Y-3593495D01*
X98894494Y-3800898D01*
X98896710Y-3809441D01*
X98940949Y-4008987D01*
X98941249Y-4010380D01*
X98985675Y-4222260D01*
X98987253Y-4231521D01*
X99013887Y-4433829D01*
X99013996Y-4434676D01*
X99040818Y-4649849D01*
X99041652Y-4659778D01*
X99050512Y-4862701D01*
X99050524Y-4862986D01*
X99059394Y-5077438D01*
X99059500Y-5082562D01*
X99059500Y-68577437D01*
X99059394Y-68582561D01*
X99050524Y-68797013D01*
X99050512Y-68797298D01*
X99041652Y-69000220D01*
X99040818Y-69010149D01*
X99013996Y-69225322D01*
X99013887Y-69226169D01*
X98987253Y-69428477D01*
X98985675Y-69437738D01*
X98941249Y-69649618D01*
X98940949Y-69651011D01*
X98896710Y-69850557D01*
X98894494Y-69859100D01*
X98832747Y-70066503D01*
X98832163Y-70068407D01*
X98770693Y-70263371D01*
X98767949Y-70271160D01*
X98689307Y-70472700D01*
X98688351Y-70475078D01*
X98610102Y-70663987D01*
X98606942Y-70670994D01*
X98511946Y-70865312D01*
X98510534Y-70868109D01*
X98416116Y-71049482D01*
X98412650Y-71055698D01*
X98301917Y-71241533D01*
X98299974Y-71244685D01*
X98190123Y-71417116D01*
X98186460Y-71422545D01*
X98060780Y-71598570D01*
X98058239Y-71602002D01*
X97933766Y-71764219D01*
X97930013Y-71768874D01*
X97790227Y-71933920D01*
X97787026Y-71937552D01*
X97648866Y-72088327D01*
X97645125Y-72092235D01*
X97492235Y-72245125D01*
X97488327Y-72248866D01*
X97337552Y-72387026D01*
X97333920Y-72390227D01*
X97168874Y-72530013D01*
X97164219Y-72533766D01*
X97002002Y-72658239D01*
X96998570Y-72660780D01*
X96822545Y-72786460D01*
X96817116Y-72790123D01*
X96644685Y-72899974D01*
X96641534Y-72901916D01*
X96464306Y-73007522D01*
X96400832Y-73025000D01*
X96113276Y-73025000D01*
X96046237Y-73005315D01*
X96000482Y-72952511D01*
X95990538Y-72883353D01*
X96019563Y-72819797D01*
X96063189Y-72787566D01*
X96072969Y-72783248D01*
X96451867Y-72572203D01*
X96809677Y-72327098D01*
X97143345Y-72050024D01*
X97450024Y-71743345D01*
X97727098Y-71409677D01*
X97972203Y-71051867D01*
X98183248Y-70672969D01*
X98272546Y-70470729D01*
X98358427Y-70276229D01*
X98358428Y-70276225D01*
X98358433Y-70276214D01*
X98496262Y-69864987D01*
X98595560Y-69442798D01*
X98655480Y-69013247D01*
X98675510Y-68580000D01*
X98655480Y-68146753D01*
X98595560Y-67717202D01*
X98496262Y-67295013D01*
X98358433Y-66883786D01*
X98358428Y-66883774D01*
X98358427Y-66883770D01*
X98183256Y-66487049D01*
X98183254Y-66487044D01*
X98183248Y-66487031D01*
X97972203Y-66108133D01*
X97727098Y-65750323D01*
X97727092Y-65750316D01*
X97727088Y-65750310D01*
X97468728Y-65439180D01*
X97450024Y-65416655D01*
X97143345Y-65109976D01*
X97143333Y-65109966D01*
X96809689Y-64832911D01*
X96809679Y-64832904D01*
X96809677Y-64832902D01*
X96547169Y-64653080D01*
X96451866Y-64587796D01*
X96451859Y-64587792D01*
X96072978Y-64376757D01*
X96072977Y-64376756D01*
X96072969Y-64376752D01*
X96072960Y-64376748D01*
X96072950Y-64376743D01*
X95676229Y-64201572D01*
X95676225Y-64201571D01*
X95676216Y-64201568D01*
X95676214Y-64201567D01*
X95264987Y-64063738D01*
X95264986Y-64063737D01*
X95264984Y-64063737D01*
X94842803Y-63964441D01*
X94842798Y-63964440D01*
X94413255Y-63904521D01*
X94413253Y-63904520D01*
X94413247Y-63904520D01*
X94088366Y-63889500D01*
X93871634Y-63889500D01*
X93546753Y-63904520D01*
X93546746Y-63904520D01*
X93546744Y-63904521D01*
X93117201Y-63964440D01*
X93117196Y-63964441D01*
X92695015Y-64063737D01*
X92283774Y-64201571D01*
X92283770Y-64201572D01*
X91887049Y-64376743D01*
X91887021Y-64376757D01*
X91508140Y-64587792D01*
X91508133Y-64587796D01*
X91150320Y-64832904D01*
X91150310Y-64832911D01*
X90816666Y-65109966D01*
X90816646Y-65109984D01*
X90509984Y-65416646D01*
X90509966Y-65416666D01*
X90232911Y-65750310D01*
X90232904Y-65750320D01*
X89987796Y-66108133D01*
X89987792Y-66108140D01*
X89776757Y-66487021D01*
X89776743Y-66487049D01*
X89601572Y-66883770D01*
X89601571Y-66883774D01*
X89463737Y-67295015D01*
X89366038Y-67710408D01*
X89364440Y-67717202D01*
X89304520Y-68146753D01*
X89284490Y-68580000D01*
X89304520Y-69013247D01*
X89304520Y-69013253D01*
X89304521Y-69013255D01*
X89364440Y-69442798D01*
X89364441Y-69442803D01*
X89445668Y-69788161D01*
X89463738Y-69864987D01*
X89598946Y-70268395D01*
X89601571Y-70276225D01*
X89601572Y-70276229D01*
X89776743Y-70672950D01*
X89776748Y-70672960D01*
X89776752Y-70672969D01*
X89776756Y-70672977D01*
X89776757Y-70672978D01*
X89987792Y-71051859D01*
X89987796Y-71051866D01*
X90068440Y-71169591D01*
X90232902Y-71409677D01*
X90232904Y-71409679D01*
X90232911Y-71409689D01*
X90392606Y-71602002D01*
X90509976Y-71743345D01*
X90816655Y-72050024D01*
X90816666Y-72050033D01*
X91150310Y-72327088D01*
X91150316Y-72327092D01*
X91150323Y-72327098D01*
X91508133Y-72572203D01*
X91887031Y-72783248D01*
X91896810Y-72787565D01*
X91950186Y-72832651D01*
X91970714Y-72899437D01*
X91951876Y-72966719D01*
X91899654Y-73013136D01*
X91846724Y-73025000D01*
X7213276Y-73025000D01*
X7146237Y-73005315D01*
X7100482Y-72952511D01*
X7090538Y-72883353D01*
X7119563Y-72819797D01*
X7163189Y-72787566D01*
X7172969Y-72783248D01*
X7551867Y-72572203D01*
X7909677Y-72327098D01*
X8243345Y-72050024D01*
X8550024Y-71743345D01*
X8827098Y-71409677D01*
X9072203Y-71051867D01*
X9283248Y-70672969D01*
X9372546Y-70470729D01*
X9458427Y-70276229D01*
X9458428Y-70276225D01*
X9458433Y-70276214D01*
X9596262Y-69864987D01*
X9695560Y-69442798D01*
X9755480Y-69013247D01*
X9775510Y-68580000D01*
X9755480Y-68146753D01*
X9695560Y-67717202D01*
X9596262Y-67295013D01*
X9458433Y-66883786D01*
X9458428Y-66883774D01*
X9458427Y-66883770D01*
X9283256Y-66487049D01*
X9283254Y-66487044D01*
X9283248Y-66487031D01*
X9072203Y-66108133D01*
X8827098Y-65750323D01*
X8827092Y-65750316D01*
X8827088Y-65750310D01*
X8602625Y-65480001D01*
X21714428Y-65480001D01*
X21734689Y-65763293D01*
X21795057Y-66040800D01*
X21795059Y-66040806D01*
X21795060Y-66040809D01*
X21805868Y-66069785D01*
X21894314Y-66306919D01*
X22030420Y-66556178D01*
X22030425Y-66556186D01*
X22200619Y-66783539D01*
X22200635Y-66783557D01*
X22401442Y-66984364D01*
X22401460Y-66984380D01*
X22628813Y-67154574D01*
X22628821Y-67154579D01*
X22751685Y-67221668D01*
X22801090Y-67271073D01*
X22815942Y-67339346D01*
X22791525Y-67404810D01*
X22735592Y-67446682D01*
X22692258Y-67454500D01*
X22543014Y-67454500D01*
X22465718Y-67460583D01*
X22285918Y-67508761D01*
X22120068Y-67593263D01*
X21975408Y-67710408D01*
X21858263Y-67855068D01*
X21773761Y-68020918D01*
X21725583Y-68200718D01*
X21719500Y-68278014D01*
X21719500Y-70601985D01*
X21725583Y-70679281D01*
X21725583Y-70679284D01*
X21725584Y-70679285D01*
X21773761Y-70859082D01*
X21784098Y-70879369D01*
X21858263Y-71024931D01*
X21880069Y-71051859D01*
X21975408Y-71169592D01*
X22064248Y-71241533D01*
X22120068Y-71286736D01*
X22202195Y-71328580D01*
X22285918Y-71371239D01*
X22465715Y-71419416D01*
X22543020Y-71425500D01*
X22543028Y-71425500D01*
X24866972Y-71425500D01*
X24866980Y-71425500D01*
X24944285Y-71419416D01*
X25124082Y-71371239D01*
X25250461Y-71306846D01*
X25289931Y-71286736D01*
X25289932Y-71286734D01*
X25289934Y-71286734D01*
X25434592Y-71169592D01*
X25551734Y-71024934D01*
X25636239Y-70859082D01*
X25684416Y-70679285D01*
X25690500Y-70601980D01*
X25690500Y-68955001D01*
X55274390Y-68955001D01*
X55294804Y-69240433D01*
X55355628Y-69520037D01*
X55455635Y-69788166D01*
X55592770Y-70039309D01*
X55592775Y-70039317D01*
X55764254Y-70268387D01*
X55764270Y-70268405D01*
X55966594Y-70470729D01*
X55966612Y-70470745D01*
X56195682Y-70642224D01*
X56195690Y-70642229D01*
X56446833Y-70779364D01*
X56446832Y-70779364D01*
X56446836Y-70779365D01*
X56446839Y-70779367D01*
X56714954Y-70879369D01*
X56714960Y-70879370D01*
X56714962Y-70879371D01*
X56994566Y-70940195D01*
X56994568Y-70940195D01*
X56994572Y-70940196D01*
X57248220Y-70958337D01*
X57279999Y-70960610D01*
X57280000Y-70960610D01*
X57280001Y-70960610D01*
X57308595Y-70958564D01*
X57565428Y-70940196D01*
X57845046Y-70879369D01*
X58113161Y-70779367D01*
X58364315Y-70642226D01*
X58593395Y-70470739D01*
X58795739Y-70268395D01*
X58967226Y-70039315D01*
X59104367Y-69788161D01*
X59204369Y-69520046D01*
X59265196Y-69240428D01*
X59285610Y-68955000D01*
X59265196Y-68669572D01*
X59245153Y-68577437D01*
X59204371Y-68389962D01*
X59204370Y-68389960D01*
X59204369Y-68389954D01*
X59104367Y-68121839D01*
X58967226Y-67870685D01*
X58967224Y-67870682D01*
X58795745Y-67641612D01*
X58795729Y-67641594D01*
X58593405Y-67439270D01*
X58593387Y-67439254D01*
X58364317Y-67267775D01*
X58364309Y-67267770D01*
X58113166Y-67130635D01*
X58113167Y-67130635D01*
X58005915Y-67090632D01*
X57845046Y-67030631D01*
X57845043Y-67030630D01*
X57845037Y-67030628D01*
X57565433Y-66969804D01*
X57280001Y-66949390D01*
X57279999Y-66949390D01*
X56994566Y-66969804D01*
X56714962Y-67030628D01*
X56446833Y-67130635D01*
X56195690Y-67267770D01*
X56195682Y-67267775D01*
X55966612Y-67439254D01*
X55966594Y-67439270D01*
X55764270Y-67641594D01*
X55764254Y-67641612D01*
X55592775Y-67870682D01*
X55592770Y-67870690D01*
X55455635Y-68121833D01*
X55355628Y-68389962D01*
X55294804Y-68669566D01*
X55274390Y-68954998D01*
X55274390Y-68955001D01*
X25690500Y-68955001D01*
X25690500Y-68278020D01*
X25684416Y-68200715D01*
X25636239Y-68020918D01*
X25593580Y-67937195D01*
X25551736Y-67855068D01*
X25519452Y-67815201D01*
X25434592Y-67710408D01*
X25349614Y-67641594D01*
X25289931Y-67593263D01*
X25166739Y-67530495D01*
X25124082Y-67508761D01*
X24944285Y-67460584D01*
X24944284Y-67460583D01*
X24944281Y-67460583D01*
X24866985Y-67454500D01*
X24866980Y-67454500D01*
X24717742Y-67454500D01*
X24650703Y-67434815D01*
X24604948Y-67382011D01*
X24595004Y-67312853D01*
X24624029Y-67249297D01*
X24658315Y-67221668D01*
X24741544Y-67176220D01*
X24781184Y-67154576D01*
X25008547Y-66984374D01*
X25209374Y-66783547D01*
X25379576Y-66556184D01*
X25515688Y-66306913D01*
X25614940Y-66040809D01*
X25674372Y-65767603D01*
X25675310Y-65763293D01*
X25675310Y-65763292D01*
X25675311Y-65763288D01*
X25695572Y-65480000D01*
X25692652Y-65439168D01*
X55144500Y-65439168D01*
X55144501Y-65439193D01*
X55147335Y-65475204D01*
X55192129Y-65629388D01*
X55192131Y-65629393D01*
X55273863Y-65767595D01*
X55273869Y-65767603D01*
X55387396Y-65881130D01*
X55387400Y-65881133D01*
X55387402Y-65881135D01*
X55525607Y-65962869D01*
X55543874Y-65968176D01*
X55679791Y-66007664D01*
X55679794Y-66007664D01*
X55679796Y-66007665D01*
X55715819Y-66010500D01*
X58844180Y-66010499D01*
X58880204Y-66007665D01*
X59034393Y-65962869D01*
X59172598Y-65881135D01*
X59286135Y-65767598D01*
X59367869Y-65629393D01*
X59412665Y-65475204D01*
X59415500Y-65439181D01*
X59415500Y-65145005D01*
X69624357Y-65145005D01*
X69644890Y-65392812D01*
X69644892Y-65392824D01*
X69705936Y-65633881D01*
X69805826Y-65861606D01*
X69941833Y-66069782D01*
X69941836Y-66069785D01*
X70110256Y-66252738D01*
X70306491Y-66405474D01*
X70525190Y-66523828D01*
X70760386Y-66604571D01*
X71005665Y-66645500D01*
X71254335Y-66645500D01*
X71499614Y-66604571D01*
X71734810Y-66523828D01*
X71953509Y-66405474D01*
X72149744Y-66252738D01*
X72204856Y-66192870D01*
X77229500Y-66192870D01*
X77229501Y-66192876D01*
X77235908Y-66252483D01*
X77286202Y-66387328D01*
X77286206Y-66387335D01*
X77372452Y-66502544D01*
X77372455Y-66502547D01*
X77487664Y-66588793D01*
X77487671Y-66588797D01*
X77622517Y-66639091D01*
X77622516Y-66639091D01*
X77629444Y-66639835D01*
X77682127Y-66645500D01*
X79777872Y-66645499D01*
X79837483Y-66639091D01*
X79972331Y-66588796D01*
X80087546Y-66502546D01*
X80173796Y-66387331D01*
X80224091Y-66252483D01*
X80230500Y-66192873D01*
X80230500Y-65145002D01*
X87811824Y-65145002D01*
X87832461Y-65328171D01*
X87863427Y-65416666D01*
X87893344Y-65502163D01*
X87991415Y-65658242D01*
X88121758Y-65788585D01*
X88277837Y-65886656D01*
X88410059Y-65932922D01*
X88451828Y-65947538D01*
X88634997Y-65968176D01*
X88635000Y-65968176D01*
X88635003Y-65968176D01*
X88818171Y-65947538D01*
X88818174Y-65947537D01*
X88992163Y-65886656D01*
X89148242Y-65788585D01*
X89278585Y-65658242D01*
X89376656Y-65502163D01*
X89437537Y-65328174D01*
X89437537Y-65328173D01*
X89437538Y-65328171D01*
X89458176Y-65145002D01*
X89458176Y-65144997D01*
X89437538Y-64961828D01*
X89414915Y-64897175D01*
X89376656Y-64787837D01*
X89278585Y-64631758D01*
X89148242Y-64501415D01*
X88992165Y-64403345D01*
X88992164Y-64403344D01*
X88992163Y-64403344D01*
X88950396Y-64388729D01*
X88818171Y-64342461D01*
X88635003Y-64321824D01*
X88634997Y-64321824D01*
X88451828Y-64342461D01*
X88277834Y-64403345D01*
X88121757Y-64501415D01*
X87991415Y-64631757D01*
X87893345Y-64787834D01*
X87832461Y-64961828D01*
X87811824Y-65144997D01*
X87811824Y-65145002D01*
X80230500Y-65145002D01*
X80230499Y-64097128D01*
X80224091Y-64037517D01*
X80196835Y-63964441D01*
X80173797Y-63902671D01*
X80173793Y-63902664D01*
X80087547Y-63787455D01*
X80087544Y-63787452D01*
X79972335Y-63701206D01*
X79972328Y-63701202D01*
X79837482Y-63650908D01*
X79837483Y-63650908D01*
X79777883Y-63644501D01*
X79777881Y-63644500D01*
X79777873Y-63644500D01*
X79777864Y-63644500D01*
X77682129Y-63644500D01*
X77682123Y-63644501D01*
X77622516Y-63650908D01*
X77487671Y-63701202D01*
X77487664Y-63701206D01*
X77372455Y-63787452D01*
X77372452Y-63787455D01*
X77286206Y-63902664D01*
X77286202Y-63902671D01*
X77235908Y-64037517D01*
X77229501Y-64097116D01*
X77229501Y-64097123D01*
X77229500Y-64097135D01*
X77229500Y-66192870D01*
X72204856Y-66192870D01*
X72318164Y-66069785D01*
X72454173Y-65861607D01*
X72554063Y-65633881D01*
X72615108Y-65392821D01*
X72635643Y-65145000D01*
X72632741Y-65109984D01*
X72615109Y-64897187D01*
X72615107Y-64897175D01*
X72554063Y-64656118D01*
X72454173Y-64428393D01*
X72318166Y-64220217D01*
X72277868Y-64176442D01*
X72149744Y-64037262D01*
X71953509Y-63884526D01*
X71953507Y-63884525D01*
X71953506Y-63884524D01*
X71734811Y-63766172D01*
X71734802Y-63766169D01*
X71499616Y-63685429D01*
X71254335Y-63644500D01*
X71005665Y-63644500D01*
X70760383Y-63685429D01*
X70525197Y-63766169D01*
X70525188Y-63766172D01*
X70306493Y-63884524D01*
X70110257Y-64037261D01*
X69941833Y-64220217D01*
X69805826Y-64428393D01*
X69705936Y-64656118D01*
X69644892Y-64897175D01*
X69644890Y-64897187D01*
X69624357Y-65144994D01*
X69624357Y-65145005D01*
X59415500Y-65145005D01*
X59415499Y-62310820D01*
X59412665Y-62274796D01*
X59367869Y-62120607D01*
X59286135Y-61982402D01*
X59286133Y-61982400D01*
X59286130Y-61982396D01*
X59172603Y-61868869D01*
X59172595Y-61868863D01*
X59034393Y-61787131D01*
X59034388Y-61787129D01*
X58880208Y-61742335D01*
X58880202Y-61742334D01*
X58844181Y-61739500D01*
X55715831Y-61739500D01*
X55715806Y-61739501D01*
X55679795Y-61742335D01*
X55525611Y-61787129D01*
X55525606Y-61787131D01*
X55387404Y-61868863D01*
X55387396Y-61868869D01*
X55273869Y-61982396D01*
X55273863Y-61982404D01*
X55192131Y-62120606D01*
X55192129Y-62120611D01*
X55147335Y-62274791D01*
X55147334Y-62274797D01*
X55144500Y-62310811D01*
X55144500Y-65439168D01*
X25692652Y-65439168D01*
X25675311Y-65196712D01*
X25664060Y-65144994D01*
X25614942Y-64919199D01*
X25614941Y-64919197D01*
X25614940Y-64919191D01*
X25515688Y-64653087D01*
X25515686Y-64653084D01*
X25515685Y-64653080D01*
X25379579Y-64403821D01*
X25379574Y-64403813D01*
X25209380Y-64176460D01*
X25209364Y-64176442D01*
X25008557Y-63975635D01*
X25008539Y-63975619D01*
X24781186Y-63805425D01*
X24781178Y-63805420D01*
X24531918Y-63669314D01*
X24531919Y-63669314D01*
X24465392Y-63644501D01*
X24265809Y-63570060D01*
X24265802Y-63570058D01*
X24265801Y-63570058D01*
X24183189Y-63552086D01*
X24121866Y-63518600D01*
X24088382Y-63457277D01*
X24093367Y-63387585D01*
X24135238Y-63331652D01*
X24183186Y-63309755D01*
X24227678Y-63300077D01*
X24475689Y-63207574D01*
X24708011Y-63080716D01*
X24919915Y-62922087D01*
X25107087Y-62734915D01*
X25265716Y-62523011D01*
X25392574Y-62290689D01*
X25485077Y-62042678D01*
X25522888Y-61868863D01*
X25541342Y-61784032D01*
X25541342Y-61784030D01*
X25541343Y-61784026D01*
X25560227Y-61520000D01*
X25541343Y-61255974D01*
X25485077Y-60997322D01*
X25392574Y-60749311D01*
X25265716Y-60516989D01*
X25265714Y-60516986D01*
X25107093Y-60305092D01*
X25107077Y-60305074D01*
X24919925Y-60117922D01*
X24919907Y-60117906D01*
X24708013Y-59959285D01*
X24708005Y-59959280D01*
X24475694Y-59832428D01*
X24475690Y-59832426D01*
X24227673Y-59739921D01*
X23969034Y-59683658D01*
X23969027Y-59683657D01*
X23705001Y-59664773D01*
X23704999Y-59664773D01*
X23440972Y-59683657D01*
X23440965Y-59683658D01*
X23182326Y-59739921D01*
X22934309Y-59832426D01*
X22934305Y-59832428D01*
X22701994Y-59959280D01*
X22701986Y-59959285D01*
X22490092Y-60117906D01*
X22490074Y-60117922D01*
X22302922Y-60305074D01*
X22302906Y-60305092D01*
X22144285Y-60516986D01*
X22144280Y-60516994D01*
X22017428Y-60749305D01*
X22017426Y-60749309D01*
X21924921Y-60997326D01*
X21868658Y-61255965D01*
X21868657Y-61255972D01*
X21849773Y-61519998D01*
X21849773Y-61520001D01*
X21868657Y-61784027D01*
X21868658Y-61784032D01*
X21924921Y-62042673D01*
X22017426Y-62290690D01*
X22017428Y-62290694D01*
X22144280Y-62523005D01*
X22144285Y-62523013D01*
X22302906Y-62734907D01*
X22302922Y-62734925D01*
X22490074Y-62922077D01*
X22490092Y-62922093D01*
X22701986Y-63080714D01*
X22701994Y-63080719D01*
X22934305Y-63207571D01*
X22934309Y-63207573D01*
X22934311Y-63207574D01*
X23182322Y-63300077D01*
X23226810Y-63309754D01*
X23288131Y-63343237D01*
X23321617Y-63404560D01*
X23316633Y-63474252D01*
X23274763Y-63530186D01*
X23226811Y-63552086D01*
X23144197Y-63570058D01*
X23144192Y-63570059D01*
X23144191Y-63570060D01*
X23069609Y-63597877D01*
X22878080Y-63669314D01*
X22628821Y-63805420D01*
X22628813Y-63805425D01*
X22401460Y-63975619D01*
X22401442Y-63975635D01*
X22200635Y-64176442D01*
X22200619Y-64176460D01*
X22030425Y-64403813D01*
X22030420Y-64403821D01*
X21894314Y-64653080D01*
X21795057Y-64919199D01*
X21734689Y-65196706D01*
X21714428Y-65479998D01*
X21714428Y-65480001D01*
X8602625Y-65480001D01*
X8568728Y-65439180D01*
X8550024Y-65416655D01*
X8243345Y-65109976D01*
X8243333Y-65109966D01*
X7909689Y-64832911D01*
X7909679Y-64832904D01*
X7909677Y-64832902D01*
X7647169Y-64653080D01*
X7551866Y-64587796D01*
X7551859Y-64587792D01*
X7172978Y-64376757D01*
X7172977Y-64376756D01*
X7172969Y-64376752D01*
X7172960Y-64376748D01*
X7172950Y-64376743D01*
X6776229Y-64201572D01*
X6776225Y-64201571D01*
X6776216Y-64201568D01*
X6776214Y-64201567D01*
X6364987Y-64063738D01*
X6364986Y-64063737D01*
X6364984Y-64063737D01*
X5942803Y-63964441D01*
X5942798Y-63964440D01*
X5513255Y-63904521D01*
X5513253Y-63904520D01*
X5513247Y-63904520D01*
X5188366Y-63889500D01*
X4971634Y-63889500D01*
X4646753Y-63904520D01*
X4646746Y-63904520D01*
X4646744Y-63904521D01*
X4217201Y-63964440D01*
X4217196Y-63964441D01*
X3795015Y-64063737D01*
X3383774Y-64201571D01*
X3383770Y-64201572D01*
X2987049Y-64376743D01*
X2987021Y-64376757D01*
X2608140Y-64587792D01*
X2608133Y-64587796D01*
X2250320Y-64832904D01*
X2250310Y-64832911D01*
X1916666Y-65109966D01*
X1916646Y-65109984D01*
X1609984Y-65416646D01*
X1609966Y-65416666D01*
X1332911Y-65750310D01*
X1332904Y-65750320D01*
X1087796Y-66108133D01*
X1087792Y-66108140D01*
X876757Y-66487021D01*
X876745Y-66487044D01*
X872433Y-66496812D01*
X827346Y-66550187D01*
X760560Y-66570713D01*
X693278Y-66551873D01*
X646863Y-66499649D01*
X635000Y-66446723D01*
X635000Y-61861113D01*
X6464500Y-61861113D01*
X6464501Y-61861152D01*
X6467295Y-61913743D01*
X6467295Y-61913744D01*
X6507303Y-62120606D01*
X6511755Y-62143626D01*
X6560326Y-62272332D01*
X6594425Y-62362689D01*
X6712929Y-62564631D01*
X6712934Y-62564638D01*
X6863856Y-62743641D01*
X6863858Y-62743643D01*
X7042861Y-62894565D01*
X7042868Y-62894570D01*
X7244810Y-63013074D01*
X7463874Y-63095745D01*
X7693759Y-63140205D01*
X7746378Y-63143000D01*
X7746386Y-63143000D01*
X9683614Y-63143000D01*
X9683622Y-63143000D01*
X9736241Y-63140205D01*
X9966126Y-63095745D01*
X10185190Y-63013074D01*
X10387132Y-62894570D01*
X10566142Y-62743642D01*
X10717070Y-62564632D01*
X10835574Y-62362690D01*
X10918245Y-62143626D01*
X10962705Y-61913741D01*
X10965500Y-61861122D01*
X10965500Y-59923878D01*
X10962705Y-59871259D01*
X10918245Y-59641374D01*
X10835574Y-59422310D01*
X10717070Y-59220368D01*
X10717065Y-59220361D01*
X10566143Y-59041358D01*
X10566141Y-59041356D01*
X10387138Y-58890434D01*
X10387136Y-58890432D01*
X10248274Y-58808945D01*
X10200418Y-58758038D01*
X10187681Y-58689339D01*
X10214107Y-58624659D01*
X10271307Y-58584535D01*
X10311027Y-58577999D01*
X13529180Y-58577999D01*
X13565204Y-58575165D01*
X13719393Y-58530369D01*
X13857598Y-58448635D01*
X13971135Y-58335098D01*
X14052869Y-58196893D01*
X14094097Y-58054984D01*
X14097664Y-58042708D01*
X14097665Y-58042702D01*
X14099341Y-58021402D01*
X14100500Y-58006681D01*
X14100500Y-57560001D01*
X21849773Y-57560001D01*
X21868657Y-57824027D01*
X21868658Y-57824034D01*
X21924921Y-58082673D01*
X22017426Y-58330690D01*
X22017428Y-58330694D01*
X22144280Y-58563005D01*
X22144285Y-58563013D01*
X22302906Y-58774907D01*
X22302922Y-58774925D01*
X22490074Y-58962077D01*
X22490092Y-58962093D01*
X22701986Y-59120714D01*
X22701994Y-59120719D01*
X22934305Y-59247571D01*
X22934309Y-59247573D01*
X22934311Y-59247574D01*
X23182322Y-59340077D01*
X23182325Y-59340077D01*
X23182326Y-59340078D01*
X23377552Y-59382546D01*
X23440974Y-59396343D01*
X23684660Y-59413772D01*
X23704999Y-59415227D01*
X23705000Y-59415227D01*
X23705001Y-59415227D01*
X23723885Y-59413876D01*
X23969026Y-59396343D01*
X24227678Y-59340077D01*
X24475689Y-59247574D01*
X24708011Y-59120716D01*
X24919915Y-58962087D01*
X25107087Y-58774915D01*
X25265716Y-58563011D01*
X25392574Y-58330689D01*
X25485077Y-58082678D01*
X25541343Y-57824026D01*
X25560227Y-57560000D01*
X25557724Y-57525002D01*
X82769324Y-57525002D01*
X82789961Y-57708171D01*
X82850845Y-57882165D01*
X82929076Y-58006668D01*
X82948915Y-58038242D01*
X83079258Y-58168585D01*
X83235337Y-58266656D01*
X83367559Y-58312922D01*
X83409328Y-58327538D01*
X83592497Y-58348176D01*
X83592500Y-58348176D01*
X83592503Y-58348176D01*
X83775671Y-58327538D01*
X83785685Y-58324034D01*
X83949663Y-58266656D01*
X84105742Y-58168585D01*
X84226457Y-58047870D01*
X91359500Y-58047870D01*
X91359501Y-58047876D01*
X91365908Y-58107483D01*
X91416202Y-58242328D01*
X91416206Y-58242335D01*
X91502452Y-58357544D01*
X91502455Y-58357547D01*
X91617664Y-58443793D01*
X91617671Y-58443797D01*
X91752517Y-58494091D01*
X91752516Y-58494091D01*
X91759444Y-58494835D01*
X91812127Y-58500500D01*
X93607872Y-58500499D01*
X93667483Y-58494091D01*
X93802331Y-58443796D01*
X93917546Y-58357546D01*
X94003796Y-58242331D01*
X94052810Y-58110916D01*
X94094681Y-58054984D01*
X94160145Y-58030566D01*
X94228418Y-58045417D01*
X94256673Y-58066569D01*
X94378599Y-58188495D01*
X94475384Y-58256265D01*
X94572165Y-58324032D01*
X94572167Y-58324033D01*
X94572170Y-58324035D01*
X94786337Y-58423903D01*
X94786343Y-58423904D01*
X94786344Y-58423905D01*
X94818776Y-58432595D01*
X95014592Y-58485063D01*
X95191034Y-58500500D01*
X95249999Y-58505659D01*
X95250000Y-58505659D01*
X95250001Y-58505659D01*
X95308966Y-58500500D01*
X95485408Y-58485063D01*
X95713663Y-58423903D01*
X95927830Y-58324035D01*
X96121401Y-58188495D01*
X96288495Y-58021401D01*
X96424035Y-57827830D01*
X96523903Y-57613663D01*
X96585063Y-57385408D01*
X96605659Y-57150000D01*
X96585063Y-56914592D01*
X96523903Y-56686337D01*
X96424035Y-56472171D01*
X96288495Y-56278599D01*
X96288494Y-56278597D01*
X96121402Y-56111506D01*
X96121395Y-56111501D01*
X95927834Y-55975967D01*
X95927830Y-55975965D01*
X95927828Y-55975964D01*
X95713663Y-55876097D01*
X95713659Y-55876096D01*
X95713655Y-55876094D01*
X95485413Y-55814938D01*
X95485403Y-55814936D01*
X95250001Y-55794341D01*
X95249999Y-55794341D01*
X95014596Y-55814936D01*
X95014586Y-55814938D01*
X94786344Y-55876094D01*
X94786335Y-55876098D01*
X94572171Y-55975964D01*
X94572169Y-55975965D01*
X94378600Y-56111503D01*
X94256673Y-56233430D01*
X94195350Y-56266914D01*
X94125658Y-56261930D01*
X94069725Y-56220058D01*
X94052810Y-56189081D01*
X94003797Y-56057671D01*
X94003793Y-56057664D01*
X93917547Y-55942455D01*
X93917544Y-55942452D01*
X93802335Y-55856206D01*
X93802328Y-55856202D01*
X93667482Y-55805908D01*
X93667483Y-55805908D01*
X93607883Y-55799501D01*
X93607881Y-55799500D01*
X93607873Y-55799500D01*
X93607864Y-55799500D01*
X91812129Y-55799500D01*
X91812123Y-55799501D01*
X91752516Y-55805908D01*
X91617671Y-55856202D01*
X91617664Y-55856206D01*
X91502455Y-55942452D01*
X91502452Y-55942455D01*
X91416206Y-56057664D01*
X91416202Y-56057671D01*
X91365908Y-56192517D01*
X91359501Y-56252116D01*
X91359500Y-56252135D01*
X91359500Y-58047870D01*
X84226457Y-58047870D01*
X84236085Y-58038242D01*
X84334156Y-57882163D01*
X84395037Y-57708174D01*
X84395037Y-57708173D01*
X84395038Y-57708171D01*
X84415676Y-57525002D01*
X84415676Y-57524997D01*
X84395038Y-57341828D01*
X84365253Y-57256708D01*
X84334156Y-57167837D01*
X84236085Y-57011758D01*
X84105742Y-56881415D01*
X83949665Y-56783345D01*
X83949664Y-56783344D01*
X83949663Y-56783344D01*
X83907896Y-56768729D01*
X83775671Y-56722461D01*
X83592503Y-56701824D01*
X83592497Y-56701824D01*
X83409328Y-56722461D01*
X83235334Y-56783345D01*
X83079257Y-56881415D01*
X82948915Y-57011757D01*
X82850845Y-57167834D01*
X82789961Y-57341828D01*
X82769324Y-57524997D01*
X82769324Y-57525002D01*
X25557724Y-57525002D01*
X25541343Y-57295974D01*
X25513468Y-57167834D01*
X25485078Y-57037326D01*
X25475541Y-57011757D01*
X25392574Y-56789311D01*
X25389316Y-56783345D01*
X25265719Y-56556994D01*
X25265714Y-56556986D01*
X25107093Y-56345092D01*
X25107077Y-56345074D01*
X24919925Y-56157922D01*
X24919907Y-56157906D01*
X24708013Y-55999285D01*
X24708005Y-55999280D01*
X24475694Y-55872428D01*
X24475690Y-55872426D01*
X24227673Y-55779921D01*
X23969034Y-55723658D01*
X23969027Y-55723657D01*
X23705001Y-55704773D01*
X23704999Y-55704773D01*
X23440972Y-55723657D01*
X23440965Y-55723658D01*
X23182326Y-55779921D01*
X22934309Y-55872426D01*
X22934305Y-55872428D01*
X22701994Y-55999280D01*
X22701986Y-55999285D01*
X22490092Y-56157906D01*
X22490074Y-56157922D01*
X22302922Y-56345074D01*
X22302906Y-56345092D01*
X22144285Y-56556986D01*
X22144280Y-56556994D01*
X22017428Y-56789305D01*
X22017426Y-56789309D01*
X21924921Y-57037326D01*
X21868658Y-57295965D01*
X21868657Y-57295972D01*
X21849773Y-57559998D01*
X21849773Y-57560001D01*
X14100500Y-57560001D01*
X14100499Y-54378320D01*
X14097665Y-54342296D01*
X14052869Y-54188107D01*
X13971135Y-54049902D01*
X13971133Y-54049900D01*
X13971130Y-54049896D01*
X13857603Y-53936369D01*
X13857595Y-53936363D01*
X13719393Y-53854631D01*
X13719388Y-53854629D01*
X13565208Y-53809835D01*
X13565202Y-53809834D01*
X13529181Y-53807000D01*
X9900831Y-53807000D01*
X9900806Y-53807001D01*
X9864795Y-53809835D01*
X9710611Y-53854629D01*
X9710606Y-53854631D01*
X9572404Y-53936363D01*
X9572396Y-53936369D01*
X9458869Y-54049896D01*
X9458863Y-54049904D01*
X9377131Y-54188106D01*
X9377129Y-54188111D01*
X9332335Y-54342291D01*
X9332334Y-54342297D01*
X9329500Y-54378311D01*
X9329500Y-58006668D01*
X9329501Y-58006693D01*
X9332335Y-58042704D01*
X9377129Y-58196888D01*
X9377131Y-58196893D01*
X9458863Y-58335095D01*
X9458869Y-58335103D01*
X9554085Y-58430319D01*
X9587570Y-58491642D01*
X9582586Y-58561334D01*
X9540714Y-58617267D01*
X9475250Y-58641684D01*
X9466404Y-58642000D01*
X7746378Y-58642000D01*
X7746370Y-58642000D01*
X7746347Y-58642001D01*
X7693756Y-58644795D01*
X7693755Y-58644795D01*
X7463878Y-58689254D01*
X7463876Y-58689254D01*
X7463874Y-58689255D01*
X7389933Y-58717159D01*
X7244810Y-58771925D01*
X7042868Y-58890429D01*
X7042861Y-58890434D01*
X6863858Y-59041356D01*
X6863856Y-59041358D01*
X6712934Y-59220361D01*
X6712929Y-59220368D01*
X6594425Y-59422310D01*
X6539659Y-59567433D01*
X6511755Y-59641374D01*
X6511754Y-59641376D01*
X6511754Y-59641378D01*
X6467295Y-59871255D01*
X6467295Y-59871256D01*
X6464501Y-59923847D01*
X6464500Y-59923886D01*
X6464500Y-61861113D01*
X635000Y-61861113D01*
X635000Y-57256708D01*
X3714500Y-57256708D01*
X3714501Y-57256723D01*
X3724904Y-57388913D01*
X3724905Y-57388920D01*
X3779902Y-57607178D01*
X3779903Y-57607181D01*
X3872991Y-57812122D01*
X3872997Y-57812132D01*
X4001174Y-57997145D01*
X4001178Y-57997150D01*
X4001181Y-57997154D01*
X4160346Y-58156319D01*
X4160350Y-58156322D01*
X4160354Y-58156325D01*
X4218911Y-58196893D01*
X4345374Y-58284507D01*
X4550317Y-58377596D01*
X4550321Y-58377597D01*
X4768579Y-58432594D01*
X4768581Y-58432594D01*
X4768588Y-58432596D01*
X4900783Y-58443000D01*
X6529216Y-58442999D01*
X6661412Y-58432596D01*
X6879683Y-58377596D01*
X7084626Y-58284507D01*
X7269654Y-58156319D01*
X7428819Y-57997154D01*
X7557007Y-57812126D01*
X7650096Y-57607183D01*
X7705096Y-57388912D01*
X7715500Y-57256717D01*
X7715499Y-55128284D01*
X7705096Y-54996088D01*
X7650096Y-54777817D01*
X7557007Y-54572874D01*
X7428819Y-54387846D01*
X7269654Y-54228681D01*
X7269650Y-54228678D01*
X7269645Y-54228674D01*
X7084632Y-54100497D01*
X7084630Y-54100495D01*
X7084626Y-54100493D01*
X6879683Y-54007404D01*
X6879681Y-54007403D01*
X6879678Y-54007402D01*
X6661420Y-53952405D01*
X6661413Y-53952404D01*
X6617347Y-53948936D01*
X6529217Y-53942000D01*
X6529215Y-53942000D01*
X4900791Y-53942000D01*
X4900776Y-53942001D01*
X4768586Y-53952404D01*
X4768579Y-53952405D01*
X4550321Y-54007402D01*
X4550318Y-54007403D01*
X4345377Y-54100491D01*
X4345367Y-54100497D01*
X4160354Y-54228674D01*
X4160342Y-54228684D01*
X4001184Y-54387842D01*
X4001174Y-54387854D01*
X3872997Y-54572867D01*
X3872991Y-54572877D01*
X3779903Y-54777818D01*
X3779902Y-54777821D01*
X3724905Y-54996079D01*
X3724904Y-54996086D01*
X3714500Y-55128277D01*
X3714500Y-57256708D01*
X635000Y-57256708D01*
X635000Y-48260000D01*
X18964341Y-48260000D01*
X18984936Y-48495403D01*
X18984938Y-48495413D01*
X19046094Y-48723655D01*
X19046096Y-48723659D01*
X19046097Y-48723663D01*
X19121486Y-48885335D01*
X19145965Y-48937830D01*
X19145967Y-48937834D01*
X19254281Y-49092521D01*
X19281505Y-49131401D01*
X19448599Y-49298495D01*
X19448604Y-49298499D01*
X19449968Y-49299643D01*
X19450407Y-49300303D01*
X19452427Y-49302323D01*
X19452021Y-49302728D01*
X19488669Y-49357815D01*
X19489776Y-49427676D01*
X19452937Y-49487046D01*
X19409267Y-49512336D01*
X19400669Y-49515184D01*
X19400663Y-49515187D01*
X19251342Y-49607289D01*
X19127289Y-49731342D01*
X19035187Y-49880663D01*
X19035185Y-49880668D01*
X19018701Y-49930414D01*
X18980001Y-50047203D01*
X18980001Y-50047204D01*
X18980000Y-50047204D01*
X18969500Y-50149983D01*
X18969500Y-51450001D01*
X18969501Y-51450018D01*
X18980000Y-51552796D01*
X18980001Y-51552799D01*
X19019303Y-51671402D01*
X19035186Y-51719334D01*
X19127288Y-51868656D01*
X19251344Y-51992712D01*
X19400666Y-52084814D01*
X19567203Y-52139999D01*
X19669991Y-52150500D01*
X20970008Y-52150499D01*
X21072797Y-52139999D01*
X21239334Y-52084814D01*
X21388656Y-51992712D01*
X21512712Y-51868656D01*
X21604814Y-51719334D01*
X21607662Y-51710738D01*
X21647429Y-51653294D01*
X21711944Y-51626468D01*
X21780720Y-51638779D01*
X21817483Y-51667766D01*
X21817677Y-51667573D01*
X21819313Y-51669209D01*
X21820354Y-51670030D01*
X21821501Y-51671397D01*
X21821505Y-51671401D01*
X21988599Y-51838495D01*
X22031675Y-51868657D01*
X22182165Y-51974032D01*
X22182167Y-51974033D01*
X22182170Y-51974035D01*
X22396337Y-52073903D01*
X22624592Y-52135063D01*
X22801034Y-52150500D01*
X22859999Y-52155659D01*
X22860000Y-52155659D01*
X22860001Y-52155659D01*
X22918966Y-52150500D01*
X23095408Y-52135063D01*
X23323663Y-52073903D01*
X23537830Y-51974035D01*
X23731401Y-51838495D01*
X23898495Y-51671401D01*
X24028425Y-51485842D01*
X24083002Y-51442217D01*
X24152500Y-51435023D01*
X24214855Y-51466546D01*
X24231575Y-51485842D01*
X24361500Y-51671395D01*
X24361505Y-51671401D01*
X24528599Y-51838495D01*
X24571675Y-51868657D01*
X24722165Y-51974032D01*
X24722167Y-51974033D01*
X24722170Y-51974035D01*
X24936337Y-52073903D01*
X25164592Y-52135063D01*
X25341034Y-52150500D01*
X25399999Y-52155659D01*
X25400000Y-52155659D01*
X25400001Y-52155659D01*
X25458966Y-52150500D01*
X25635408Y-52135063D01*
X25863663Y-52073903D01*
X26077830Y-51974035D01*
X26271401Y-51838495D01*
X26438495Y-51671401D01*
X26568425Y-51485842D01*
X26623002Y-51442217D01*
X26692500Y-51435023D01*
X26754855Y-51466546D01*
X26771575Y-51485842D01*
X26901500Y-51671395D01*
X26901505Y-51671401D01*
X27068599Y-51838495D01*
X27111675Y-51868657D01*
X27262165Y-51974032D01*
X27262167Y-51974033D01*
X27262170Y-51974035D01*
X27476337Y-52073903D01*
X27704592Y-52135063D01*
X27881034Y-52150500D01*
X27939999Y-52155659D01*
X27940000Y-52155659D01*
X27940001Y-52155659D01*
X27998966Y-52150500D01*
X28175408Y-52135063D01*
X28403663Y-52073903D01*
X28617830Y-51974035D01*
X28811401Y-51838495D01*
X28978495Y-51671401D01*
X29108425Y-51485842D01*
X29163002Y-51442217D01*
X29232500Y-51435023D01*
X29294855Y-51466546D01*
X29311575Y-51485842D01*
X29441500Y-51671395D01*
X29441505Y-51671401D01*
X29608599Y-51838495D01*
X29651675Y-51868657D01*
X29802165Y-51974032D01*
X29802167Y-51974033D01*
X29802170Y-51974035D01*
X30016337Y-52073903D01*
X30244592Y-52135063D01*
X30421034Y-52150500D01*
X30479999Y-52155659D01*
X30480000Y-52155659D01*
X30480001Y-52155659D01*
X30538966Y-52150500D01*
X30715408Y-52135063D01*
X30943663Y-52073903D01*
X31157830Y-51974035D01*
X31351401Y-51838495D01*
X31518495Y-51671401D01*
X31648425Y-51485842D01*
X31703002Y-51442217D01*
X31772500Y-51435023D01*
X31834855Y-51466546D01*
X31851575Y-51485842D01*
X31981500Y-51671395D01*
X31981505Y-51671401D01*
X32148599Y-51838495D01*
X32191675Y-51868657D01*
X32342165Y-51974032D01*
X32342167Y-51974033D01*
X32342170Y-51974035D01*
X32556337Y-52073903D01*
X32784592Y-52135063D01*
X32961034Y-52150500D01*
X33019999Y-52155659D01*
X33020000Y-52155659D01*
X33020001Y-52155659D01*
X33078966Y-52150500D01*
X33255408Y-52135063D01*
X33483663Y-52073903D01*
X33697830Y-51974035D01*
X33891401Y-51838495D01*
X34058495Y-51671401D01*
X34188425Y-51485842D01*
X34243002Y-51442217D01*
X34312500Y-51435023D01*
X34374855Y-51466546D01*
X34391575Y-51485842D01*
X34521500Y-51671395D01*
X34521505Y-51671401D01*
X34688599Y-51838495D01*
X34731675Y-51868657D01*
X34882165Y-51974032D01*
X34882167Y-51974033D01*
X34882170Y-51974035D01*
X35096337Y-52073903D01*
X35324592Y-52135063D01*
X35501034Y-52150500D01*
X35559999Y-52155659D01*
X35560000Y-52155659D01*
X35560001Y-52155659D01*
X35618966Y-52150500D01*
X35795408Y-52135063D01*
X36023663Y-52073903D01*
X36237830Y-51974035D01*
X36431401Y-51838495D01*
X36598495Y-51671401D01*
X36728425Y-51485842D01*
X36783002Y-51442217D01*
X36852500Y-51435023D01*
X36914855Y-51466546D01*
X36931575Y-51485842D01*
X37061500Y-51671395D01*
X37061505Y-51671401D01*
X37228599Y-51838495D01*
X37271675Y-51868657D01*
X37422165Y-51974032D01*
X37422167Y-51974033D01*
X37422170Y-51974035D01*
X37636337Y-52073903D01*
X37864592Y-52135063D01*
X38041034Y-52150500D01*
X38099999Y-52155659D01*
X38100000Y-52155659D01*
X38100001Y-52155659D01*
X38158966Y-52150500D01*
X38335408Y-52135063D01*
X38563663Y-52073903D01*
X38777830Y-51974035D01*
X38971401Y-51838495D01*
X39138495Y-51671401D01*
X39274035Y-51477830D01*
X39373903Y-51263663D01*
X39435063Y-51035408D01*
X39455659Y-50800000D01*
X39435063Y-50564592D01*
X39373903Y-50336337D01*
X39274035Y-50122171D01*
X39268425Y-50114158D01*
X39138494Y-49928597D01*
X38971402Y-49761506D01*
X38971396Y-49761501D01*
X38785842Y-49631575D01*
X38742217Y-49576998D01*
X38735023Y-49507500D01*
X38766546Y-49445145D01*
X38785842Y-49428425D01*
X38913165Y-49339272D01*
X38971401Y-49298495D01*
X39138495Y-49131401D01*
X39274035Y-48937830D01*
X39373903Y-48723663D01*
X39435063Y-48495408D01*
X39455659Y-48260000D01*
X55289341Y-48260000D01*
X55309936Y-48495403D01*
X55309938Y-48495413D01*
X55371094Y-48723655D01*
X55371096Y-48723659D01*
X55371097Y-48723663D01*
X55446486Y-48885335D01*
X55470965Y-48937830D01*
X55470967Y-48937834D01*
X55579281Y-49092521D01*
X55606505Y-49131401D01*
X55773599Y-49298495D01*
X55773604Y-49298499D01*
X55774968Y-49299643D01*
X55775407Y-49300303D01*
X55777427Y-49302323D01*
X55777021Y-49302728D01*
X55813669Y-49357815D01*
X55814776Y-49427676D01*
X55777937Y-49487046D01*
X55734267Y-49512336D01*
X55725669Y-49515184D01*
X55725663Y-49515187D01*
X55576342Y-49607289D01*
X55452289Y-49731342D01*
X55360187Y-49880663D01*
X55360185Y-49880668D01*
X55343701Y-49930414D01*
X55305001Y-50047203D01*
X55305001Y-50047204D01*
X55305000Y-50047204D01*
X55294500Y-50149983D01*
X55294500Y-51450001D01*
X55294501Y-51450018D01*
X55305000Y-51552796D01*
X55305001Y-51552799D01*
X55344303Y-51671402D01*
X55360186Y-51719334D01*
X55452288Y-51868656D01*
X55576344Y-51992712D01*
X55725666Y-52084814D01*
X55892203Y-52139999D01*
X55994991Y-52150500D01*
X57295008Y-52150499D01*
X57397797Y-52139999D01*
X57564334Y-52084814D01*
X57713656Y-51992712D01*
X57837712Y-51868656D01*
X57929814Y-51719334D01*
X57932662Y-51710738D01*
X57972429Y-51653294D01*
X58036944Y-51626468D01*
X58105720Y-51638779D01*
X58142483Y-51667766D01*
X58142677Y-51667573D01*
X58144313Y-51669209D01*
X58145354Y-51670030D01*
X58146501Y-51671397D01*
X58146505Y-51671401D01*
X58313599Y-51838495D01*
X58356675Y-51868657D01*
X58507165Y-51974032D01*
X58507167Y-51974033D01*
X58507170Y-51974035D01*
X58721337Y-52073903D01*
X58949592Y-52135063D01*
X59126034Y-52150500D01*
X59184999Y-52155659D01*
X59185000Y-52155659D01*
X59185001Y-52155659D01*
X59243966Y-52150500D01*
X59420408Y-52135063D01*
X59648663Y-52073903D01*
X59862830Y-51974035D01*
X60056401Y-51838495D01*
X60223495Y-51671401D01*
X60353425Y-51485842D01*
X60408002Y-51442217D01*
X60477500Y-51435023D01*
X60539855Y-51466546D01*
X60556575Y-51485842D01*
X60686500Y-51671395D01*
X60686505Y-51671401D01*
X60853599Y-51838495D01*
X60896675Y-51868657D01*
X61047165Y-51974032D01*
X61047167Y-51974033D01*
X61047170Y-51974035D01*
X61261337Y-52073903D01*
X61489592Y-52135063D01*
X61666034Y-52150500D01*
X61724999Y-52155659D01*
X61725000Y-52155659D01*
X61725001Y-52155659D01*
X61783966Y-52150500D01*
X61960408Y-52135063D01*
X62188663Y-52073903D01*
X62402830Y-51974035D01*
X62596401Y-51838495D01*
X62763495Y-51671401D01*
X62893425Y-51485842D01*
X62948002Y-51442217D01*
X63017500Y-51435023D01*
X63079855Y-51466546D01*
X63096575Y-51485842D01*
X63226500Y-51671395D01*
X63226505Y-51671401D01*
X63393599Y-51838495D01*
X63436675Y-51868657D01*
X63587165Y-51974032D01*
X63587167Y-51974033D01*
X63587170Y-51974035D01*
X63801337Y-52073903D01*
X64029592Y-52135063D01*
X64206034Y-52150500D01*
X64264999Y-52155659D01*
X64265000Y-52155659D01*
X64265001Y-52155659D01*
X64323966Y-52150500D01*
X64500408Y-52135063D01*
X64728663Y-52073903D01*
X64942830Y-51974035D01*
X65136401Y-51838495D01*
X65303495Y-51671401D01*
X65433425Y-51485842D01*
X65488002Y-51442217D01*
X65557500Y-51435023D01*
X65619855Y-51466546D01*
X65636575Y-51485842D01*
X65766500Y-51671395D01*
X65766505Y-51671401D01*
X65933599Y-51838495D01*
X65976675Y-51868657D01*
X66127165Y-51974032D01*
X66127167Y-51974033D01*
X66127170Y-51974035D01*
X66341337Y-52073903D01*
X66569592Y-52135063D01*
X66746034Y-52150500D01*
X66804999Y-52155659D01*
X66805000Y-52155659D01*
X66805001Y-52155659D01*
X66863966Y-52150500D01*
X67040408Y-52135063D01*
X67268663Y-52073903D01*
X67482830Y-51974035D01*
X67676401Y-51838495D01*
X67843495Y-51671401D01*
X67973425Y-51485842D01*
X68028002Y-51442217D01*
X68097500Y-51435023D01*
X68159855Y-51466546D01*
X68176575Y-51485842D01*
X68306500Y-51671395D01*
X68306505Y-51671401D01*
X68473599Y-51838495D01*
X68516675Y-51868657D01*
X68667165Y-51974032D01*
X68667167Y-51974033D01*
X68667170Y-51974035D01*
X68881337Y-52073903D01*
X69109592Y-52135063D01*
X69286034Y-52150500D01*
X69344999Y-52155659D01*
X69345000Y-52155659D01*
X69345001Y-52155659D01*
X69403966Y-52150500D01*
X69580408Y-52135063D01*
X69808663Y-52073903D01*
X70022830Y-51974035D01*
X70216401Y-51838495D01*
X70383495Y-51671401D01*
X70513425Y-51485842D01*
X70568002Y-51442217D01*
X70637500Y-51435023D01*
X70699855Y-51466546D01*
X70716575Y-51485842D01*
X70846500Y-51671395D01*
X70846505Y-51671401D01*
X71013599Y-51838495D01*
X71056675Y-51868657D01*
X71207165Y-51974032D01*
X71207167Y-51974033D01*
X71207170Y-51974035D01*
X71421337Y-52073903D01*
X71649592Y-52135063D01*
X71826034Y-52150500D01*
X71884999Y-52155659D01*
X71885000Y-52155659D01*
X71885001Y-52155659D01*
X71943966Y-52150500D01*
X72120408Y-52135063D01*
X72348663Y-52073903D01*
X72562830Y-51974035D01*
X72756401Y-51838495D01*
X72923495Y-51671401D01*
X73053425Y-51485842D01*
X73108002Y-51442217D01*
X73177500Y-51435023D01*
X73239855Y-51466546D01*
X73256575Y-51485842D01*
X73386500Y-51671395D01*
X73386505Y-51671401D01*
X73553599Y-51838495D01*
X73596675Y-51868657D01*
X73747165Y-51974032D01*
X73747167Y-51974033D01*
X73747170Y-51974035D01*
X73961337Y-52073903D01*
X74189592Y-52135063D01*
X74366034Y-52150500D01*
X74424999Y-52155659D01*
X74425000Y-52155659D01*
X74425001Y-52155659D01*
X74483966Y-52150500D01*
X74660408Y-52135063D01*
X74888663Y-52073903D01*
X75102830Y-51974035D01*
X75296401Y-51838495D01*
X75463495Y-51671401D01*
X75599035Y-51477830D01*
X75698903Y-51263663D01*
X75760063Y-51035408D01*
X75780659Y-50800000D01*
X75760063Y-50564592D01*
X75698903Y-50336337D01*
X75599035Y-50122171D01*
X75593425Y-50114158D01*
X75463494Y-49928597D01*
X75296402Y-49761506D01*
X75296396Y-49761501D01*
X75110842Y-49631575D01*
X75067217Y-49576998D01*
X75062352Y-49530000D01*
X83734341Y-49530000D01*
X83754936Y-49765403D01*
X83754938Y-49765413D01*
X83816094Y-49993655D01*
X83816096Y-49993659D01*
X83816097Y-49993663D01*
X83888994Y-50149991D01*
X83915965Y-50207830D01*
X83915967Y-50207834D01*
X84024281Y-50362521D01*
X84051505Y-50401401D01*
X84218599Y-50568495D01*
X84315384Y-50636265D01*
X84412165Y-50704032D01*
X84412167Y-50704033D01*
X84412170Y-50704035D01*
X84626337Y-50803903D01*
X84854592Y-50865063D01*
X85031034Y-50880500D01*
X85089999Y-50885659D01*
X85090000Y-50885659D01*
X85090001Y-50885659D01*
X85148966Y-50880500D01*
X85325408Y-50865063D01*
X85553663Y-50803903D01*
X85767830Y-50704035D01*
X85961401Y-50568495D01*
X86083329Y-50446566D01*
X86144648Y-50413084D01*
X86214340Y-50418068D01*
X86270274Y-50459939D01*
X86287189Y-50490917D01*
X86336202Y-50622328D01*
X86336206Y-50622335D01*
X86422452Y-50737544D01*
X86422455Y-50737547D01*
X86537664Y-50823793D01*
X86537671Y-50823797D01*
X86672517Y-50874091D01*
X86672516Y-50874091D01*
X86679444Y-50874835D01*
X86732127Y-50880500D01*
X88527872Y-50880499D01*
X88587483Y-50874091D01*
X88722331Y-50823796D01*
X88837546Y-50737546D01*
X88923796Y-50622331D01*
X88974091Y-50487483D01*
X88980500Y-50427873D01*
X88980499Y-48632128D01*
X88974091Y-48572517D01*
X88972810Y-48569083D01*
X88923797Y-48437671D01*
X88923793Y-48437664D01*
X88837547Y-48322455D01*
X88837544Y-48322452D01*
X88722335Y-48236206D01*
X88722328Y-48236202D01*
X88587482Y-48185908D01*
X88587483Y-48185908D01*
X88527883Y-48179501D01*
X88527881Y-48179500D01*
X88527873Y-48179500D01*
X88527864Y-48179500D01*
X86732129Y-48179500D01*
X86732123Y-48179501D01*
X86672516Y-48185908D01*
X86537671Y-48236202D01*
X86537664Y-48236206D01*
X86422455Y-48322452D01*
X86422452Y-48322455D01*
X86336206Y-48437664D01*
X86336203Y-48437669D01*
X86287189Y-48569083D01*
X86245317Y-48625016D01*
X86179853Y-48649433D01*
X86111580Y-48634581D01*
X86083326Y-48613430D01*
X85961402Y-48491506D01*
X85961395Y-48491501D01*
X85767834Y-48355967D01*
X85767830Y-48355965D01*
X85767828Y-48355964D01*
X85553663Y-48256097D01*
X85553659Y-48256096D01*
X85553655Y-48256094D01*
X85325413Y-48194938D01*
X85325403Y-48194936D01*
X85090001Y-48174341D01*
X85089999Y-48174341D01*
X84854596Y-48194936D01*
X84854586Y-48194938D01*
X84626344Y-48256094D01*
X84626335Y-48256098D01*
X84412171Y-48355964D01*
X84412169Y-48355965D01*
X84218597Y-48491505D01*
X84051505Y-48658597D01*
X83915965Y-48852169D01*
X83915964Y-48852171D01*
X83816098Y-49066335D01*
X83816094Y-49066344D01*
X83754938Y-49294586D01*
X83754936Y-49294596D01*
X83734341Y-49529999D01*
X83734341Y-49530000D01*
X75062352Y-49530000D01*
X75060023Y-49507500D01*
X75091546Y-49445145D01*
X75110842Y-49428425D01*
X75238165Y-49339272D01*
X75296401Y-49298495D01*
X75463495Y-49131401D01*
X75599035Y-48937830D01*
X75698903Y-48723663D01*
X75760063Y-48495408D01*
X75780659Y-48260000D01*
X75760063Y-48024592D01*
X75698903Y-47796337D01*
X75599035Y-47582171D01*
X75593425Y-47574158D01*
X75463494Y-47388597D01*
X75296402Y-47221506D01*
X75296395Y-47221501D01*
X75102834Y-47085967D01*
X75102830Y-47085965D01*
X75058812Y-47065439D01*
X74888663Y-46986097D01*
X74888659Y-46986096D01*
X74888655Y-46986094D01*
X74660413Y-46924938D01*
X74660403Y-46924936D01*
X74425001Y-46904341D01*
X74424999Y-46904341D01*
X74189596Y-46924936D01*
X74189586Y-46924938D01*
X73961344Y-46986094D01*
X73961335Y-46986098D01*
X73747171Y-47085964D01*
X73747169Y-47085965D01*
X73553597Y-47221505D01*
X73386505Y-47388597D01*
X73256575Y-47574158D01*
X73201998Y-47617783D01*
X73132500Y-47624977D01*
X73070145Y-47593454D01*
X73053425Y-47574158D01*
X72923494Y-47388597D01*
X72756402Y-47221506D01*
X72756395Y-47221501D01*
X72562834Y-47085967D01*
X72562830Y-47085965D01*
X72518812Y-47065439D01*
X72348663Y-46986097D01*
X72348659Y-46986096D01*
X72348655Y-46986094D01*
X72120413Y-46924938D01*
X72120403Y-46924936D01*
X71885001Y-46904341D01*
X71884999Y-46904341D01*
X71649596Y-46924936D01*
X71649586Y-46924938D01*
X71421344Y-46986094D01*
X71421335Y-46986098D01*
X71207171Y-47085964D01*
X71207169Y-47085965D01*
X71013597Y-47221505D01*
X70846505Y-47388597D01*
X70716575Y-47574158D01*
X70661998Y-47617783D01*
X70592500Y-47624977D01*
X70530145Y-47593454D01*
X70513425Y-47574158D01*
X70383494Y-47388597D01*
X70216402Y-47221506D01*
X70216395Y-47221501D01*
X70022834Y-47085967D01*
X70022830Y-47085965D01*
X69978812Y-47065439D01*
X69808663Y-46986097D01*
X69808659Y-46986096D01*
X69808655Y-46986094D01*
X69580413Y-46924938D01*
X69580409Y-46924937D01*
X69580408Y-46924937D01*
X69580406Y-46924936D01*
X69580396Y-46924935D01*
X69575914Y-46924543D01*
X69510847Y-46899085D01*
X69469874Y-46842491D01*
X69463512Y-46787133D01*
X69469274Y-46736000D01*
X69469274Y-46735997D01*
X69450238Y-46567048D01*
X69401194Y-46426889D01*
X69394082Y-46406563D01*
X69303624Y-46262600D01*
X69183400Y-46142376D01*
X69147146Y-46119596D01*
X69039439Y-46051919D01*
X69039438Y-46051918D01*
X69039437Y-46051918D01*
X69000912Y-46038437D01*
X68878951Y-45995761D01*
X68710003Y-45976726D01*
X68709997Y-45976726D01*
X68541048Y-45995761D01*
X68380560Y-46051919D01*
X68236599Y-46142376D01*
X68116376Y-46262599D01*
X68025919Y-46406560D01*
X67969761Y-46567048D01*
X67950726Y-46735997D01*
X67950726Y-46736002D01*
X67969761Y-46904951D01*
X68025919Y-47065439D01*
X68116376Y-47209400D01*
X68228430Y-47321454D01*
X68261915Y-47382777D01*
X68256931Y-47452469D01*
X68242324Y-47480259D01*
X68176574Y-47574159D01*
X68121997Y-47617784D01*
X68052498Y-47624976D01*
X67990144Y-47593454D01*
X67973424Y-47574158D01*
X67843494Y-47388597D01*
X67676402Y-47221506D01*
X67676395Y-47221501D01*
X67482834Y-47085967D01*
X67482830Y-47085965D01*
X67438812Y-47065439D01*
X67268663Y-46986097D01*
X67268659Y-46986096D01*
X67268655Y-46986094D01*
X67040413Y-46924938D01*
X67040403Y-46924936D01*
X66805001Y-46904341D01*
X66804999Y-46904341D01*
X66569596Y-46924936D01*
X66569586Y-46924938D01*
X66341344Y-46986094D01*
X66341335Y-46986098D01*
X66127171Y-47085964D01*
X66127169Y-47085965D01*
X65933597Y-47221505D01*
X65766505Y-47388597D01*
X65636575Y-47574158D01*
X65581998Y-47617783D01*
X65512500Y-47624977D01*
X65450145Y-47593454D01*
X65433425Y-47574158D01*
X65303494Y-47388597D01*
X65136402Y-47221506D01*
X65136395Y-47221501D01*
X64942834Y-47085967D01*
X64942830Y-47085965D01*
X64898812Y-47065439D01*
X64728663Y-46986097D01*
X64728659Y-46986096D01*
X64728655Y-46986094D01*
X64500413Y-46924938D01*
X64500403Y-46924936D01*
X64265001Y-46904341D01*
X64264999Y-46904341D01*
X64029596Y-46924936D01*
X64029586Y-46924938D01*
X63801344Y-46986094D01*
X63801335Y-46986098D01*
X63587171Y-47085964D01*
X63587169Y-47085965D01*
X63393597Y-47221505D01*
X63226505Y-47388597D01*
X63096575Y-47574158D01*
X63041998Y-47617783D01*
X62972500Y-47624977D01*
X62910145Y-47593454D01*
X62893425Y-47574158D01*
X62763494Y-47388597D01*
X62596402Y-47221506D01*
X62596395Y-47221501D01*
X62402834Y-47085967D01*
X62402830Y-47085965D01*
X62358812Y-47065439D01*
X62188663Y-46986097D01*
X62188659Y-46986096D01*
X62188655Y-46986094D01*
X61960413Y-46924938D01*
X61960403Y-46924936D01*
X61725001Y-46904341D01*
X61724999Y-46904341D01*
X61489596Y-46924936D01*
X61489586Y-46924938D01*
X61261344Y-46986094D01*
X61261335Y-46986098D01*
X61047171Y-47085964D01*
X61047169Y-47085965D01*
X60853597Y-47221505D01*
X60686505Y-47388597D01*
X60556575Y-47574158D01*
X60501998Y-47617783D01*
X60432500Y-47624977D01*
X60370145Y-47593454D01*
X60353425Y-47574158D01*
X60223494Y-47388597D01*
X60056402Y-47221506D01*
X60056395Y-47221501D01*
X59862834Y-47085967D01*
X59862830Y-47085965D01*
X59818812Y-47065439D01*
X59648663Y-46986097D01*
X59648659Y-46986096D01*
X59648655Y-46986094D01*
X59420413Y-46924938D01*
X59420403Y-46924936D01*
X59185001Y-46904341D01*
X59184999Y-46904341D01*
X58949596Y-46924936D01*
X58949586Y-46924938D01*
X58721344Y-46986094D01*
X58721335Y-46986098D01*
X58507171Y-47085964D01*
X58507169Y-47085965D01*
X58313597Y-47221505D01*
X58146505Y-47388597D01*
X58016575Y-47574158D01*
X57961998Y-47617783D01*
X57892500Y-47624977D01*
X57830145Y-47593454D01*
X57813425Y-47574158D01*
X57683494Y-47388597D01*
X57516402Y-47221506D01*
X57516395Y-47221501D01*
X57322834Y-47085967D01*
X57322830Y-47085965D01*
X57278812Y-47065439D01*
X57108663Y-46986097D01*
X57108659Y-46986096D01*
X57108655Y-46986094D01*
X56880413Y-46924938D01*
X56880403Y-46924936D01*
X56645001Y-46904341D01*
X56644999Y-46904341D01*
X56409596Y-46924936D01*
X56409586Y-46924938D01*
X56181344Y-46986094D01*
X56181335Y-46986098D01*
X55967171Y-47085964D01*
X55967169Y-47085965D01*
X55773597Y-47221505D01*
X55606505Y-47388597D01*
X55470965Y-47582169D01*
X55470964Y-47582171D01*
X55371098Y-47796335D01*
X55371094Y-47796344D01*
X55309938Y-48024586D01*
X55309936Y-48024596D01*
X55289341Y-48259999D01*
X55289341Y-48260000D01*
X39455659Y-48260000D01*
X39435063Y-48024592D01*
X39373903Y-47796337D01*
X39274035Y-47582171D01*
X39268425Y-47574158D01*
X39138494Y-47388597D01*
X38971402Y-47221506D01*
X38971395Y-47221501D01*
X38777834Y-47085967D01*
X38777830Y-47085965D01*
X38733812Y-47065439D01*
X38563663Y-46986097D01*
X38563659Y-46986096D01*
X38563655Y-46986094D01*
X38335413Y-46924938D01*
X38335403Y-46924936D01*
X38100001Y-46904341D01*
X38099999Y-46904341D01*
X37864596Y-46924936D01*
X37864586Y-46924938D01*
X37636344Y-46986094D01*
X37636335Y-46986098D01*
X37422171Y-47085964D01*
X37422169Y-47085965D01*
X37228597Y-47221505D01*
X37061505Y-47388597D01*
X36931575Y-47574158D01*
X36876998Y-47617783D01*
X36807500Y-47624977D01*
X36745145Y-47593454D01*
X36728425Y-47574158D01*
X36598494Y-47388597D01*
X36431402Y-47221506D01*
X36431395Y-47221501D01*
X36237834Y-47085967D01*
X36237830Y-47085965D01*
X36193812Y-47065439D01*
X36023663Y-46986097D01*
X36023659Y-46986096D01*
X36023655Y-46986094D01*
X35795413Y-46924938D01*
X35795403Y-46924936D01*
X35560001Y-46904341D01*
X35559999Y-46904341D01*
X35324596Y-46924936D01*
X35324586Y-46924938D01*
X35096344Y-46986094D01*
X35096335Y-46986098D01*
X34882171Y-47085964D01*
X34882169Y-47085965D01*
X34688597Y-47221505D01*
X34521505Y-47388597D01*
X34391575Y-47574158D01*
X34336998Y-47617783D01*
X34267500Y-47624977D01*
X34205145Y-47593454D01*
X34188425Y-47574158D01*
X34058494Y-47388597D01*
X33891402Y-47221506D01*
X33891395Y-47221501D01*
X33697834Y-47085967D01*
X33697830Y-47085965D01*
X33653812Y-47065439D01*
X33483663Y-46986097D01*
X33483659Y-46986096D01*
X33483655Y-46986094D01*
X33255413Y-46924938D01*
X33255403Y-46924936D01*
X33020001Y-46904341D01*
X33019999Y-46904341D01*
X32784596Y-46924936D01*
X32784586Y-46924938D01*
X32556344Y-46986094D01*
X32556335Y-46986098D01*
X32342171Y-47085964D01*
X32342169Y-47085965D01*
X32148597Y-47221505D01*
X31981505Y-47388597D01*
X31851575Y-47574158D01*
X31796998Y-47617783D01*
X31727500Y-47624977D01*
X31665145Y-47593454D01*
X31648425Y-47574158D01*
X31518494Y-47388597D01*
X31351402Y-47221506D01*
X31351395Y-47221501D01*
X31157834Y-47085967D01*
X31157830Y-47085965D01*
X31113812Y-47065439D01*
X30943663Y-46986097D01*
X30943659Y-46986096D01*
X30943655Y-46986094D01*
X30715413Y-46924938D01*
X30715403Y-46924936D01*
X30480001Y-46904341D01*
X30479999Y-46904341D01*
X30244596Y-46924936D01*
X30244586Y-46924938D01*
X30016344Y-46986094D01*
X30016335Y-46986098D01*
X29802171Y-47085964D01*
X29802169Y-47085965D01*
X29608597Y-47221505D01*
X29441505Y-47388597D01*
X29311575Y-47574158D01*
X29256998Y-47617783D01*
X29187500Y-47624977D01*
X29125145Y-47593454D01*
X29108425Y-47574158D01*
X28978494Y-47388597D01*
X28811402Y-47221506D01*
X28811395Y-47221501D01*
X28617834Y-47085967D01*
X28617830Y-47085965D01*
X28573812Y-47065439D01*
X28403663Y-46986097D01*
X28403659Y-46986096D01*
X28403655Y-46986094D01*
X28175413Y-46924938D01*
X28175403Y-46924936D01*
X27940001Y-46904341D01*
X27939999Y-46904341D01*
X27704596Y-46924936D01*
X27704586Y-46924938D01*
X27476344Y-46986094D01*
X27476335Y-46986098D01*
X27262171Y-47085964D01*
X27262169Y-47085965D01*
X27068597Y-47221505D01*
X26901505Y-47388597D01*
X26771575Y-47574158D01*
X26716998Y-47617783D01*
X26647500Y-47624977D01*
X26585145Y-47593454D01*
X26568425Y-47574158D01*
X26438494Y-47388597D01*
X26271402Y-47221506D01*
X26271395Y-47221501D01*
X26077834Y-47085967D01*
X26077830Y-47085965D01*
X26033812Y-47065439D01*
X25863663Y-46986097D01*
X25863659Y-46986096D01*
X25863655Y-46986094D01*
X25635413Y-46924938D01*
X25635403Y-46924936D01*
X25400001Y-46904341D01*
X25399999Y-46904341D01*
X25164596Y-46924936D01*
X25164586Y-46924938D01*
X24936344Y-46986094D01*
X24936335Y-46986098D01*
X24722171Y-47085964D01*
X24722169Y-47085965D01*
X24528597Y-47221505D01*
X24361505Y-47388597D01*
X24231575Y-47574158D01*
X24176998Y-47617783D01*
X24107500Y-47624977D01*
X24045145Y-47593454D01*
X24028425Y-47574158D01*
X23898494Y-47388597D01*
X23731402Y-47221506D01*
X23731395Y-47221501D01*
X23537834Y-47085967D01*
X23537830Y-47085965D01*
X23493812Y-47065439D01*
X23323663Y-46986097D01*
X23323659Y-46986096D01*
X23323655Y-46986094D01*
X23095413Y-46924938D01*
X23095403Y-46924936D01*
X22860001Y-46904341D01*
X22859999Y-46904341D01*
X22624596Y-46924936D01*
X22624586Y-46924938D01*
X22396344Y-46986094D01*
X22396335Y-46986098D01*
X22182171Y-47085964D01*
X22182169Y-47085965D01*
X21988597Y-47221505D01*
X21821505Y-47388597D01*
X21691575Y-47574158D01*
X21636998Y-47617783D01*
X21567500Y-47624977D01*
X21505145Y-47593454D01*
X21488425Y-47574158D01*
X21358494Y-47388597D01*
X21191402Y-47221506D01*
X21191395Y-47221501D01*
X20997834Y-47085967D01*
X20997830Y-47085965D01*
X20953812Y-47065439D01*
X20783663Y-46986097D01*
X20783659Y-46986096D01*
X20783655Y-46986094D01*
X20555413Y-46924938D01*
X20555403Y-46924936D01*
X20320001Y-46904341D01*
X20319999Y-46904341D01*
X20084596Y-46924936D01*
X20084586Y-46924938D01*
X19856344Y-46986094D01*
X19856335Y-46986098D01*
X19642171Y-47085964D01*
X19642169Y-47085965D01*
X19448597Y-47221505D01*
X19281505Y-47388597D01*
X19145965Y-47582169D01*
X19145964Y-47582171D01*
X19046098Y-47796335D01*
X19046094Y-47796344D01*
X18984938Y-48024586D01*
X18984936Y-48024596D01*
X18964341Y-48259999D01*
X18964341Y-48260000D01*
X635000Y-48260000D01*
X635000Y-47760197D01*
X654685Y-47693158D01*
X707489Y-47647403D01*
X776647Y-47637459D01*
X804099Y-47646598D01*
X804601Y-47645254D01*
X947620Y-47698596D01*
X947627Y-47698598D01*
X1007155Y-47704999D01*
X1007172Y-47705000D01*
X1524000Y-47705000D01*
X1524000Y-46686457D01*
X1631900Y-46779952D01*
X1762685Y-46839680D01*
X1869237Y-46855000D01*
X1940763Y-46855000D01*
X2047315Y-46839680D01*
X2178100Y-46779952D01*
X2286000Y-46686457D01*
X2286000Y-47705000D01*
X2802828Y-47705000D01*
X2802844Y-47704999D01*
X2862372Y-47698598D01*
X2862379Y-47698596D01*
X2997086Y-47648354D01*
X2997093Y-47648350D01*
X3112187Y-47562190D01*
X3112190Y-47562187D01*
X3198350Y-47447093D01*
X3198354Y-47447086D01*
X3247422Y-47315529D01*
X3289293Y-47259595D01*
X3354757Y-47235178D01*
X3423030Y-47250030D01*
X3451285Y-47271181D01*
X3573599Y-47393495D01*
X3650135Y-47447086D01*
X3767165Y-47529032D01*
X3767167Y-47529033D01*
X3767170Y-47529035D01*
X3981337Y-47628903D01*
X4209592Y-47690063D01*
X4380319Y-47705000D01*
X4444999Y-47710659D01*
X4445000Y-47710659D01*
X4445001Y-47710659D01*
X4509681Y-47705000D01*
X4680408Y-47690063D01*
X4908663Y-47628903D01*
X5122830Y-47529035D01*
X5316401Y-47393495D01*
X5483495Y-47226401D01*
X5613425Y-47040842D01*
X5668002Y-46997217D01*
X5737500Y-46990023D01*
X5799855Y-47021546D01*
X5816575Y-47040842D01*
X5946500Y-47226395D01*
X5946505Y-47226401D01*
X6113599Y-47393495D01*
X6190135Y-47447086D01*
X6307165Y-47529032D01*
X6307167Y-47529033D01*
X6307170Y-47529035D01*
X6521337Y-47628903D01*
X6749592Y-47690063D01*
X6920319Y-47705000D01*
X6984999Y-47710659D01*
X6985000Y-47710659D01*
X6985001Y-47710659D01*
X7049681Y-47705000D01*
X7220408Y-47690063D01*
X7448663Y-47628903D01*
X7662830Y-47529035D01*
X7856401Y-47393495D01*
X8023495Y-47226401D01*
X8153425Y-47040842D01*
X8208002Y-46997217D01*
X8277500Y-46990023D01*
X8339855Y-47021546D01*
X8356575Y-47040842D01*
X8486500Y-47226395D01*
X8486505Y-47226401D01*
X8653599Y-47393495D01*
X8730135Y-47447086D01*
X8847165Y-47529032D01*
X8847167Y-47529033D01*
X8847170Y-47529035D01*
X9061337Y-47628903D01*
X9289592Y-47690063D01*
X9460319Y-47705000D01*
X9524999Y-47710659D01*
X9525000Y-47710659D01*
X9525001Y-47710659D01*
X9589681Y-47705000D01*
X9760408Y-47690063D01*
X9988663Y-47628903D01*
X10202830Y-47529035D01*
X10396401Y-47393495D01*
X10563495Y-47226401D01*
X10699035Y-47032830D01*
X10798903Y-46818663D01*
X10860063Y-46590408D01*
X10880659Y-46355000D01*
X10860063Y-46119592D01*
X10798903Y-45891337D01*
X10699035Y-45677171D01*
X10693425Y-45669158D01*
X10563494Y-45483597D01*
X10396402Y-45316506D01*
X10396395Y-45316501D01*
X10202834Y-45180967D01*
X10202830Y-45180965D01*
X10131727Y-45147809D01*
X9988663Y-45081097D01*
X9988659Y-45081096D01*
X9988655Y-45081094D01*
X9760413Y-45019938D01*
X9760403Y-45019936D01*
X9525001Y-44999341D01*
X9524999Y-44999341D01*
X9289596Y-45019936D01*
X9289586Y-45019938D01*
X9061344Y-45081094D01*
X9061335Y-45081098D01*
X8847171Y-45180964D01*
X8847169Y-45180965D01*
X8653597Y-45316505D01*
X8486505Y-45483597D01*
X8356575Y-45669158D01*
X8301998Y-45712783D01*
X8232500Y-45719977D01*
X8170145Y-45688454D01*
X8153425Y-45669158D01*
X8023494Y-45483597D01*
X7856402Y-45316506D01*
X7856395Y-45316501D01*
X7662834Y-45180967D01*
X7662830Y-45180965D01*
X7591727Y-45147809D01*
X7448663Y-45081097D01*
X7448659Y-45081096D01*
X7448655Y-45081094D01*
X7220413Y-45019938D01*
X7220403Y-45019936D01*
X6985001Y-44999341D01*
X6984999Y-44999341D01*
X6749596Y-45019936D01*
X6749586Y-45019938D01*
X6521344Y-45081094D01*
X6521335Y-45081098D01*
X6307171Y-45180964D01*
X6307169Y-45180965D01*
X6113597Y-45316505D01*
X5946505Y-45483597D01*
X5816575Y-45669158D01*
X5761998Y-45712783D01*
X5692500Y-45719977D01*
X5630145Y-45688454D01*
X5613425Y-45669158D01*
X5483494Y-45483597D01*
X5316402Y-45316506D01*
X5316395Y-45316501D01*
X5122834Y-45180967D01*
X5122830Y-45180965D01*
X5051727Y-45147809D01*
X4908663Y-45081097D01*
X4908659Y-45081096D01*
X4908655Y-45081094D01*
X4680413Y-45019938D01*
X4680403Y-45019936D01*
X4445001Y-44999341D01*
X4444999Y-44999341D01*
X4209596Y-45019936D01*
X4209586Y-45019938D01*
X3981344Y-45081094D01*
X3981335Y-45081098D01*
X3767171Y-45180964D01*
X3767169Y-45180965D01*
X3573600Y-45316503D01*
X3451284Y-45438819D01*
X3389961Y-45472303D01*
X3320269Y-45467319D01*
X3264336Y-45425447D01*
X3247421Y-45394470D01*
X3198354Y-45262913D01*
X3198350Y-45262906D01*
X3112190Y-45147812D01*
X3112187Y-45147809D01*
X2997093Y-45061649D01*
X2997086Y-45061645D01*
X2862379Y-45011403D01*
X2862372Y-45011401D01*
X2802844Y-45005000D01*
X2286000Y-45005000D01*
X2286000Y-46023542D01*
X2178100Y-45930048D01*
X2047315Y-45870320D01*
X1940763Y-45855000D01*
X1869237Y-45855000D01*
X1762685Y-45870320D01*
X1631900Y-45930048D01*
X1524000Y-46023542D01*
X1524000Y-45005000D01*
X1007155Y-45005000D01*
X947627Y-45011401D01*
X947620Y-45011403D01*
X804601Y-45064746D01*
X803531Y-45061877D01*
X750136Y-45073485D01*
X684675Y-45049058D01*
X642812Y-44993119D01*
X635000Y-44949802D01*
X635000Y-44828002D01*
X91886824Y-44828002D01*
X91907461Y-45011171D01*
X91968345Y-45185165D01*
X92050869Y-45316501D01*
X92066415Y-45341242D01*
X92196758Y-45471585D01*
X92352837Y-45569656D01*
X92485059Y-45615922D01*
X92526828Y-45630538D01*
X92709997Y-45651176D01*
X92710000Y-45651176D01*
X92710003Y-45651176D01*
X92893171Y-45630538D01*
X92893174Y-45630537D01*
X93067163Y-45569656D01*
X93223242Y-45471585D01*
X93353585Y-45341242D01*
X93451656Y-45185163D01*
X93512537Y-45011174D01*
X93512537Y-45011173D01*
X93512538Y-45011171D01*
X93533176Y-44828002D01*
X93533176Y-44827997D01*
X93512538Y-44644828D01*
X93497922Y-44603059D01*
X93451656Y-44470837D01*
X93353585Y-44314758D01*
X93223242Y-44184415D01*
X93067163Y-44086344D01*
X93025396Y-44071729D01*
X92893171Y-44025461D01*
X92710003Y-44004824D01*
X92709997Y-44004824D01*
X92526828Y-44025461D01*
X92352834Y-44086345D01*
X92196757Y-44184415D01*
X92066415Y-44314757D01*
X91968345Y-44470834D01*
X91907461Y-44644828D01*
X91886824Y-44827997D01*
X91886824Y-44828002D01*
X635000Y-44828002D01*
X635000Y-42412002D01*
X65854824Y-42412002D01*
X65875461Y-42595171D01*
X65921729Y-42727396D01*
X65936344Y-42769163D01*
X66034415Y-42925242D01*
X66164758Y-43055585D01*
X66320837Y-43153656D01*
X66453059Y-43199922D01*
X66494828Y-43214538D01*
X66677997Y-43235176D01*
X66678000Y-43235176D01*
X66678003Y-43235176D01*
X66861171Y-43214538D01*
X66861174Y-43214537D01*
X67035163Y-43153656D01*
X67191242Y-43055585D01*
X67321585Y-42925242D01*
X67419656Y-42769163D01*
X67480537Y-42595174D01*
X67480537Y-42595173D01*
X67480538Y-42595171D01*
X67501176Y-42412002D01*
X67501176Y-42411997D01*
X67480538Y-42228828D01*
X67465922Y-42187059D01*
X67419656Y-42054837D01*
X67321585Y-41898758D01*
X67191242Y-41768415D01*
X67035163Y-41670344D01*
X66993396Y-41655729D01*
X66861171Y-41609461D01*
X66678003Y-41588824D01*
X66677997Y-41588824D01*
X66494828Y-41609461D01*
X66320834Y-41670345D01*
X66164757Y-41768415D01*
X66034415Y-41898757D01*
X65936345Y-42054834D01*
X65875461Y-42228828D01*
X65854824Y-42411997D01*
X65854824Y-42412002D01*
X635000Y-42412002D01*
X635000Y-39581883D01*
X654685Y-39514844D01*
X707489Y-39469089D01*
X776647Y-39459145D01*
X840203Y-39488170D01*
X860575Y-39510760D01*
X904954Y-39574141D01*
X1065858Y-39735045D01*
X1065861Y-39735047D01*
X1252266Y-39865568D01*
X1458504Y-39961739D01*
X1678308Y-40020635D01*
X1840230Y-40034801D01*
X1904998Y-40040468D01*
X1905000Y-40040468D01*
X1905002Y-40040468D01*
X1961784Y-40035500D01*
X2131692Y-40020635D01*
X2351496Y-39961739D01*
X2557734Y-39865568D01*
X2744139Y-39735047D01*
X2905047Y-39574139D01*
X3035568Y-39387734D01*
X3062618Y-39329724D01*
X3108790Y-39277285D01*
X3175983Y-39258133D01*
X3242865Y-39278348D01*
X3287381Y-39329724D01*
X3301517Y-39360038D01*
X3314429Y-39387728D01*
X3314432Y-39387734D01*
X3444954Y-39574141D01*
X3605858Y-39735045D01*
X3605861Y-39735047D01*
X3792266Y-39865568D01*
X3998504Y-39961739D01*
X4218308Y-40020635D01*
X4380230Y-40034801D01*
X4444998Y-40040468D01*
X4445000Y-40040468D01*
X4445002Y-40040468D01*
X4501784Y-40035500D01*
X4671692Y-40020635D01*
X4891496Y-39961739D01*
X5097734Y-39865568D01*
X5284139Y-39735047D01*
X5445047Y-39574139D01*
X5494498Y-39503514D01*
X5549071Y-39459892D01*
X5618569Y-39452697D01*
X5680924Y-39484218D01*
X5714456Y-39537749D01*
X5741520Y-39624602D01*
X5741521Y-39624604D01*
X5741522Y-39624606D01*
X5770827Y-39673082D01*
X5829530Y-39770188D01*
X5949811Y-39890469D01*
X5949813Y-39890470D01*
X5949815Y-39890472D01*
X6095394Y-39978478D01*
X6257804Y-40029086D01*
X6328384Y-40035500D01*
X6328387Y-40035500D01*
X7641613Y-40035500D01*
X7641616Y-40035500D01*
X7712196Y-40029086D01*
X7874606Y-39978478D01*
X8020185Y-39890472D01*
X8140472Y-39770185D01*
X8228478Y-39624606D01*
X8255543Y-39537747D01*
X8294279Y-39479602D01*
X8358304Y-39451627D01*
X8427290Y-39462708D01*
X8475502Y-39503515D01*
X8517927Y-39564106D01*
X8524955Y-39574142D01*
X8685858Y-39735045D01*
X8685861Y-39735047D01*
X8872266Y-39865568D01*
X9078504Y-39961739D01*
X9298308Y-40020635D01*
X9460230Y-40034801D01*
X9524998Y-40040468D01*
X9525000Y-40040468D01*
X9525002Y-40040468D01*
X9581784Y-40035500D01*
X9751692Y-40020635D01*
X9971496Y-39961739D01*
X10177734Y-39865568D01*
X10364139Y-39735047D01*
X10525047Y-39574139D01*
X10655568Y-39387734D01*
X10682618Y-39329724D01*
X10728790Y-39277285D01*
X10795983Y-39258133D01*
X10862865Y-39278348D01*
X10907381Y-39329724D01*
X10921517Y-39360038D01*
X10934429Y-39387728D01*
X10934432Y-39387734D01*
X11064954Y-39574141D01*
X11225858Y-39735045D01*
X11225861Y-39735047D01*
X11412266Y-39865568D01*
X11618504Y-39961739D01*
X11838308Y-40020635D01*
X12000230Y-40034801D01*
X12064998Y-40040468D01*
X12065000Y-40040468D01*
X12065002Y-40040468D01*
X12121784Y-40035500D01*
X12291692Y-40020635D01*
X12511496Y-39961739D01*
X12717734Y-39865568D01*
X12904139Y-39735047D01*
X13065047Y-39574139D01*
X13195568Y-39387734D01*
X13222618Y-39329724D01*
X13268790Y-39277285D01*
X13335983Y-39258133D01*
X13402865Y-39278348D01*
X13447381Y-39329724D01*
X13461517Y-39360038D01*
X13474429Y-39387728D01*
X13474432Y-39387734D01*
X13604954Y-39574141D01*
X13765858Y-39735045D01*
X13765861Y-39735047D01*
X13952266Y-39865568D01*
X14158504Y-39961739D01*
X14378308Y-40020635D01*
X14540230Y-40034801D01*
X14604998Y-40040468D01*
X14605000Y-40040468D01*
X14605002Y-40040468D01*
X14661784Y-40035500D01*
X14831692Y-40020635D01*
X15051496Y-39961739D01*
X15257734Y-39865568D01*
X15444139Y-39735047D01*
X15605047Y-39574139D01*
X15735568Y-39387734D01*
X15762618Y-39329724D01*
X15808790Y-39277285D01*
X15875983Y-39258133D01*
X15942865Y-39278348D01*
X15987381Y-39329724D01*
X16001517Y-39360038D01*
X16014429Y-39387728D01*
X16014432Y-39387734D01*
X16144954Y-39574141D01*
X16305858Y-39735045D01*
X16305861Y-39735047D01*
X16492266Y-39865568D01*
X16698504Y-39961739D01*
X16918308Y-40020635D01*
X17080230Y-40034801D01*
X17144998Y-40040468D01*
X17145000Y-40040468D01*
X17145002Y-40040468D01*
X17201784Y-40035500D01*
X17371692Y-40020635D01*
X17591496Y-39961739D01*
X17797734Y-39865568D01*
X17984139Y-39735047D01*
X18145047Y-39574139D01*
X18194498Y-39503514D01*
X18249071Y-39459892D01*
X18318569Y-39452697D01*
X18380924Y-39484218D01*
X18414456Y-39537749D01*
X18441520Y-39624602D01*
X18441521Y-39624604D01*
X18441522Y-39624606D01*
X18470827Y-39673082D01*
X18529530Y-39770188D01*
X18649811Y-39890469D01*
X18649813Y-39890470D01*
X18649815Y-39890472D01*
X18795394Y-39978478D01*
X18957804Y-40029086D01*
X19028384Y-40035500D01*
X19028387Y-40035500D01*
X20341613Y-40035500D01*
X20341616Y-40035500D01*
X20412196Y-40029086D01*
X20574606Y-39978478D01*
X20720185Y-39890472D01*
X20840472Y-39770185D01*
X20928478Y-39624606D01*
X20955543Y-39537747D01*
X20994279Y-39479602D01*
X21058304Y-39451627D01*
X21127290Y-39462708D01*
X21175502Y-39503515D01*
X21217927Y-39564106D01*
X21224955Y-39574142D01*
X21385858Y-39735045D01*
X21385861Y-39735047D01*
X21572266Y-39865568D01*
X21778504Y-39961739D01*
X21998308Y-40020635D01*
X22160230Y-40034801D01*
X22224998Y-40040468D01*
X22225000Y-40040468D01*
X22225002Y-40040468D01*
X22281784Y-40035500D01*
X22451692Y-40020635D01*
X22671496Y-39961739D01*
X22877734Y-39865568D01*
X23064139Y-39735047D01*
X23225047Y-39574139D01*
X23355568Y-39387734D01*
X23382618Y-39329724D01*
X23428790Y-39277285D01*
X23495983Y-39258133D01*
X23562865Y-39278348D01*
X23607381Y-39329724D01*
X23621517Y-39360038D01*
X23634429Y-39387728D01*
X23634432Y-39387734D01*
X23764954Y-39574141D01*
X23925858Y-39735045D01*
X23925861Y-39735047D01*
X24112266Y-39865568D01*
X24318504Y-39961739D01*
X24538308Y-40020635D01*
X24700230Y-40034801D01*
X24764998Y-40040468D01*
X24765000Y-40040468D01*
X24765002Y-40040468D01*
X24821784Y-40035500D01*
X24991692Y-40020635D01*
X25211496Y-39961739D01*
X25417734Y-39865568D01*
X25604139Y-39735047D01*
X25765047Y-39574139D01*
X25895568Y-39387734D01*
X25922618Y-39329724D01*
X25968790Y-39277285D01*
X26035983Y-39258133D01*
X26102865Y-39278348D01*
X26147381Y-39329724D01*
X26161517Y-39360038D01*
X26174429Y-39387728D01*
X26174432Y-39387734D01*
X26304954Y-39574141D01*
X26465858Y-39735045D01*
X26465861Y-39735047D01*
X26652266Y-39865568D01*
X26858504Y-39961739D01*
X27078308Y-40020635D01*
X27240230Y-40034801D01*
X27304998Y-40040468D01*
X27305000Y-40040468D01*
X27305002Y-40040468D01*
X27361784Y-40035500D01*
X27531692Y-40020635D01*
X27751496Y-39961739D01*
X27957734Y-39865568D01*
X28144139Y-39735047D01*
X28305047Y-39574139D01*
X28435568Y-39387734D01*
X28462618Y-39329724D01*
X28508790Y-39277285D01*
X28575983Y-39258133D01*
X28642865Y-39278348D01*
X28687381Y-39329724D01*
X28701517Y-39360038D01*
X28714429Y-39387728D01*
X28714432Y-39387734D01*
X28844954Y-39574141D01*
X29005858Y-39735045D01*
X29005861Y-39735047D01*
X29192266Y-39865568D01*
X29398504Y-39961739D01*
X29618308Y-40020635D01*
X29780230Y-40034801D01*
X29844998Y-40040468D01*
X29845000Y-40040468D01*
X29845002Y-40040468D01*
X29901784Y-40035500D01*
X30071692Y-40020635D01*
X30291496Y-39961739D01*
X30497734Y-39865568D01*
X30684139Y-39735047D01*
X30845047Y-39574139D01*
X30894498Y-39503514D01*
X30949071Y-39459892D01*
X31018569Y-39452697D01*
X31080924Y-39484218D01*
X31114456Y-39537749D01*
X31141520Y-39624602D01*
X31141521Y-39624604D01*
X31141522Y-39624606D01*
X31170827Y-39673082D01*
X31229530Y-39770188D01*
X31349811Y-39890469D01*
X31349813Y-39890470D01*
X31349815Y-39890472D01*
X31495394Y-39978478D01*
X31657804Y-40029086D01*
X31728384Y-40035500D01*
X31728387Y-40035500D01*
X33041613Y-40035500D01*
X33041616Y-40035500D01*
X33112196Y-40029086D01*
X33274606Y-39978478D01*
X33420185Y-39890472D01*
X33540472Y-39770185D01*
X33628478Y-39624606D01*
X33655543Y-39537747D01*
X33694279Y-39479602D01*
X33758304Y-39451627D01*
X33827290Y-39462708D01*
X33875502Y-39503515D01*
X33917927Y-39564106D01*
X33924955Y-39574142D01*
X34085858Y-39735045D01*
X34085861Y-39735047D01*
X34272266Y-39865568D01*
X34478504Y-39961739D01*
X34698308Y-40020635D01*
X34860230Y-40034801D01*
X34924998Y-40040468D01*
X34925000Y-40040468D01*
X34925002Y-40040468D01*
X34981784Y-40035500D01*
X35151692Y-40020635D01*
X35371496Y-39961739D01*
X35577734Y-39865568D01*
X35764139Y-39735047D01*
X35925047Y-39574139D01*
X36055568Y-39387734D01*
X36082618Y-39329724D01*
X36128790Y-39277285D01*
X36195983Y-39258133D01*
X36262865Y-39278348D01*
X36307381Y-39329724D01*
X36321517Y-39360038D01*
X36334429Y-39387728D01*
X36334432Y-39387734D01*
X36464954Y-39574141D01*
X36625858Y-39735045D01*
X36625861Y-39735047D01*
X36812266Y-39865568D01*
X37018504Y-39961739D01*
X37238308Y-40020635D01*
X37400230Y-40034801D01*
X37464998Y-40040468D01*
X37465000Y-40040468D01*
X37465002Y-40040468D01*
X37521784Y-40035500D01*
X37691692Y-40020635D01*
X37911496Y-39961739D01*
X38117734Y-39865568D01*
X38304139Y-39735047D01*
X38465047Y-39574139D01*
X38595568Y-39387734D01*
X38632384Y-39308780D01*
X38678553Y-39256345D01*
X38745747Y-39237193D01*
X38812628Y-39257408D01*
X38857145Y-39308783D01*
X38874428Y-39345846D01*
X38874432Y-39345853D01*
X39004954Y-39532260D01*
X39165858Y-39693164D01*
X39165861Y-39693166D01*
X39352266Y-39823687D01*
X39558504Y-39919858D01*
X39778308Y-39978754D01*
X39940230Y-39992920D01*
X40004998Y-39998587D01*
X40005000Y-39998587D01*
X40005002Y-39998587D01*
X40061673Y-39993628D01*
X40231692Y-39978754D01*
X40451496Y-39919858D01*
X40657734Y-39823687D01*
X40844139Y-39693166D01*
X41005047Y-39532258D01*
X41135568Y-39345853D01*
X41152853Y-39308784D01*
X41199025Y-39256345D01*
X41266218Y-39237193D01*
X41333099Y-39257408D01*
X41377616Y-39308783D01*
X41406229Y-39370144D01*
X41414431Y-39387732D01*
X41414432Y-39387734D01*
X41544954Y-39574141D01*
X41705858Y-39735045D01*
X41705861Y-39735047D01*
X41892266Y-39865568D01*
X42098504Y-39961739D01*
X42318308Y-40020635D01*
X42480230Y-40034801D01*
X42544998Y-40040468D01*
X42545000Y-40040468D01*
X42545002Y-40040468D01*
X42601784Y-40035500D01*
X42771692Y-40020635D01*
X42991496Y-39961739D01*
X43197734Y-39865568D01*
X43384139Y-39735047D01*
X43545047Y-39574139D01*
X43594498Y-39503514D01*
X43649071Y-39459892D01*
X43718569Y-39452697D01*
X43780924Y-39484218D01*
X43814456Y-39537749D01*
X43841520Y-39624602D01*
X43841521Y-39624604D01*
X43841522Y-39624606D01*
X43870827Y-39673082D01*
X43929530Y-39770188D01*
X44049811Y-39890469D01*
X44049813Y-39890470D01*
X44049815Y-39890472D01*
X44195394Y-39978478D01*
X44357804Y-40029086D01*
X44428384Y-40035500D01*
X44428387Y-40035500D01*
X45741613Y-40035500D01*
X45741616Y-40035500D01*
X45812196Y-40029086D01*
X45974606Y-39978478D01*
X46120185Y-39890472D01*
X46240472Y-39770185D01*
X46328478Y-39624606D01*
X46355543Y-39537747D01*
X46394279Y-39479602D01*
X46458304Y-39451627D01*
X46527290Y-39462708D01*
X46575502Y-39503515D01*
X46617927Y-39564106D01*
X46624955Y-39574142D01*
X46785858Y-39735045D01*
X46785861Y-39735047D01*
X46972266Y-39865568D01*
X47178504Y-39961739D01*
X47398308Y-40020635D01*
X47560230Y-40034801D01*
X47624998Y-40040468D01*
X47625000Y-40040468D01*
X47625002Y-40040468D01*
X47681784Y-40035500D01*
X47851692Y-40020635D01*
X48071496Y-39961739D01*
X48277734Y-39865568D01*
X48464139Y-39735047D01*
X48625047Y-39574139D01*
X48755568Y-39387734D01*
X48782618Y-39329724D01*
X48828790Y-39277285D01*
X48895983Y-39258133D01*
X48962865Y-39278348D01*
X49007381Y-39329724D01*
X49021517Y-39360038D01*
X49034429Y-39387728D01*
X49034432Y-39387734D01*
X49164954Y-39574141D01*
X49325858Y-39735045D01*
X49325861Y-39735047D01*
X49512266Y-39865568D01*
X49718504Y-39961739D01*
X49938308Y-40020635D01*
X50100230Y-40034801D01*
X50164998Y-40040468D01*
X50165000Y-40040468D01*
X50165002Y-40040468D01*
X50221784Y-40035500D01*
X50391692Y-40020635D01*
X50611496Y-39961739D01*
X50817734Y-39865568D01*
X51004139Y-39735047D01*
X51165047Y-39574139D01*
X51295568Y-39387734D01*
X51391739Y-39181496D01*
X51450635Y-38961692D01*
X51470468Y-38735000D01*
X51450635Y-38508308D01*
X51441711Y-38475002D01*
X73601824Y-38475002D01*
X73622461Y-38658171D01*
X73666901Y-38785171D01*
X73675742Y-38810439D01*
X73683345Y-38832165D01*
X73764736Y-38961697D01*
X73781415Y-38988242D01*
X73911758Y-39118585D01*
X74067837Y-39216656D01*
X74186372Y-39258133D01*
X74241828Y-39277538D01*
X74424997Y-39298176D01*
X74425000Y-39298176D01*
X74425003Y-39298176D01*
X74608171Y-39277538D01*
X74608894Y-39277285D01*
X74782163Y-39216656D01*
X74938242Y-39118585D01*
X74972319Y-39084508D01*
X75033642Y-39051023D01*
X75103334Y-39056007D01*
X75147681Y-39084508D01*
X75181758Y-39118585D01*
X75337837Y-39216656D01*
X75456372Y-39258133D01*
X75511828Y-39277538D01*
X75694997Y-39298176D01*
X75695000Y-39298176D01*
X75695003Y-39298176D01*
X75878171Y-39277538D01*
X75878894Y-39277285D01*
X76052163Y-39216656D01*
X76208242Y-39118585D01*
X76242319Y-39084508D01*
X76303642Y-39051023D01*
X76373334Y-39056007D01*
X76417681Y-39084508D01*
X76451758Y-39118585D01*
X76607837Y-39216656D01*
X76726372Y-39258133D01*
X76781828Y-39277538D01*
X76964997Y-39298176D01*
X76965000Y-39298176D01*
X76965003Y-39298176D01*
X77148171Y-39277538D01*
X77148894Y-39277285D01*
X77322163Y-39216656D01*
X77478242Y-39118585D01*
X77608585Y-38988242D01*
X77706656Y-38832163D01*
X77767537Y-38658174D01*
X77767537Y-38658173D01*
X77767538Y-38658171D01*
X77773867Y-38602002D01*
X80332824Y-38602002D01*
X80353461Y-38785171D01*
X80394823Y-38903376D01*
X80412677Y-38954400D01*
X80414345Y-38959165D01*
X80512415Y-39115242D01*
X80642758Y-39245585D01*
X80798837Y-39343656D01*
X80924811Y-39387736D01*
X80972828Y-39404538D01*
X81155997Y-39425176D01*
X81156000Y-39425176D01*
X81156003Y-39425176D01*
X81339171Y-39404538D01*
X81339174Y-39404537D01*
X81513163Y-39343656D01*
X81669242Y-39245585D01*
X81799585Y-39115242D01*
X81897656Y-38959163D01*
X81958537Y-38785174D01*
X81958537Y-38785173D01*
X81958538Y-38785171D01*
X81979176Y-38602002D01*
X81979176Y-38601997D01*
X81965543Y-38481002D01*
X87251726Y-38481002D01*
X87270761Y-38649951D01*
X87326919Y-38810439D01*
X87385315Y-38903376D01*
X87417376Y-38954400D01*
X87537600Y-39074624D01*
X87622751Y-39128128D01*
X87641032Y-39139615D01*
X87681563Y-39165082D01*
X87842046Y-39221237D01*
X87845455Y-39221621D01*
X87854005Y-39222585D01*
X87918419Y-39249651D01*
X87957162Y-39304847D01*
X87961917Y-39318434D01*
X87961919Y-39318439D01*
X88005456Y-39387728D01*
X88052376Y-39462400D01*
X88172600Y-39582624D01*
X88316563Y-39673082D01*
X88477046Y-39729237D01*
X88480455Y-39729621D01*
X88489005Y-39730585D01*
X88553419Y-39757651D01*
X88592162Y-39812847D01*
X88596917Y-39826434D01*
X88596919Y-39826439D01*
X88637152Y-39890469D01*
X88687376Y-39970400D01*
X88807600Y-40090624D01*
X88951563Y-40181082D01*
X89112046Y-40237237D01*
X89115455Y-40237621D01*
X89124005Y-40238585D01*
X89188419Y-40265651D01*
X89227162Y-40320847D01*
X89231561Y-40333417D01*
X89231918Y-40334437D01*
X89322376Y-40478400D01*
X89442600Y-40598624D01*
X89586563Y-40689082D01*
X89708521Y-40731756D01*
X89747048Y-40745238D01*
X89915997Y-40764274D01*
X89916000Y-40764274D01*
X89916003Y-40764274D01*
X90084951Y-40745238D01*
X90084954Y-40745237D01*
X90245437Y-40689082D01*
X90389400Y-40598624D01*
X90509624Y-40478400D01*
X90600082Y-40334437D01*
X90656237Y-40173954D01*
X90656237Y-40173953D01*
X90656238Y-40173951D01*
X90675274Y-40005002D01*
X90675274Y-40004997D01*
X90656238Y-39836048D01*
X90633191Y-39770185D01*
X90600082Y-39675563D01*
X90509624Y-39531600D01*
X90389400Y-39411376D01*
X90351771Y-39387732D01*
X90245438Y-39320918D01*
X90165195Y-39292840D01*
X90084954Y-39264763D01*
X90072989Y-39263414D01*
X90008577Y-39236345D01*
X89969837Y-39181150D01*
X89965083Y-39167566D01*
X89965082Y-39167562D01*
X89874623Y-39023599D01*
X89754400Y-38903376D01*
X89610438Y-38812918D01*
X89530195Y-38784840D01*
X89449954Y-38756763D01*
X89437989Y-38755414D01*
X89373577Y-38728345D01*
X89334837Y-38673150D01*
X89330083Y-38659566D01*
X89330082Y-38659562D01*
X89239623Y-38515599D01*
X89119400Y-38395376D01*
X88975438Y-38304918D01*
X88895195Y-38276840D01*
X88814954Y-38248763D01*
X88802989Y-38247414D01*
X88738577Y-38220345D01*
X88699837Y-38165150D01*
X88695083Y-38151566D01*
X88695082Y-38151562D01*
X88625224Y-38040385D01*
X88604624Y-38007600D01*
X88484400Y-37887376D01*
X88449572Y-37865492D01*
X88340439Y-37796919D01*
X88340438Y-37796918D01*
X88340437Y-37796918D01*
X88288727Y-37778824D01*
X88179951Y-37740761D01*
X88011003Y-37721726D01*
X88010997Y-37721726D01*
X87842048Y-37740761D01*
X87681560Y-37796919D01*
X87537599Y-37887376D01*
X87417376Y-38007599D01*
X87326919Y-38151560D01*
X87270761Y-38312048D01*
X87251726Y-38480997D01*
X87251726Y-38481002D01*
X81965543Y-38481002D01*
X81958538Y-38418828D01*
X81918679Y-38304918D01*
X81897656Y-38244837D01*
X81799585Y-38088758D01*
X81669242Y-37958415D01*
X81627599Y-37932249D01*
X81513165Y-37860345D01*
X81513164Y-37860344D01*
X81513163Y-37860344D01*
X81470438Y-37845394D01*
X81339171Y-37799461D01*
X81156003Y-37778824D01*
X81155997Y-37778824D01*
X80972828Y-37799461D01*
X80798834Y-37860345D01*
X80642757Y-37958415D01*
X80512415Y-38088757D01*
X80414345Y-38244834D01*
X80353461Y-38418828D01*
X80332824Y-38601997D01*
X80332824Y-38602002D01*
X77773867Y-38602002D01*
X77788176Y-38475002D01*
X77788176Y-38474997D01*
X77767538Y-38291828D01*
X77732230Y-38190925D01*
X77706656Y-38117837D01*
X77608585Y-37961758D01*
X77478242Y-37831415D01*
X77423342Y-37796919D01*
X77322165Y-37733345D01*
X77322164Y-37733344D01*
X77322163Y-37733344D01*
X77280396Y-37718729D01*
X77148171Y-37672461D01*
X76965003Y-37651824D01*
X76964997Y-37651824D01*
X76781828Y-37672461D01*
X76607834Y-37733345D01*
X76451757Y-37831415D01*
X76417681Y-37865492D01*
X76356358Y-37898977D01*
X76286666Y-37893993D01*
X76242319Y-37865492D01*
X76208242Y-37831415D01*
X76052165Y-37733345D01*
X76052164Y-37733344D01*
X76052163Y-37733344D01*
X76010396Y-37718729D01*
X75878171Y-37672461D01*
X75695003Y-37651824D01*
X75694997Y-37651824D01*
X75511828Y-37672461D01*
X75337834Y-37733345D01*
X75181757Y-37831415D01*
X75147681Y-37865492D01*
X75086358Y-37898977D01*
X75016666Y-37893993D01*
X74972319Y-37865492D01*
X74938242Y-37831415D01*
X74782165Y-37733345D01*
X74782164Y-37733344D01*
X74782163Y-37733344D01*
X74740396Y-37718729D01*
X74608171Y-37672461D01*
X74425003Y-37651824D01*
X74424997Y-37651824D01*
X74241828Y-37672461D01*
X74067834Y-37733345D01*
X73911757Y-37831415D01*
X73781415Y-37961757D01*
X73683345Y-38117834D01*
X73622461Y-38291828D01*
X73601824Y-38474997D01*
X73601824Y-38475002D01*
X51441711Y-38475002D01*
X51391739Y-38288504D01*
X51295568Y-38082266D01*
X51165047Y-37895861D01*
X51165045Y-37895858D01*
X51004141Y-37734954D01*
X50817734Y-37604432D01*
X50817732Y-37604431D01*
X50611497Y-37508261D01*
X50611488Y-37508258D01*
X50391697Y-37449366D01*
X50391693Y-37449365D01*
X50391692Y-37449365D01*
X50391691Y-37449364D01*
X50391686Y-37449364D01*
X50165002Y-37429532D01*
X50164998Y-37429532D01*
X49938313Y-37449364D01*
X49938302Y-37449366D01*
X49718511Y-37508258D01*
X49718502Y-37508261D01*
X49512267Y-37604431D01*
X49512265Y-37604432D01*
X49325858Y-37734954D01*
X49164954Y-37895858D01*
X49034432Y-38082265D01*
X49034431Y-38082267D01*
X49007382Y-38140275D01*
X48961209Y-38192714D01*
X48894016Y-38211866D01*
X48827135Y-38191650D01*
X48782618Y-38140275D01*
X48772854Y-38119336D01*
X48755568Y-38082266D01*
X48625047Y-37895861D01*
X48625045Y-37895858D01*
X48464141Y-37734954D01*
X48277734Y-37604432D01*
X48277732Y-37604431D01*
X48071497Y-37508261D01*
X48071488Y-37508258D01*
X47851697Y-37449366D01*
X47851693Y-37449365D01*
X47851692Y-37449365D01*
X47851691Y-37449364D01*
X47851686Y-37449364D01*
X47625002Y-37429532D01*
X47624998Y-37429532D01*
X47398313Y-37449364D01*
X47398302Y-37449366D01*
X47178511Y-37508258D01*
X47178502Y-37508261D01*
X46972267Y-37604431D01*
X46972265Y-37604432D01*
X46785858Y-37734954D01*
X46624954Y-37895858D01*
X46575503Y-37966483D01*
X46520926Y-38010108D01*
X46451428Y-38017302D01*
X46389073Y-37985779D01*
X46355543Y-37932250D01*
X46328478Y-37845394D01*
X46240472Y-37699815D01*
X46240470Y-37699813D01*
X46240469Y-37699811D01*
X46120188Y-37579530D01*
X46092101Y-37562551D01*
X45974606Y-37491522D01*
X45812196Y-37440914D01*
X45812194Y-37440913D01*
X45812192Y-37440913D01*
X45762778Y-37436423D01*
X45741616Y-37434500D01*
X44428384Y-37434500D01*
X44409145Y-37436248D01*
X44357807Y-37440913D01*
X44195393Y-37491522D01*
X44049811Y-37579530D01*
X43929530Y-37699811D01*
X43841521Y-37845396D01*
X43814456Y-37932251D01*
X43775719Y-37990398D01*
X43711693Y-38018372D01*
X43642708Y-38007290D01*
X43594497Y-37966483D01*
X43545047Y-37895861D01*
X43545045Y-37895859D01*
X43545044Y-37895857D01*
X43384141Y-37734954D01*
X43197734Y-37604432D01*
X43197732Y-37604431D01*
X42991497Y-37508261D01*
X42991488Y-37508258D01*
X42771697Y-37449366D01*
X42771693Y-37449365D01*
X42771692Y-37449365D01*
X42771691Y-37449364D01*
X42771686Y-37449364D01*
X42545002Y-37429532D01*
X42544998Y-37429532D01*
X42318313Y-37449364D01*
X42318302Y-37449366D01*
X42098511Y-37508258D01*
X42098502Y-37508261D01*
X41892267Y-37604431D01*
X41892265Y-37604432D01*
X41705858Y-37734954D01*
X41544954Y-37895858D01*
X41414432Y-38082265D01*
X41414430Y-38082269D01*
X41397145Y-38119336D01*
X41350971Y-38171775D01*
X41283777Y-38190925D01*
X41216897Y-38170708D01*
X41172382Y-38119333D01*
X41135568Y-38040385D01*
X41005047Y-37853980D01*
X41005045Y-37853977D01*
X40844141Y-37693073D01*
X40657734Y-37562551D01*
X40657732Y-37562550D01*
X40451497Y-37466380D01*
X40451488Y-37466377D01*
X40231697Y-37407485D01*
X40231693Y-37407484D01*
X40231692Y-37407484D01*
X40231691Y-37407483D01*
X40231686Y-37407483D01*
X40005002Y-37387651D01*
X40004998Y-37387651D01*
X39778313Y-37407483D01*
X39778302Y-37407485D01*
X39558511Y-37466377D01*
X39558502Y-37466380D01*
X39352267Y-37562550D01*
X39352265Y-37562551D01*
X39165858Y-37693073D01*
X39004954Y-37853977D01*
X38874433Y-38040383D01*
X38874432Y-38040385D01*
X38838316Y-38117837D01*
X38837617Y-38119335D01*
X38791444Y-38171773D01*
X38724250Y-38190925D01*
X38657369Y-38170709D01*
X38612853Y-38119334D01*
X38598595Y-38088758D01*
X38595568Y-38082266D01*
X38465047Y-37895861D01*
X38465045Y-37895858D01*
X38304141Y-37734954D01*
X38117734Y-37604432D01*
X38117732Y-37604431D01*
X37911497Y-37508261D01*
X37911488Y-37508258D01*
X37691697Y-37449366D01*
X37691693Y-37449365D01*
X37691692Y-37449365D01*
X37691691Y-37449364D01*
X37691686Y-37449364D01*
X37465002Y-37429532D01*
X37464998Y-37429532D01*
X37238313Y-37449364D01*
X37238302Y-37449366D01*
X37018511Y-37508258D01*
X37018502Y-37508261D01*
X36812267Y-37604431D01*
X36812265Y-37604432D01*
X36625858Y-37734954D01*
X36464954Y-37895858D01*
X36334432Y-38082265D01*
X36334431Y-38082267D01*
X36307382Y-38140275D01*
X36261209Y-38192714D01*
X36194016Y-38211866D01*
X36127135Y-38191650D01*
X36082618Y-38140275D01*
X36072854Y-38119336D01*
X36055568Y-38082266D01*
X35925047Y-37895861D01*
X35925045Y-37895858D01*
X35764141Y-37734954D01*
X35577734Y-37604432D01*
X35577732Y-37604431D01*
X35371497Y-37508261D01*
X35371488Y-37508258D01*
X35151697Y-37449366D01*
X35151693Y-37449365D01*
X35151692Y-37449365D01*
X35151691Y-37449364D01*
X35151686Y-37449364D01*
X34925002Y-37429532D01*
X34924998Y-37429532D01*
X34698313Y-37449364D01*
X34698302Y-37449366D01*
X34478511Y-37508258D01*
X34478502Y-37508261D01*
X34272267Y-37604431D01*
X34272265Y-37604432D01*
X34085858Y-37734954D01*
X33924954Y-37895858D01*
X33875503Y-37966483D01*
X33820926Y-38010108D01*
X33751428Y-38017302D01*
X33689073Y-37985779D01*
X33655543Y-37932250D01*
X33628478Y-37845394D01*
X33540472Y-37699815D01*
X33540470Y-37699813D01*
X33540469Y-37699811D01*
X33420188Y-37579530D01*
X33392101Y-37562551D01*
X33274606Y-37491522D01*
X33112196Y-37440914D01*
X33112194Y-37440913D01*
X33112192Y-37440913D01*
X33062778Y-37436423D01*
X33041616Y-37434500D01*
X31728384Y-37434500D01*
X31709145Y-37436248D01*
X31657807Y-37440913D01*
X31495393Y-37491522D01*
X31349811Y-37579530D01*
X31229530Y-37699811D01*
X31141521Y-37845396D01*
X31114456Y-37932251D01*
X31075719Y-37990398D01*
X31011693Y-38018372D01*
X30942708Y-38007290D01*
X30894497Y-37966483D01*
X30845047Y-37895861D01*
X30845045Y-37895859D01*
X30845044Y-37895857D01*
X30684141Y-37734954D01*
X30497734Y-37604432D01*
X30497732Y-37604431D01*
X30291497Y-37508261D01*
X30291488Y-37508258D01*
X30071697Y-37449366D01*
X30071693Y-37449365D01*
X30071692Y-37449365D01*
X30071691Y-37449364D01*
X30071686Y-37449364D01*
X29845002Y-37429532D01*
X29844998Y-37429532D01*
X29618313Y-37449364D01*
X29618302Y-37449366D01*
X29398511Y-37508258D01*
X29398502Y-37508261D01*
X29192267Y-37604431D01*
X29192265Y-37604432D01*
X29005858Y-37734954D01*
X28844954Y-37895858D01*
X28714432Y-38082265D01*
X28714431Y-38082267D01*
X28687382Y-38140275D01*
X28641209Y-38192714D01*
X28574016Y-38211866D01*
X28507135Y-38191650D01*
X28462618Y-38140275D01*
X28452854Y-38119336D01*
X28435568Y-38082266D01*
X28305047Y-37895861D01*
X28305045Y-37895858D01*
X28144141Y-37734954D01*
X27957734Y-37604432D01*
X27957732Y-37604431D01*
X27751497Y-37508261D01*
X27751488Y-37508258D01*
X27531697Y-37449366D01*
X27531693Y-37449365D01*
X27531692Y-37449365D01*
X27531691Y-37449364D01*
X27531686Y-37449364D01*
X27305002Y-37429532D01*
X27304998Y-37429532D01*
X27078313Y-37449364D01*
X27078302Y-37449366D01*
X26858511Y-37508258D01*
X26858502Y-37508261D01*
X26652267Y-37604431D01*
X26652265Y-37604432D01*
X26465858Y-37734954D01*
X26304954Y-37895858D01*
X26174432Y-38082265D01*
X26174431Y-38082267D01*
X26147382Y-38140275D01*
X26101209Y-38192714D01*
X26034016Y-38211866D01*
X25967135Y-38191650D01*
X25922618Y-38140275D01*
X25912854Y-38119336D01*
X25895568Y-38082266D01*
X25765047Y-37895861D01*
X25765045Y-37895858D01*
X25604141Y-37734954D01*
X25417734Y-37604432D01*
X25417732Y-37604431D01*
X25211497Y-37508261D01*
X25211488Y-37508258D01*
X24991697Y-37449366D01*
X24991693Y-37449365D01*
X24991692Y-37449365D01*
X24991691Y-37449364D01*
X24991686Y-37449364D01*
X24765002Y-37429532D01*
X24764998Y-37429532D01*
X24538313Y-37449364D01*
X24538302Y-37449366D01*
X24318511Y-37508258D01*
X24318502Y-37508261D01*
X24112267Y-37604431D01*
X24112265Y-37604432D01*
X23925858Y-37734954D01*
X23764954Y-37895858D01*
X23634432Y-38082265D01*
X23634431Y-38082267D01*
X23607382Y-38140275D01*
X23561209Y-38192714D01*
X23494016Y-38211866D01*
X23427135Y-38191650D01*
X23382618Y-38140275D01*
X23372854Y-38119336D01*
X23355568Y-38082266D01*
X23225047Y-37895861D01*
X23225045Y-37895858D01*
X23064141Y-37734954D01*
X22877734Y-37604432D01*
X22877732Y-37604431D01*
X22671497Y-37508261D01*
X22671488Y-37508258D01*
X22451697Y-37449366D01*
X22451693Y-37449365D01*
X22451692Y-37449365D01*
X22451691Y-37449364D01*
X22451686Y-37449364D01*
X22225002Y-37429532D01*
X22224998Y-37429532D01*
X21998313Y-37449364D01*
X21998302Y-37449366D01*
X21778511Y-37508258D01*
X21778502Y-37508261D01*
X21572267Y-37604431D01*
X21572265Y-37604432D01*
X21385858Y-37734954D01*
X21224954Y-37895858D01*
X21175503Y-37966483D01*
X21120926Y-38010108D01*
X21051428Y-38017302D01*
X20989073Y-37985779D01*
X20955543Y-37932250D01*
X20928478Y-37845394D01*
X20840472Y-37699815D01*
X20840470Y-37699813D01*
X20840469Y-37699811D01*
X20720188Y-37579530D01*
X20692101Y-37562551D01*
X20574606Y-37491522D01*
X20412196Y-37440914D01*
X20412194Y-37440913D01*
X20412192Y-37440913D01*
X20362778Y-37436423D01*
X20341616Y-37434500D01*
X19028384Y-37434500D01*
X19009145Y-37436248D01*
X18957807Y-37440913D01*
X18795393Y-37491522D01*
X18649811Y-37579530D01*
X18529530Y-37699811D01*
X18441521Y-37845396D01*
X18414456Y-37932251D01*
X18375719Y-37990398D01*
X18311693Y-38018372D01*
X18242708Y-38007290D01*
X18194497Y-37966483D01*
X18145047Y-37895861D01*
X18145045Y-37895859D01*
X18145044Y-37895857D01*
X17984141Y-37734954D01*
X17797734Y-37604432D01*
X17797732Y-37604431D01*
X17591497Y-37508261D01*
X17591488Y-37508258D01*
X17371697Y-37449366D01*
X17371693Y-37449365D01*
X17371692Y-37449365D01*
X17371691Y-37449364D01*
X17371686Y-37449364D01*
X17145002Y-37429532D01*
X17144998Y-37429532D01*
X16918313Y-37449364D01*
X16918302Y-37449366D01*
X16698511Y-37508258D01*
X16698502Y-37508261D01*
X16492267Y-37604431D01*
X16492265Y-37604432D01*
X16305858Y-37734954D01*
X16144954Y-37895858D01*
X16014432Y-38082265D01*
X16014431Y-38082267D01*
X15987382Y-38140275D01*
X15941209Y-38192714D01*
X15874016Y-38211866D01*
X15807135Y-38191650D01*
X15762618Y-38140275D01*
X15752854Y-38119336D01*
X15735568Y-38082266D01*
X15605047Y-37895861D01*
X15605045Y-37895858D01*
X15444141Y-37734954D01*
X15257734Y-37604432D01*
X15257732Y-37604431D01*
X15051497Y-37508261D01*
X15051488Y-37508258D01*
X14831697Y-37449366D01*
X14831693Y-37449365D01*
X14831692Y-37449365D01*
X14831691Y-37449364D01*
X14831686Y-37449364D01*
X14605002Y-37429532D01*
X14604998Y-37429532D01*
X14378313Y-37449364D01*
X14378302Y-37449366D01*
X14158511Y-37508258D01*
X14158502Y-37508261D01*
X13952267Y-37604431D01*
X13952265Y-37604432D01*
X13765858Y-37734954D01*
X13604954Y-37895858D01*
X13474432Y-38082265D01*
X13474431Y-38082267D01*
X13447382Y-38140275D01*
X13401209Y-38192714D01*
X13334016Y-38211866D01*
X13267135Y-38191650D01*
X13222618Y-38140275D01*
X13212854Y-38119336D01*
X13195568Y-38082266D01*
X13065047Y-37895861D01*
X13065045Y-37895858D01*
X12904141Y-37734954D01*
X12717734Y-37604432D01*
X12717732Y-37604431D01*
X12511497Y-37508261D01*
X12511488Y-37508258D01*
X12291697Y-37449366D01*
X12291693Y-37449365D01*
X12291692Y-37449365D01*
X12291691Y-37449364D01*
X12291686Y-37449364D01*
X12065002Y-37429532D01*
X12064998Y-37429532D01*
X11838313Y-37449364D01*
X11838302Y-37449366D01*
X11618511Y-37508258D01*
X11618502Y-37508261D01*
X11412267Y-37604431D01*
X11412265Y-37604432D01*
X11225858Y-37734954D01*
X11064954Y-37895858D01*
X10934432Y-38082265D01*
X10934431Y-38082267D01*
X10907382Y-38140275D01*
X10861209Y-38192714D01*
X10794016Y-38211866D01*
X10727135Y-38191650D01*
X10682618Y-38140275D01*
X10672854Y-38119336D01*
X10655568Y-38082266D01*
X10525047Y-37895861D01*
X10525045Y-37895858D01*
X10364141Y-37734954D01*
X10177734Y-37604432D01*
X10177732Y-37604431D01*
X9971497Y-37508261D01*
X9971488Y-37508258D01*
X9751697Y-37449366D01*
X9751693Y-37449365D01*
X9751692Y-37449365D01*
X9751691Y-37449364D01*
X9751686Y-37449364D01*
X9525002Y-37429532D01*
X9524998Y-37429532D01*
X9298313Y-37449364D01*
X9298302Y-37449366D01*
X9078511Y-37508258D01*
X9078502Y-37508261D01*
X8872267Y-37604431D01*
X8872265Y-37604432D01*
X8685858Y-37734954D01*
X8524954Y-37895858D01*
X8475503Y-37966483D01*
X8420926Y-38010108D01*
X8351428Y-38017302D01*
X8289073Y-37985779D01*
X8255543Y-37932250D01*
X8228478Y-37845394D01*
X8140472Y-37699815D01*
X8140470Y-37699813D01*
X8140469Y-37699811D01*
X8020188Y-37579530D01*
X7992101Y-37562551D01*
X7874606Y-37491522D01*
X7712196Y-37440914D01*
X7712194Y-37440913D01*
X7712192Y-37440913D01*
X7662778Y-37436423D01*
X7641616Y-37434500D01*
X6328384Y-37434500D01*
X6309145Y-37436248D01*
X6257807Y-37440913D01*
X6095393Y-37491522D01*
X5949811Y-37579530D01*
X5829530Y-37699811D01*
X5741521Y-37845396D01*
X5714456Y-37932251D01*
X5675719Y-37990398D01*
X5611693Y-38018372D01*
X5542708Y-38007290D01*
X5494497Y-37966483D01*
X5445047Y-37895861D01*
X5445045Y-37895859D01*
X5445044Y-37895857D01*
X5284141Y-37734954D01*
X5097734Y-37604432D01*
X5097732Y-37604431D01*
X4891497Y-37508261D01*
X4891488Y-37508258D01*
X4671697Y-37449366D01*
X4671693Y-37449365D01*
X4671692Y-37449365D01*
X4671691Y-37449364D01*
X4671686Y-37449364D01*
X4445002Y-37429532D01*
X4444998Y-37429532D01*
X4218313Y-37449364D01*
X4218302Y-37449366D01*
X3998511Y-37508258D01*
X3998502Y-37508261D01*
X3792267Y-37604431D01*
X3792265Y-37604432D01*
X3605858Y-37734954D01*
X3444954Y-37895858D01*
X3314432Y-38082265D01*
X3314431Y-38082267D01*
X3287382Y-38140275D01*
X3241209Y-38192714D01*
X3174016Y-38211866D01*
X3107135Y-38191650D01*
X3062618Y-38140275D01*
X3052854Y-38119336D01*
X3035568Y-38082266D01*
X2905047Y-37895861D01*
X2905045Y-37895858D01*
X2744141Y-37734954D01*
X2557734Y-37604432D01*
X2557732Y-37604431D01*
X2351497Y-37508261D01*
X2351488Y-37508258D01*
X2131697Y-37449366D01*
X2131693Y-37449365D01*
X2131692Y-37449365D01*
X2131691Y-37449364D01*
X2131686Y-37449364D01*
X1905002Y-37429532D01*
X1904998Y-37429532D01*
X1678313Y-37449364D01*
X1678302Y-37449366D01*
X1458511Y-37508258D01*
X1458502Y-37508261D01*
X1252267Y-37604431D01*
X1252265Y-37604432D01*
X1065858Y-37734954D01*
X904953Y-37895859D01*
X860575Y-37959239D01*
X805998Y-38002864D01*
X736500Y-38010058D01*
X674145Y-37978535D01*
X638731Y-37918305D01*
X635000Y-37888116D01*
X635000Y-37020002D01*
X69151324Y-37020002D01*
X69171961Y-37203171D01*
X69232845Y-37377165D01*
X69315218Y-37508261D01*
X69330915Y-37533242D01*
X69461258Y-37663585D01*
X69617337Y-37761656D01*
X69725384Y-37799463D01*
X69791328Y-37822538D01*
X69974497Y-37843176D01*
X69974500Y-37843176D01*
X69974503Y-37843176D01*
X70157671Y-37822538D01*
X70157674Y-37822537D01*
X70331663Y-37761656D01*
X70487742Y-37663585D01*
X70618085Y-37533242D01*
X70716156Y-37377163D01*
X70729859Y-37338002D01*
X85282824Y-37338002D01*
X85303461Y-37521171D01*
X85332596Y-37604432D01*
X85363612Y-37693072D01*
X85364345Y-37695165D01*
X85429879Y-37799461D01*
X85462415Y-37851242D01*
X85592758Y-37981585D01*
X85748837Y-38079656D01*
X85857953Y-38117837D01*
X85922828Y-38140538D01*
X86105997Y-38161176D01*
X86106000Y-38161176D01*
X86106003Y-38161176D01*
X86289171Y-38140538D01*
X86289923Y-38140275D01*
X86463163Y-38079656D01*
X86619242Y-37981585D01*
X86749585Y-37851242D01*
X86847656Y-37695163D01*
X86908537Y-37521174D01*
X86908537Y-37521173D01*
X86908538Y-37521171D01*
X86929176Y-37338002D01*
X86929176Y-37337997D01*
X86908538Y-37154828D01*
X86861360Y-37020002D01*
X86847656Y-36980837D01*
X86749585Y-36824758D01*
X86619242Y-36694415D01*
X86463163Y-36596344D01*
X86421396Y-36581729D01*
X86289171Y-36535461D01*
X86106003Y-36514824D01*
X86105997Y-36514824D01*
X85922828Y-36535461D01*
X85748834Y-36596345D01*
X85592757Y-36694415D01*
X85462415Y-36824757D01*
X85364345Y-36980834D01*
X85303461Y-37154828D01*
X85282824Y-37337997D01*
X85282824Y-37338002D01*
X70729859Y-37338002D01*
X70777037Y-37203174D01*
X70777037Y-37203173D01*
X70777038Y-37203171D01*
X70797676Y-37020002D01*
X70797676Y-37019997D01*
X70777038Y-36836828D01*
X70749516Y-36758176D01*
X70716156Y-36662837D01*
X70618085Y-36506758D01*
X70487742Y-36376415D01*
X70331663Y-36278344D01*
X70289896Y-36263729D01*
X70157671Y-36217461D01*
X69974503Y-36196824D01*
X69974497Y-36196824D01*
X69791328Y-36217461D01*
X69617334Y-36278345D01*
X69461257Y-36376415D01*
X69330915Y-36506757D01*
X69232845Y-36662834D01*
X69171961Y-36836828D01*
X69151324Y-37019997D01*
X69151324Y-37020002D01*
X635000Y-37020002D01*
X635000Y-35935002D01*
X73601824Y-35935002D01*
X73622461Y-36118171D01*
X73663530Y-36235537D01*
X73683344Y-36292163D01*
X73781415Y-36448242D01*
X73911758Y-36578585D01*
X74067837Y-36676656D01*
X74200059Y-36722922D01*
X74241828Y-36737538D01*
X74424997Y-36758176D01*
X74425000Y-36758176D01*
X74425003Y-36758176D01*
X74608171Y-36737538D01*
X74608174Y-36737537D01*
X74782163Y-36676656D01*
X74938242Y-36578585D01*
X74972319Y-36544508D01*
X75033642Y-36511023D01*
X75103334Y-36516007D01*
X75147681Y-36544508D01*
X75181758Y-36578585D01*
X75337837Y-36676656D01*
X75470059Y-36722922D01*
X75511828Y-36737538D01*
X75694997Y-36758176D01*
X75695000Y-36758176D01*
X75695003Y-36758176D01*
X75878171Y-36737538D01*
X75878174Y-36737537D01*
X76052163Y-36676656D01*
X76208242Y-36578585D01*
X76242319Y-36544508D01*
X76303642Y-36511023D01*
X76373334Y-36516007D01*
X76417681Y-36544508D01*
X76451758Y-36578585D01*
X76607837Y-36676656D01*
X76740059Y-36722922D01*
X76781828Y-36737538D01*
X76964997Y-36758176D01*
X76965000Y-36758176D01*
X76965003Y-36758176D01*
X77148171Y-36737538D01*
X77148174Y-36737537D01*
X77322163Y-36676656D01*
X77478242Y-36578585D01*
X77608585Y-36448242D01*
X77706656Y-36292163D01*
X77767537Y-36118174D01*
X77767537Y-36118173D01*
X77767538Y-36118171D01*
X77788176Y-35935002D01*
X77788176Y-35934997D01*
X77767538Y-35751828D01*
X77752922Y-35710059D01*
X77706656Y-35577837D01*
X77615650Y-35433002D01*
X83123824Y-35433002D01*
X83144461Y-35616171D01*
X83190729Y-35748396D01*
X83205344Y-35790163D01*
X83303415Y-35946242D01*
X83433758Y-36076585D01*
X83589837Y-36174656D01*
X83712173Y-36217463D01*
X83763828Y-36235538D01*
X83946997Y-36256176D01*
X83947000Y-36256176D01*
X83947003Y-36256176D01*
X84130171Y-36235538D01*
X84130174Y-36235537D01*
X84304163Y-36174656D01*
X84460242Y-36076585D01*
X84590585Y-35946242D01*
X84688656Y-35790163D01*
X84749537Y-35616174D01*
X84749537Y-35616173D01*
X84749538Y-35616171D01*
X84770176Y-35433002D01*
X84770176Y-35432997D01*
X84749538Y-35249828D01*
X84734922Y-35208059D01*
X84688656Y-35075837D01*
X84688653Y-35075833D01*
X84687910Y-35074288D01*
X84687728Y-35073188D01*
X84686356Y-35069265D01*
X84687043Y-35069024D01*
X84676556Y-35005347D01*
X84704278Y-34941212D01*
X84712742Y-34932933D01*
X84712318Y-34932509D01*
X84725070Y-34919757D01*
X84847585Y-34797242D01*
X84945656Y-34641163D01*
X85006537Y-34467174D01*
X85006537Y-34467173D01*
X85006538Y-34467171D01*
X85027176Y-34284002D01*
X85027176Y-34283997D01*
X85006538Y-34100828D01*
X84991922Y-34059059D01*
X84945656Y-33926837D01*
X84847585Y-33770758D01*
X84717242Y-33640415D01*
X84561165Y-33542345D01*
X84561164Y-33542344D01*
X84561163Y-33542344D01*
X84519396Y-33527729D01*
X84387171Y-33481461D01*
X84204003Y-33460824D01*
X84203997Y-33460824D01*
X84020828Y-33481461D01*
X83846834Y-33542345D01*
X83690757Y-33640415D01*
X83560415Y-33770757D01*
X83462345Y-33926834D01*
X83401461Y-34100828D01*
X83380824Y-34283997D01*
X83380824Y-34284002D01*
X83401461Y-34467171D01*
X83462346Y-34641168D01*
X83463092Y-34642717D01*
X83463273Y-34643817D01*
X83464644Y-34647735D01*
X83463957Y-34647975D01*
X83474442Y-34711659D01*
X83446717Y-34775792D01*
X83438269Y-34784078D01*
X83438682Y-34784491D01*
X83303415Y-34919757D01*
X83205345Y-35075834D01*
X83144461Y-35249828D01*
X83123824Y-35432997D01*
X83123824Y-35433002D01*
X77615650Y-35433002D01*
X77608585Y-35421758D01*
X77478242Y-35291415D01*
X77322163Y-35193344D01*
X77280396Y-35178729D01*
X77148171Y-35132461D01*
X76965003Y-35111824D01*
X76964997Y-35111824D01*
X76781828Y-35132461D01*
X76607834Y-35193345D01*
X76451757Y-35291415D01*
X76417681Y-35325492D01*
X76356358Y-35358977D01*
X76286666Y-35353993D01*
X76242319Y-35325492D01*
X76208242Y-35291415D01*
X76052165Y-35193345D01*
X76052164Y-35193344D01*
X76052163Y-35193344D01*
X76010396Y-35178729D01*
X75878171Y-35132461D01*
X75695003Y-35111824D01*
X75694997Y-35111824D01*
X75511828Y-35132461D01*
X75337834Y-35193345D01*
X75181757Y-35291415D01*
X75147681Y-35325492D01*
X75086358Y-35358977D01*
X75016666Y-35353993D01*
X74972319Y-35325492D01*
X74938242Y-35291415D01*
X74782165Y-35193345D01*
X74782164Y-35193344D01*
X74782163Y-35193344D01*
X74740396Y-35178729D01*
X74608171Y-35132461D01*
X74425003Y-35111824D01*
X74424997Y-35111824D01*
X74241828Y-35132461D01*
X74067834Y-35193345D01*
X73911757Y-35291415D01*
X73781415Y-35421757D01*
X73683345Y-35577834D01*
X73622461Y-35751828D01*
X73601824Y-35934997D01*
X73601824Y-35935002D01*
X635000Y-35935002D01*
X635000Y-33098002D01*
X62933824Y-33098002D01*
X62954461Y-33281171D01*
X62976250Y-33343439D01*
X63015344Y-33455163D01*
X63113415Y-33611242D01*
X63243758Y-33741585D01*
X63399837Y-33839656D01*
X63532059Y-33885922D01*
X63573828Y-33900538D01*
X63756997Y-33921176D01*
X63757000Y-33921176D01*
X63757003Y-33921176D01*
X63940171Y-33900538D01*
X63940174Y-33900537D01*
X64114163Y-33839656D01*
X64270242Y-33741585D01*
X64400585Y-33611242D01*
X64498656Y-33455163D01*
X64559537Y-33281174D01*
X64559537Y-33281173D01*
X64559538Y-33281171D01*
X64580176Y-33098002D01*
X64580176Y-33097997D01*
X64570712Y-33014002D01*
X70617726Y-33014002D01*
X70636761Y-33182951D01*
X70671130Y-33281171D01*
X70692918Y-33343437D01*
X70783376Y-33487400D01*
X70903600Y-33607624D01*
X71047563Y-33698082D01*
X71169521Y-33740756D01*
X71208048Y-33754238D01*
X71376997Y-33773274D01*
X71377000Y-33773274D01*
X71377003Y-33773274D01*
X71545951Y-33754238D01*
X71545954Y-33754237D01*
X71706437Y-33698082D01*
X71850400Y-33607624D01*
X71970624Y-33487400D01*
X72061082Y-33343437D01*
X72117237Y-33182954D01*
X72117237Y-33182953D01*
X72117238Y-33182951D01*
X72136274Y-33014002D01*
X72136274Y-33013997D01*
X72117238Y-32845048D01*
X72103756Y-32806521D01*
X72061082Y-32684563D01*
X71970624Y-32540600D01*
X71850400Y-32420376D01*
X71706439Y-32329919D01*
X71706438Y-32329918D01*
X71706437Y-32329918D01*
X71667912Y-32316437D01*
X71545951Y-32273761D01*
X71377003Y-32254726D01*
X71376997Y-32254726D01*
X71208048Y-32273761D01*
X71047560Y-32329919D01*
X70903599Y-32420376D01*
X70783376Y-32540599D01*
X70692919Y-32684560D01*
X70636761Y-32845048D01*
X70617726Y-33013997D01*
X70617726Y-33014002D01*
X64570712Y-33014002D01*
X64559538Y-32914828D01*
X64535120Y-32845046D01*
X64498656Y-32740837D01*
X64400585Y-32584758D01*
X64270242Y-32454415D01*
X64114163Y-32356344D01*
X64072396Y-32341729D01*
X63940171Y-32295461D01*
X63757003Y-32274824D01*
X63756997Y-32274824D01*
X63573828Y-32295461D01*
X63399834Y-32356345D01*
X63243757Y-32454415D01*
X63113415Y-32584757D01*
X63015345Y-32740834D01*
X62954461Y-32914828D01*
X62933824Y-33097997D01*
X62933824Y-33098002D01*
X635000Y-33098002D01*
X635000Y-30982002D01*
X74744824Y-30982002D01*
X74765461Y-31165171D01*
X74811729Y-31297396D01*
X74826344Y-31339163D01*
X74924415Y-31495242D01*
X75054758Y-31625585D01*
X75210837Y-31723656D01*
X75343059Y-31769922D01*
X75384828Y-31784538D01*
X75567997Y-31805176D01*
X75568000Y-31805176D01*
X75568003Y-31805176D01*
X75751171Y-31784538D01*
X75751174Y-31784537D01*
X75925163Y-31723656D01*
X76081242Y-31625585D01*
X76211585Y-31495242D01*
X76309656Y-31339163D01*
X76370537Y-31165174D01*
X76370537Y-31165173D01*
X76370538Y-31165171D01*
X76391176Y-30982002D01*
X76391176Y-30981997D01*
X76370538Y-30798828D01*
X76355922Y-30757059D01*
X76309656Y-30624837D01*
X76211585Y-30468758D01*
X76081242Y-30338415D01*
X75925163Y-30240344D01*
X75883396Y-30225729D01*
X75751171Y-30179461D01*
X75568003Y-30158824D01*
X75567997Y-30158824D01*
X75384828Y-30179461D01*
X75210834Y-30240345D01*
X75054757Y-30338415D01*
X74924415Y-30468757D01*
X74826345Y-30624834D01*
X74765461Y-30798828D01*
X74744824Y-30981997D01*
X74744824Y-30982002D01*
X635000Y-30982002D01*
X635000Y-29077002D01*
X76776824Y-29077002D01*
X76797461Y-29260171D01*
X76843729Y-29392396D01*
X76858344Y-29434163D01*
X76956415Y-29590242D01*
X77086758Y-29720585D01*
X77242837Y-29818656D01*
X77375059Y-29864922D01*
X77416828Y-29879538D01*
X77599997Y-29900176D01*
X77600000Y-29900176D01*
X77600003Y-29900176D01*
X77783171Y-29879538D01*
X77783174Y-29879537D01*
X77957163Y-29818656D01*
X78113242Y-29720585D01*
X78147319Y-29686508D01*
X78208642Y-29653023D01*
X78278334Y-29658007D01*
X78322681Y-29686508D01*
X78356758Y-29720585D01*
X78512837Y-29818656D01*
X78645059Y-29864922D01*
X78686828Y-29879538D01*
X78869997Y-29900176D01*
X78870000Y-29900176D01*
X78870003Y-29900176D01*
X79053171Y-29879538D01*
X79053174Y-29879537D01*
X79227163Y-29818656D01*
X79383242Y-29720585D01*
X79417319Y-29686508D01*
X79478642Y-29653023D01*
X79548334Y-29658007D01*
X79592681Y-29686508D01*
X79626758Y-29720585D01*
X79782837Y-29818656D01*
X79915059Y-29864922D01*
X79956828Y-29879538D01*
X80139997Y-29900176D01*
X80140000Y-29900176D01*
X80140003Y-29900176D01*
X80323171Y-29879538D01*
X80323174Y-29879537D01*
X80497163Y-29818656D01*
X80653242Y-29720585D01*
X80687319Y-29686508D01*
X80748642Y-29653023D01*
X80818334Y-29658007D01*
X80862681Y-29686508D01*
X80896758Y-29720585D01*
X81052837Y-29818656D01*
X81185059Y-29864922D01*
X81226828Y-29879538D01*
X81409997Y-29900176D01*
X81410000Y-29900176D01*
X81410003Y-29900176D01*
X81593171Y-29879538D01*
X81593174Y-29879537D01*
X81767163Y-29818656D01*
X81923242Y-29720585D01*
X81957319Y-29686508D01*
X82018642Y-29653023D01*
X82088334Y-29658007D01*
X82132681Y-29686508D01*
X82166758Y-29720585D01*
X82322837Y-29818656D01*
X82455059Y-29864922D01*
X82496828Y-29879538D01*
X82679997Y-29900176D01*
X82680000Y-29900176D01*
X82680003Y-29900176D01*
X82863171Y-29879538D01*
X82863174Y-29879537D01*
X83037163Y-29818656D01*
X83193242Y-29720585D01*
X83227319Y-29686508D01*
X83288642Y-29653023D01*
X83358334Y-29658007D01*
X83402681Y-29686508D01*
X83436758Y-29720585D01*
X83592837Y-29818656D01*
X83725059Y-29864922D01*
X83766828Y-29879538D01*
X83949997Y-29900176D01*
X83950000Y-29900176D01*
X83950003Y-29900176D01*
X84133171Y-29879538D01*
X84133174Y-29879537D01*
X84307163Y-29818656D01*
X84463242Y-29720585D01*
X84497319Y-29686508D01*
X84558642Y-29653023D01*
X84628334Y-29658007D01*
X84672681Y-29686508D01*
X84706758Y-29720585D01*
X84862837Y-29818656D01*
X84995059Y-29864922D01*
X85036828Y-29879538D01*
X85219997Y-29900176D01*
X85220000Y-29900176D01*
X85220003Y-29900176D01*
X85403171Y-29879538D01*
X85403174Y-29879537D01*
X85577163Y-29818656D01*
X85733242Y-29720585D01*
X85767319Y-29686508D01*
X85828642Y-29653023D01*
X85898334Y-29658007D01*
X85942681Y-29686508D01*
X85976758Y-29720585D01*
X86132837Y-29818656D01*
X86265059Y-29864922D01*
X86306828Y-29879538D01*
X86489997Y-29900176D01*
X86490000Y-29900176D01*
X86490003Y-29900176D01*
X86673171Y-29879538D01*
X86673174Y-29879537D01*
X86847163Y-29818656D01*
X87003242Y-29720585D01*
X87037319Y-29686508D01*
X87098642Y-29653023D01*
X87168334Y-29658007D01*
X87212681Y-29686508D01*
X87246758Y-29720585D01*
X87402837Y-29818656D01*
X87535059Y-29864922D01*
X87576828Y-29879538D01*
X87759997Y-29900176D01*
X87760000Y-29900176D01*
X87760003Y-29900176D01*
X87943171Y-29879538D01*
X87943174Y-29879537D01*
X88117163Y-29818656D01*
X88273242Y-29720585D01*
X88403585Y-29590242D01*
X88501656Y-29434163D01*
X88562537Y-29260174D01*
X88562537Y-29260173D01*
X88562538Y-29260171D01*
X88583176Y-29077002D01*
X88583176Y-29076997D01*
X88562538Y-28893828D01*
X88537783Y-28823084D01*
X88501656Y-28719837D01*
X88403585Y-28563758D01*
X88369508Y-28529681D01*
X88336023Y-28468358D01*
X88341007Y-28398666D01*
X88369508Y-28354319D01*
X88403585Y-28320242D01*
X88501656Y-28164163D01*
X88562537Y-27990174D01*
X88562537Y-27990173D01*
X88562538Y-27990171D01*
X88568191Y-27940000D01*
X91354341Y-27940000D01*
X91374936Y-28175403D01*
X91374938Y-28175413D01*
X91436094Y-28403655D01*
X91436096Y-28403659D01*
X91436097Y-28403663D01*
X91510750Y-28563757D01*
X91535965Y-28617830D01*
X91535967Y-28617834D01*
X91607389Y-28719834D01*
X91671505Y-28811401D01*
X91838599Y-28978495D01*
X91935384Y-29046265D01*
X92032165Y-29114032D01*
X92032167Y-29114033D01*
X92032170Y-29114035D01*
X92246337Y-29213903D01*
X92474592Y-29275063D01*
X92651034Y-29290500D01*
X92709999Y-29295659D01*
X92710000Y-29295659D01*
X92710001Y-29295659D01*
X92768966Y-29290500D01*
X92945408Y-29275063D01*
X93173663Y-29213903D01*
X93387830Y-29114035D01*
X93581401Y-28978495D01*
X93703329Y-28856566D01*
X93764648Y-28823084D01*
X93834340Y-28828068D01*
X93890274Y-28869939D01*
X93907189Y-28900917D01*
X93956202Y-29032328D01*
X93956206Y-29032335D01*
X94042452Y-29147544D01*
X94042455Y-29147547D01*
X94157664Y-29233793D01*
X94157671Y-29233797D01*
X94292517Y-29284091D01*
X94292516Y-29284091D01*
X94299444Y-29284835D01*
X94352127Y-29290500D01*
X96147872Y-29290499D01*
X96207483Y-29284091D01*
X96342331Y-29233796D01*
X96457546Y-29147546D01*
X96543796Y-29032331D01*
X96594091Y-28897483D01*
X96600500Y-28837873D01*
X96600499Y-27042128D01*
X96595299Y-26993757D01*
X96594091Y-26982516D01*
X96543797Y-26847671D01*
X96543793Y-26847664D01*
X96457547Y-26732455D01*
X96457544Y-26732452D01*
X96342335Y-26646206D01*
X96342328Y-26646202D01*
X96207482Y-26595908D01*
X96207483Y-26595908D01*
X96147883Y-26589501D01*
X96147881Y-26589500D01*
X96147873Y-26589500D01*
X96147864Y-26589500D01*
X94352129Y-26589500D01*
X94352123Y-26589501D01*
X94292516Y-26595908D01*
X94157671Y-26646202D01*
X94157664Y-26646206D01*
X94042455Y-26732452D01*
X94042452Y-26732455D01*
X93956206Y-26847664D01*
X93956203Y-26847669D01*
X93907189Y-26979083D01*
X93865317Y-27035016D01*
X93799853Y-27059433D01*
X93731580Y-27044581D01*
X93703326Y-27023430D01*
X93581402Y-26901506D01*
X93581395Y-26901501D01*
X93387834Y-26765967D01*
X93387830Y-26765965D01*
X93387828Y-26765964D01*
X93173663Y-26666097D01*
X93173659Y-26666096D01*
X93173655Y-26666094D01*
X92945413Y-26604938D01*
X92945403Y-26604936D01*
X92710001Y-26584341D01*
X92709999Y-26584341D01*
X92474596Y-26604936D01*
X92474586Y-26604938D01*
X92246344Y-26666094D01*
X92246335Y-26666098D01*
X92032171Y-26765964D01*
X92032169Y-26765965D01*
X91838597Y-26901505D01*
X91671505Y-27068597D01*
X91535965Y-27262169D01*
X91535964Y-27262171D01*
X91436098Y-27476335D01*
X91436094Y-27476344D01*
X91374938Y-27704586D01*
X91374936Y-27704596D01*
X91354341Y-27939999D01*
X91354341Y-27940000D01*
X88568191Y-27940000D01*
X88583176Y-27807002D01*
X88583176Y-27806997D01*
X88562538Y-27623828D01*
X88547922Y-27582059D01*
X88501656Y-27449837D01*
X88403585Y-27293758D01*
X88273242Y-27163415D01*
X88117165Y-27065345D01*
X88117164Y-27065344D01*
X88117163Y-27065344D01*
X88075396Y-27050729D01*
X87943171Y-27004461D01*
X87760003Y-26983824D01*
X87759997Y-26983824D01*
X87576828Y-27004461D01*
X87402834Y-27065345D01*
X87246757Y-27163415D01*
X87212681Y-27197492D01*
X87151358Y-27230977D01*
X87081666Y-27225993D01*
X87037319Y-27197492D01*
X87003242Y-27163415D01*
X86847165Y-27065345D01*
X86847164Y-27065344D01*
X86847163Y-27065344D01*
X86805396Y-27050729D01*
X86673171Y-27004461D01*
X86490003Y-26983824D01*
X86489997Y-26983824D01*
X86306828Y-27004461D01*
X86132834Y-27065345D01*
X85976757Y-27163415D01*
X85942681Y-27197492D01*
X85881358Y-27230977D01*
X85811666Y-27225993D01*
X85767319Y-27197492D01*
X85733242Y-27163415D01*
X85577165Y-27065345D01*
X85577164Y-27065344D01*
X85577163Y-27065344D01*
X85535396Y-27050729D01*
X85403171Y-27004461D01*
X85220003Y-26983824D01*
X85219997Y-26983824D01*
X85036828Y-27004461D01*
X84862834Y-27065345D01*
X84706757Y-27163415D01*
X84672681Y-27197492D01*
X84611358Y-27230977D01*
X84541666Y-27225993D01*
X84497319Y-27197492D01*
X84463242Y-27163415D01*
X84307165Y-27065345D01*
X84307164Y-27065344D01*
X84307163Y-27065344D01*
X84265396Y-27050729D01*
X84133171Y-27004461D01*
X83950003Y-26983824D01*
X83949997Y-26983824D01*
X83766828Y-27004461D01*
X83592834Y-27065345D01*
X83436757Y-27163415D01*
X83402681Y-27197492D01*
X83341358Y-27230977D01*
X83271666Y-27225993D01*
X83227319Y-27197492D01*
X83193242Y-27163415D01*
X83037165Y-27065345D01*
X83037164Y-27065344D01*
X83037163Y-27065344D01*
X82995396Y-27050729D01*
X82863171Y-27004461D01*
X82680003Y-26983824D01*
X82679997Y-26983824D01*
X82496828Y-27004461D01*
X82322834Y-27065345D01*
X82166757Y-27163415D01*
X82132681Y-27197492D01*
X82071358Y-27230977D01*
X82001666Y-27225993D01*
X81957319Y-27197492D01*
X81923242Y-27163415D01*
X81767165Y-27065345D01*
X81767164Y-27065344D01*
X81767163Y-27065344D01*
X81725396Y-27050729D01*
X81593171Y-27004461D01*
X81410003Y-26983824D01*
X81409997Y-26983824D01*
X81226828Y-27004461D01*
X81052834Y-27065345D01*
X80896757Y-27163415D01*
X80862681Y-27197492D01*
X80801358Y-27230977D01*
X80731666Y-27225993D01*
X80687319Y-27197492D01*
X80653242Y-27163415D01*
X80497165Y-27065345D01*
X80497164Y-27065344D01*
X80497163Y-27065344D01*
X80455396Y-27050729D01*
X80323171Y-27004461D01*
X80140003Y-26983824D01*
X80139997Y-26983824D01*
X79956828Y-27004461D01*
X79782834Y-27065345D01*
X79626757Y-27163415D01*
X79592681Y-27197492D01*
X79531358Y-27230977D01*
X79461666Y-27225993D01*
X79417319Y-27197492D01*
X79383242Y-27163415D01*
X79227165Y-27065345D01*
X79227164Y-27065344D01*
X79227163Y-27065344D01*
X79185396Y-27050729D01*
X79053171Y-27004461D01*
X78870003Y-26983824D01*
X78869997Y-26983824D01*
X78686828Y-27004461D01*
X78512834Y-27065345D01*
X78356757Y-27163415D01*
X78322681Y-27197492D01*
X78261358Y-27230977D01*
X78191666Y-27225993D01*
X78147319Y-27197492D01*
X78113242Y-27163415D01*
X77957165Y-27065345D01*
X77957164Y-27065344D01*
X77957163Y-27065344D01*
X77915396Y-27050729D01*
X77783171Y-27004461D01*
X77600003Y-26983824D01*
X77599997Y-26983824D01*
X77416828Y-27004461D01*
X77242834Y-27065345D01*
X77086757Y-27163415D01*
X76956415Y-27293757D01*
X76858345Y-27449834D01*
X76797461Y-27623828D01*
X76776824Y-27806997D01*
X76776824Y-27807002D01*
X76797461Y-27990171D01*
X76858345Y-28164165D01*
X76956415Y-28320242D01*
X76990492Y-28354319D01*
X77023977Y-28415642D01*
X77018993Y-28485334D01*
X76990492Y-28529681D01*
X76956415Y-28563757D01*
X76858345Y-28719834D01*
X76797461Y-28893828D01*
X76776824Y-29076997D01*
X76776824Y-29077002D01*
X635000Y-29077002D01*
X635000Y-24886002D01*
X76268824Y-24886002D01*
X76289461Y-25069171D01*
X76328925Y-25181951D01*
X76350344Y-25243163D01*
X76448415Y-25399242D01*
X76578758Y-25529585D01*
X76734837Y-25627656D01*
X76867059Y-25673922D01*
X76908828Y-25688538D01*
X77091997Y-25709176D01*
X77092000Y-25709176D01*
X77092003Y-25709176D01*
X77275171Y-25688538D01*
X77275174Y-25688537D01*
X77449163Y-25627656D01*
X77605242Y-25529585D01*
X77735585Y-25399242D01*
X77833656Y-25243163D01*
X77894537Y-25069174D01*
X77894537Y-25069173D01*
X77894538Y-25069171D01*
X77900867Y-25013002D01*
X80269726Y-25013002D01*
X80288761Y-25181951D01*
X80310181Y-25243165D01*
X80344918Y-25342437D01*
X80435376Y-25486400D01*
X80555600Y-25606624D01*
X80699563Y-25697082D01*
X80821521Y-25739756D01*
X80860048Y-25753238D01*
X81028997Y-25772274D01*
X81029000Y-25772274D01*
X81029003Y-25772274D01*
X81197951Y-25753238D01*
X81197954Y-25753237D01*
X81358437Y-25697082D01*
X81502400Y-25606624D01*
X81622624Y-25486400D01*
X81713082Y-25342437D01*
X81769237Y-25181954D01*
X81769237Y-25181953D01*
X81769238Y-25181951D01*
X81788274Y-25013002D01*
X81788274Y-25012997D01*
X81769238Y-24844048D01*
X81755756Y-24805521D01*
X81713082Y-24683563D01*
X81622624Y-24539600D01*
X81502400Y-24419376D01*
X81446103Y-24384002D01*
X84838726Y-24384002D01*
X84857761Y-24552951D01*
X84900437Y-24674912D01*
X84913918Y-24713437D01*
X85004376Y-24857400D01*
X85124600Y-24977624D01*
X85268563Y-25068082D01*
X85390521Y-25110756D01*
X85429048Y-25124238D01*
X85597997Y-25143274D01*
X85598000Y-25143274D01*
X85598003Y-25143274D01*
X85766951Y-25124238D01*
X85766954Y-25124237D01*
X85927437Y-25068082D01*
X86071400Y-24977624D01*
X86191624Y-24857400D01*
X86282082Y-24713437D01*
X86338237Y-24552954D01*
X86338237Y-24552953D01*
X86338238Y-24552951D01*
X86357274Y-24384002D01*
X86357274Y-24383997D01*
X86338238Y-24215048D01*
X86292194Y-24083463D01*
X86282082Y-24054563D01*
X86191624Y-23910600D01*
X86071400Y-23790376D01*
X85927437Y-23699918D01*
X85888912Y-23686437D01*
X85766951Y-23643761D01*
X85598003Y-23624726D01*
X85597997Y-23624726D01*
X85429048Y-23643761D01*
X85268560Y-23699919D01*
X85124599Y-23790376D01*
X85004376Y-23910599D01*
X84913919Y-24054560D01*
X84857761Y-24215048D01*
X84838726Y-24383997D01*
X84838726Y-24384002D01*
X81446103Y-24384002D01*
X81358439Y-24328919D01*
X81358438Y-24328918D01*
X81358437Y-24328918D01*
X81319912Y-24315437D01*
X81197951Y-24272761D01*
X81029003Y-24253726D01*
X81028997Y-24253726D01*
X80860048Y-24272761D01*
X80699560Y-24328919D01*
X80555599Y-24419376D01*
X80435376Y-24539599D01*
X80344919Y-24683560D01*
X80288761Y-24844048D01*
X80269726Y-25012997D01*
X80269726Y-25013002D01*
X77900867Y-25013002D01*
X77915176Y-24886002D01*
X77915176Y-24885997D01*
X77894538Y-24702828D01*
X77879922Y-24661059D01*
X77833656Y-24528837D01*
X77735585Y-24372758D01*
X77605242Y-24242415D01*
X77449163Y-24144344D01*
X77407396Y-24129729D01*
X77275171Y-24083461D01*
X77092003Y-24062824D01*
X77091997Y-24062824D01*
X76908828Y-24083461D01*
X76734834Y-24144345D01*
X76578757Y-24242415D01*
X76448415Y-24372757D01*
X76350345Y-24528834D01*
X76289461Y-24702828D01*
X76268824Y-24885997D01*
X76268824Y-24886002D01*
X635000Y-24886002D01*
X635000Y-22012699D01*
X654685Y-21945660D01*
X707489Y-21899905D01*
X776647Y-21889961D01*
X840203Y-21918986D01*
X850221Y-21928707D01*
X929430Y-22014751D01*
X929433Y-22014753D01*
X929436Y-22014756D01*
X1117156Y-22160865D01*
X1117162Y-22160869D01*
X1117165Y-22160871D01*
X1326390Y-22274098D01*
X1551398Y-22351344D01*
X1786051Y-22390500D01*
X2023949Y-22390500D01*
X2258602Y-22351344D01*
X2483610Y-22274098D01*
X2692835Y-22160871D01*
X2880570Y-22014751D01*
X3041694Y-21839724D01*
X3151498Y-21671655D01*
X3204643Y-21626302D01*
X3273874Y-21616878D01*
X3337210Y-21646380D01*
X3356880Y-21668357D01*
X3444954Y-21794141D01*
X3605858Y-21955045D01*
X3605861Y-21955047D01*
X3792266Y-22085568D01*
X3998504Y-22181739D01*
X4218308Y-22240635D01*
X4380230Y-22254801D01*
X4444998Y-22260468D01*
X4445000Y-22260468D01*
X4445002Y-22260468D01*
X4501784Y-22255500D01*
X4671692Y-22240635D01*
X4891496Y-22181739D01*
X5097734Y-22085568D01*
X5284139Y-21955047D01*
X5445047Y-21794139D01*
X5494498Y-21723514D01*
X5549071Y-21679892D01*
X5618569Y-21672697D01*
X5680924Y-21704218D01*
X5714456Y-21757749D01*
X5741520Y-21844602D01*
X5741521Y-21844604D01*
X5741522Y-21844606D01*
X5792369Y-21928716D01*
X5829530Y-21990188D01*
X5949811Y-22110469D01*
X5949813Y-22110470D01*
X5949815Y-22110472D01*
X6095394Y-22198478D01*
X6257804Y-22249086D01*
X6328384Y-22255500D01*
X6328387Y-22255500D01*
X7641613Y-22255500D01*
X7641616Y-22255500D01*
X7712196Y-22249086D01*
X7874606Y-22198478D01*
X8020185Y-22110472D01*
X8140472Y-21990185D01*
X8228478Y-21844606D01*
X8255543Y-21757747D01*
X8294279Y-21699602D01*
X8358304Y-21671627D01*
X8427290Y-21682708D01*
X8475502Y-21723515D01*
X8501105Y-21760080D01*
X8524955Y-21794142D01*
X8685858Y-21955045D01*
X8685861Y-21955047D01*
X8872266Y-22085568D01*
X9078504Y-22181739D01*
X9298308Y-22240635D01*
X9460230Y-22254801D01*
X9524998Y-22260468D01*
X9525000Y-22260468D01*
X9525002Y-22260468D01*
X9581784Y-22255500D01*
X9751692Y-22240635D01*
X9971496Y-22181739D01*
X10136952Y-22104585D01*
X11454228Y-22104585D01*
X11618668Y-22181264D01*
X11618682Y-22181269D01*
X11838389Y-22240139D01*
X11838400Y-22240141D01*
X12064998Y-22259966D01*
X12065002Y-22259966D01*
X12291599Y-22240141D01*
X12291610Y-22240139D01*
X12511317Y-22181269D01*
X12511326Y-22181265D01*
X12675769Y-22104584D01*
X12065001Y-21493815D01*
X12065000Y-21493815D01*
X11454228Y-22104585D01*
X10136952Y-22104585D01*
X10177734Y-22085568D01*
X10364139Y-21955047D01*
X10525047Y-21794139D01*
X10655568Y-21607734D01*
X10682893Y-21549134D01*
X10729065Y-21496695D01*
X10796258Y-21477543D01*
X10863139Y-21497758D01*
X10907657Y-21549135D01*
X10915413Y-21565770D01*
X10915414Y-21565770D01*
X11454296Y-21026889D01*
X11565000Y-21026889D01*
X11605507Y-21164844D01*
X11683239Y-21285798D01*
X11791900Y-21379952D01*
X11922685Y-21439680D01*
X12029237Y-21455000D01*
X12100763Y-21455000D01*
X12207315Y-21439680D01*
X12338100Y-21379952D01*
X12446761Y-21285798D01*
X12524493Y-21164844D01*
X12565000Y-21026889D01*
X12565000Y-20955000D01*
X12603815Y-20955000D01*
X13214584Y-21565769D01*
X13222341Y-21549134D01*
X13268513Y-21496695D01*
X13335707Y-21477542D01*
X13402588Y-21497757D01*
X13447105Y-21549132D01*
X13447382Y-21549725D01*
X13474431Y-21607732D01*
X13474432Y-21607734D01*
X13604954Y-21794141D01*
X13765858Y-21955045D01*
X13765861Y-21955047D01*
X13952266Y-22085568D01*
X14158504Y-22181739D01*
X14378308Y-22240635D01*
X14540230Y-22254801D01*
X14604998Y-22260468D01*
X14605000Y-22260468D01*
X14605002Y-22260468D01*
X14661784Y-22255500D01*
X14831692Y-22240635D01*
X15051496Y-22181739D01*
X15257734Y-22085568D01*
X15444139Y-21955047D01*
X15605047Y-21794139D01*
X15735568Y-21607734D01*
X15762618Y-21549724D01*
X15808790Y-21497285D01*
X15875983Y-21478133D01*
X15942865Y-21498348D01*
X15987382Y-21549725D01*
X16014429Y-21607728D01*
X16014432Y-21607734D01*
X16144954Y-21794141D01*
X16305858Y-21955045D01*
X16305861Y-21955047D01*
X16492266Y-22085568D01*
X16698504Y-22181739D01*
X16918308Y-22240635D01*
X17080230Y-22254801D01*
X17144998Y-22260468D01*
X17145000Y-22260468D01*
X17145002Y-22260468D01*
X17201784Y-22255500D01*
X17371692Y-22240635D01*
X17591496Y-22181739D01*
X17797734Y-22085568D01*
X17984139Y-21955047D01*
X18145047Y-21794139D01*
X18194498Y-21723514D01*
X18249071Y-21679892D01*
X18318569Y-21672697D01*
X18380924Y-21704218D01*
X18414456Y-21757749D01*
X18441520Y-21844602D01*
X18441521Y-21844604D01*
X18441522Y-21844606D01*
X18492369Y-21928716D01*
X18529530Y-21990188D01*
X18649811Y-22110469D01*
X18649813Y-22110470D01*
X18649815Y-22110472D01*
X18795394Y-22198478D01*
X18957804Y-22249086D01*
X19028384Y-22255500D01*
X19028387Y-22255500D01*
X20341613Y-22255500D01*
X20341616Y-22255500D01*
X20412196Y-22249086D01*
X20574606Y-22198478D01*
X20720185Y-22110472D01*
X20840472Y-21990185D01*
X20928478Y-21844606D01*
X20955543Y-21757747D01*
X20994279Y-21699602D01*
X21058304Y-21671627D01*
X21127290Y-21682708D01*
X21175502Y-21723515D01*
X21201105Y-21760080D01*
X21224955Y-21794142D01*
X21385858Y-21955045D01*
X21385861Y-21955047D01*
X21572266Y-22085568D01*
X21778504Y-22181739D01*
X21998308Y-22240635D01*
X22160230Y-22254801D01*
X22224998Y-22260468D01*
X22225000Y-22260468D01*
X22225002Y-22260468D01*
X22281784Y-22255500D01*
X22451692Y-22240635D01*
X22671496Y-22181739D01*
X22877734Y-22085568D01*
X23064139Y-21955047D01*
X23225047Y-21794139D01*
X23355568Y-21607734D01*
X23382618Y-21549724D01*
X23428790Y-21497285D01*
X23495983Y-21478133D01*
X23562865Y-21498348D01*
X23607382Y-21549725D01*
X23634429Y-21607728D01*
X23634432Y-21607734D01*
X23764954Y-21794141D01*
X23925858Y-21955045D01*
X23925861Y-21955047D01*
X24112266Y-22085568D01*
X24318504Y-22181739D01*
X24538308Y-22240635D01*
X24700230Y-22254801D01*
X24764998Y-22260468D01*
X24765000Y-22260468D01*
X24765002Y-22260468D01*
X24821784Y-22255500D01*
X24991692Y-22240635D01*
X25211496Y-22181739D01*
X25417734Y-22085568D01*
X25604139Y-21955047D01*
X25765047Y-21794139D01*
X25895568Y-21607734D01*
X25922618Y-21549724D01*
X25968790Y-21497285D01*
X26035983Y-21478133D01*
X26102865Y-21498348D01*
X26147382Y-21549725D01*
X26174429Y-21607728D01*
X26174432Y-21607734D01*
X26304954Y-21794141D01*
X26465858Y-21955045D01*
X26465861Y-21955047D01*
X26652266Y-22085568D01*
X26858504Y-22181739D01*
X27078308Y-22240635D01*
X27240230Y-22254801D01*
X27304998Y-22260468D01*
X27305000Y-22260468D01*
X27305002Y-22260468D01*
X27361784Y-22255500D01*
X27531692Y-22240635D01*
X27751496Y-22181739D01*
X27957734Y-22085568D01*
X28144139Y-21955047D01*
X28305047Y-21794139D01*
X28435568Y-21607734D01*
X28462618Y-21549724D01*
X28508790Y-21497285D01*
X28575983Y-21478133D01*
X28642865Y-21498348D01*
X28687382Y-21549725D01*
X28714429Y-21607728D01*
X28714432Y-21607734D01*
X28844954Y-21794141D01*
X29005858Y-21955045D01*
X29005861Y-21955047D01*
X29192266Y-22085568D01*
X29398504Y-22181739D01*
X29618308Y-22240635D01*
X29780230Y-22254801D01*
X29844998Y-22260468D01*
X29845000Y-22260468D01*
X29845002Y-22260468D01*
X29901784Y-22255500D01*
X30071692Y-22240635D01*
X30291496Y-22181739D01*
X30497734Y-22085568D01*
X30684139Y-21955047D01*
X30845047Y-21794139D01*
X30894498Y-21723514D01*
X30949071Y-21679892D01*
X31018569Y-21672697D01*
X31080924Y-21704218D01*
X31114456Y-21757749D01*
X31141520Y-21844602D01*
X31141521Y-21844604D01*
X31141522Y-21844606D01*
X31192369Y-21928716D01*
X31229530Y-21990188D01*
X31349811Y-22110469D01*
X31349813Y-22110470D01*
X31349815Y-22110472D01*
X31495394Y-22198478D01*
X31657804Y-22249086D01*
X31728384Y-22255500D01*
X31728387Y-22255500D01*
X33041613Y-22255500D01*
X33041616Y-22255500D01*
X33112196Y-22249086D01*
X33274606Y-22198478D01*
X33420185Y-22110472D01*
X33540472Y-21990185D01*
X33628478Y-21844606D01*
X33655543Y-21757747D01*
X33694279Y-21699602D01*
X33758304Y-21671627D01*
X33827290Y-21682708D01*
X33875502Y-21723515D01*
X33901105Y-21760080D01*
X33924955Y-21794142D01*
X34085858Y-21955045D01*
X34085861Y-21955047D01*
X34272266Y-22085568D01*
X34478504Y-22181739D01*
X34698308Y-22240635D01*
X34860230Y-22254801D01*
X34924998Y-22260468D01*
X34925000Y-22260468D01*
X34925002Y-22260468D01*
X34981784Y-22255500D01*
X35151692Y-22240635D01*
X35371496Y-22181739D01*
X35577734Y-22085568D01*
X35764139Y-21955047D01*
X35925047Y-21794139D01*
X36055568Y-21607734D01*
X36082618Y-21549724D01*
X36128790Y-21497285D01*
X36195983Y-21478133D01*
X36262865Y-21498348D01*
X36307382Y-21549725D01*
X36334429Y-21607728D01*
X36334432Y-21607734D01*
X36464954Y-21794141D01*
X36625858Y-21955045D01*
X36625861Y-21955047D01*
X36812266Y-22085568D01*
X37018504Y-22181739D01*
X37238308Y-22240635D01*
X37400230Y-22254801D01*
X37464998Y-22260468D01*
X37465000Y-22260468D01*
X37465002Y-22260468D01*
X37521784Y-22255500D01*
X37691692Y-22240635D01*
X37911496Y-22181739D01*
X38117734Y-22085568D01*
X38304139Y-21955047D01*
X38465047Y-21794139D01*
X38595568Y-21607734D01*
X38622618Y-21549724D01*
X38668790Y-21497285D01*
X38735983Y-21478133D01*
X38802865Y-21498348D01*
X38847382Y-21549725D01*
X38874429Y-21607728D01*
X38874432Y-21607734D01*
X39004954Y-21794141D01*
X39165858Y-21955045D01*
X39165861Y-21955047D01*
X39352266Y-22085568D01*
X39558504Y-22181739D01*
X39778308Y-22240635D01*
X39940230Y-22254801D01*
X40004998Y-22260468D01*
X40005000Y-22260468D01*
X40005002Y-22260468D01*
X40061784Y-22255500D01*
X40231692Y-22240635D01*
X40451496Y-22181739D01*
X40657734Y-22085568D01*
X40844139Y-21955047D01*
X41005047Y-21794139D01*
X41135568Y-21607734D01*
X41162618Y-21549724D01*
X41208790Y-21497285D01*
X41275983Y-21478133D01*
X41342865Y-21498348D01*
X41387382Y-21549725D01*
X41414429Y-21607728D01*
X41414432Y-21607734D01*
X41544954Y-21794141D01*
X41705858Y-21955045D01*
X41705861Y-21955047D01*
X41892266Y-22085568D01*
X42098504Y-22181739D01*
X42318308Y-22240635D01*
X42480230Y-22254801D01*
X42544998Y-22260468D01*
X42545000Y-22260468D01*
X42545002Y-22260468D01*
X42601784Y-22255500D01*
X42771692Y-22240635D01*
X42991496Y-22181739D01*
X43197734Y-22085568D01*
X43384139Y-21955047D01*
X43545047Y-21794139D01*
X43594498Y-21723514D01*
X43649071Y-21679892D01*
X43718569Y-21672697D01*
X43780924Y-21704218D01*
X43814456Y-21757749D01*
X43841520Y-21844602D01*
X43841521Y-21844604D01*
X43841522Y-21844606D01*
X43892369Y-21928716D01*
X43929530Y-21990188D01*
X44049811Y-22110469D01*
X44049813Y-22110470D01*
X44049815Y-22110472D01*
X44195394Y-22198478D01*
X44357804Y-22249086D01*
X44428384Y-22255500D01*
X44428387Y-22255500D01*
X45741613Y-22255500D01*
X45741616Y-22255500D01*
X45812196Y-22249086D01*
X45974606Y-22198478D01*
X46120185Y-22110472D01*
X46240472Y-21990185D01*
X46328478Y-21844606D01*
X46355543Y-21757747D01*
X46394279Y-21699602D01*
X46458304Y-21671627D01*
X46527290Y-21682708D01*
X46575502Y-21723515D01*
X46601105Y-21760080D01*
X46624955Y-21794142D01*
X46785858Y-21955045D01*
X46785861Y-21955047D01*
X46972266Y-22085568D01*
X47178504Y-22181739D01*
X47398308Y-22240635D01*
X47560230Y-22254801D01*
X47624998Y-22260468D01*
X47625000Y-22260468D01*
X47625002Y-22260468D01*
X47681784Y-22255500D01*
X47851692Y-22240635D01*
X48071496Y-22181739D01*
X48277734Y-22085568D01*
X48464139Y-21955047D01*
X48625047Y-21794139D01*
X48755568Y-21607734D01*
X48782618Y-21549724D01*
X48828790Y-21497285D01*
X48895983Y-21478133D01*
X48962865Y-21498348D01*
X49007382Y-21549725D01*
X49034429Y-21607728D01*
X49034432Y-21607734D01*
X49164954Y-21794141D01*
X49325858Y-21955045D01*
X49325861Y-21955047D01*
X49512266Y-22085568D01*
X49718504Y-22181739D01*
X49938308Y-22240635D01*
X50100230Y-22254801D01*
X50164998Y-22260468D01*
X50165000Y-22260468D01*
X50165002Y-22260468D01*
X50221784Y-22255500D01*
X50391692Y-22240635D01*
X50611496Y-22181739D01*
X50817734Y-22085568D01*
X51004139Y-21955047D01*
X51165047Y-21794139D01*
X51295568Y-21607734D01*
X51391739Y-21401496D01*
X51450635Y-21181692D01*
X51459882Y-21076002D01*
X79126726Y-21076002D01*
X79145761Y-21244951D01*
X79183874Y-21353871D01*
X79200539Y-21401497D01*
X79201919Y-21405439D01*
X79259927Y-21497758D01*
X79292376Y-21549400D01*
X79412600Y-21669624D01*
X79556563Y-21760082D01*
X79653899Y-21794141D01*
X79717048Y-21816238D01*
X79885997Y-21835274D01*
X79886000Y-21835274D01*
X79886003Y-21835274D01*
X80054951Y-21816238D01*
X80054954Y-21816237D01*
X80215437Y-21760082D01*
X80359400Y-21669624D01*
X80479624Y-21549400D01*
X80570082Y-21405437D01*
X80626237Y-21244954D01*
X80626237Y-21244953D01*
X80626238Y-21244951D01*
X80645274Y-21076002D01*
X80645274Y-21075997D01*
X80626238Y-20907048D01*
X80612756Y-20868521D01*
X80570082Y-20746563D01*
X80479624Y-20602600D01*
X80359400Y-20482376D01*
X80254058Y-20416185D01*
X80215439Y-20391919D01*
X80215438Y-20391918D01*
X80215437Y-20391918D01*
X80176912Y-20378437D01*
X80054951Y-20335761D01*
X79886003Y-20316726D01*
X79885997Y-20316726D01*
X79717048Y-20335761D01*
X79556560Y-20391919D01*
X79412599Y-20482376D01*
X79292376Y-20602599D01*
X79201919Y-20746560D01*
X79145761Y-20907048D01*
X79126726Y-21075997D01*
X79126726Y-21076002D01*
X51459882Y-21076002D01*
X51470468Y-20955000D01*
X51450635Y-20728308D01*
X51391739Y-20508504D01*
X51295568Y-20302266D01*
X51165047Y-20115861D01*
X51165045Y-20115858D01*
X51004141Y-19954954D01*
X50817734Y-19824432D01*
X50817732Y-19824431D01*
X50611497Y-19728261D01*
X50611488Y-19728258D01*
X50391697Y-19669366D01*
X50391693Y-19669365D01*
X50391692Y-19669365D01*
X50391691Y-19669364D01*
X50391686Y-19669364D01*
X50165002Y-19649532D01*
X50164998Y-19649532D01*
X49938313Y-19669364D01*
X49938302Y-19669366D01*
X49718511Y-19728258D01*
X49718502Y-19728261D01*
X49512267Y-19824431D01*
X49512265Y-19824432D01*
X49325858Y-19954954D01*
X49164954Y-20115858D01*
X49034432Y-20302265D01*
X49034431Y-20302267D01*
X49007382Y-20360275D01*
X48961209Y-20412714D01*
X48894016Y-20431866D01*
X48827135Y-20411650D01*
X48782618Y-20360275D01*
X48771187Y-20335761D01*
X48755568Y-20302266D01*
X48625047Y-20115861D01*
X48625045Y-20115858D01*
X48464141Y-19954954D01*
X48277734Y-19824432D01*
X48277732Y-19824431D01*
X48071497Y-19728261D01*
X48071488Y-19728258D01*
X47851697Y-19669366D01*
X47851693Y-19669365D01*
X47851692Y-19669365D01*
X47851691Y-19669364D01*
X47851686Y-19669364D01*
X47625002Y-19649532D01*
X47624998Y-19649532D01*
X47398313Y-19669364D01*
X47398302Y-19669366D01*
X47178511Y-19728258D01*
X47178502Y-19728261D01*
X46972267Y-19824431D01*
X46972265Y-19824432D01*
X46785858Y-19954954D01*
X46624954Y-20115858D01*
X46575503Y-20186483D01*
X46520926Y-20230108D01*
X46451428Y-20237302D01*
X46389073Y-20205779D01*
X46355543Y-20152250D01*
X46328478Y-20065394D01*
X46240472Y-19919815D01*
X46240470Y-19919813D01*
X46240469Y-19919811D01*
X46120188Y-19799530D01*
X46036823Y-19749134D01*
X45974606Y-19711522D01*
X45812196Y-19660914D01*
X45812194Y-19660913D01*
X45812192Y-19660913D01*
X45762778Y-19656423D01*
X45741616Y-19654500D01*
X44428384Y-19654500D01*
X44409145Y-19656248D01*
X44357807Y-19660913D01*
X44195393Y-19711522D01*
X44049811Y-19799530D01*
X43929530Y-19919811D01*
X43841521Y-20065396D01*
X43814456Y-20152251D01*
X43775719Y-20210398D01*
X43711693Y-20238372D01*
X43642708Y-20227290D01*
X43594497Y-20186483D01*
X43545047Y-20115861D01*
X43545045Y-20115859D01*
X43545044Y-20115857D01*
X43384141Y-19954954D01*
X43197734Y-19824432D01*
X43197732Y-19824431D01*
X42991497Y-19728261D01*
X42991488Y-19728258D01*
X42771697Y-19669366D01*
X42771693Y-19669365D01*
X42771692Y-19669365D01*
X42771691Y-19669364D01*
X42771686Y-19669364D01*
X42545002Y-19649532D01*
X42544998Y-19649532D01*
X42318313Y-19669364D01*
X42318302Y-19669366D01*
X42098511Y-19728258D01*
X42098502Y-19728261D01*
X41892267Y-19824431D01*
X41892265Y-19824432D01*
X41705858Y-19954954D01*
X41544954Y-20115858D01*
X41414432Y-20302265D01*
X41414431Y-20302267D01*
X41387382Y-20360275D01*
X41341209Y-20412714D01*
X41274016Y-20431866D01*
X41207135Y-20411650D01*
X41162618Y-20360275D01*
X41151187Y-20335761D01*
X41135568Y-20302266D01*
X41005047Y-20115861D01*
X41005045Y-20115858D01*
X40844141Y-19954954D01*
X40657734Y-19824432D01*
X40657732Y-19824431D01*
X40451497Y-19728261D01*
X40451488Y-19728258D01*
X40231697Y-19669366D01*
X40231693Y-19669365D01*
X40231692Y-19669365D01*
X40231691Y-19669364D01*
X40231686Y-19669364D01*
X40005002Y-19649532D01*
X40004998Y-19649532D01*
X39778313Y-19669364D01*
X39778302Y-19669366D01*
X39558511Y-19728258D01*
X39558502Y-19728261D01*
X39352267Y-19824431D01*
X39352265Y-19824432D01*
X39165858Y-19954954D01*
X39004954Y-20115858D01*
X38874432Y-20302265D01*
X38874431Y-20302267D01*
X38847382Y-20360275D01*
X38801209Y-20412714D01*
X38734016Y-20431866D01*
X38667135Y-20411650D01*
X38622618Y-20360275D01*
X38611187Y-20335761D01*
X38595568Y-20302266D01*
X38465047Y-20115861D01*
X38465045Y-20115858D01*
X38304141Y-19954954D01*
X38117734Y-19824432D01*
X38117732Y-19824431D01*
X37911497Y-19728261D01*
X37911488Y-19728258D01*
X37691697Y-19669366D01*
X37691693Y-19669365D01*
X37691692Y-19669365D01*
X37691691Y-19669364D01*
X37691686Y-19669364D01*
X37465002Y-19649532D01*
X37464998Y-19649532D01*
X37238313Y-19669364D01*
X37238302Y-19669366D01*
X37018511Y-19728258D01*
X37018502Y-19728261D01*
X36812267Y-19824431D01*
X36812265Y-19824432D01*
X36625858Y-19954954D01*
X36464954Y-20115858D01*
X36334432Y-20302265D01*
X36334431Y-20302267D01*
X36307382Y-20360275D01*
X36261209Y-20412714D01*
X36194016Y-20431866D01*
X36127135Y-20411650D01*
X36082618Y-20360275D01*
X36071187Y-20335761D01*
X36055568Y-20302266D01*
X35925047Y-20115861D01*
X35925045Y-20115858D01*
X35764141Y-19954954D01*
X35577734Y-19824432D01*
X35577732Y-19824431D01*
X35371497Y-19728261D01*
X35371488Y-19728258D01*
X35151697Y-19669366D01*
X35151693Y-19669365D01*
X35151692Y-19669365D01*
X35151691Y-19669364D01*
X35151686Y-19669364D01*
X34925002Y-19649532D01*
X34924998Y-19649532D01*
X34698313Y-19669364D01*
X34698302Y-19669366D01*
X34478511Y-19728258D01*
X34478502Y-19728261D01*
X34272267Y-19824431D01*
X34272265Y-19824432D01*
X34085858Y-19954954D01*
X33924954Y-20115858D01*
X33875503Y-20186483D01*
X33820926Y-20230108D01*
X33751428Y-20237302D01*
X33689073Y-20205779D01*
X33655543Y-20152250D01*
X33628478Y-20065394D01*
X33540472Y-19919815D01*
X33540470Y-19919813D01*
X33540469Y-19919811D01*
X33420188Y-19799530D01*
X33336823Y-19749134D01*
X33274606Y-19711522D01*
X33112196Y-19660914D01*
X33112194Y-19660913D01*
X33112192Y-19660913D01*
X33062778Y-19656423D01*
X33041616Y-19654500D01*
X31728384Y-19654500D01*
X31709145Y-19656248D01*
X31657807Y-19660913D01*
X31495393Y-19711522D01*
X31349811Y-19799530D01*
X31229530Y-19919811D01*
X31141521Y-20065396D01*
X31114456Y-20152251D01*
X31075719Y-20210398D01*
X31011693Y-20238372D01*
X30942708Y-20227290D01*
X30894497Y-20186483D01*
X30845047Y-20115861D01*
X30845045Y-20115859D01*
X30845044Y-20115857D01*
X30684141Y-19954954D01*
X30497734Y-19824432D01*
X30497732Y-19824431D01*
X30291497Y-19728261D01*
X30291488Y-19728258D01*
X30071697Y-19669366D01*
X30071693Y-19669365D01*
X30071692Y-19669365D01*
X30071691Y-19669364D01*
X30071686Y-19669364D01*
X29845002Y-19649532D01*
X29844998Y-19649532D01*
X29618313Y-19669364D01*
X29618302Y-19669366D01*
X29398511Y-19728258D01*
X29398502Y-19728261D01*
X29192267Y-19824431D01*
X29192265Y-19824432D01*
X29005858Y-19954954D01*
X28844954Y-20115858D01*
X28714432Y-20302265D01*
X28714431Y-20302267D01*
X28687382Y-20360275D01*
X28641209Y-20412714D01*
X28574016Y-20431866D01*
X28507135Y-20411650D01*
X28462618Y-20360275D01*
X28451187Y-20335761D01*
X28435568Y-20302266D01*
X28305047Y-20115861D01*
X28305045Y-20115858D01*
X28144141Y-19954954D01*
X27957734Y-19824432D01*
X27957732Y-19824431D01*
X27751497Y-19728261D01*
X27751488Y-19728258D01*
X27531697Y-19669366D01*
X27531693Y-19669365D01*
X27531692Y-19669365D01*
X27531691Y-19669364D01*
X27531686Y-19669364D01*
X27305002Y-19649532D01*
X27304998Y-19649532D01*
X27078313Y-19669364D01*
X27078302Y-19669366D01*
X26858511Y-19728258D01*
X26858502Y-19728261D01*
X26652267Y-19824431D01*
X26652265Y-19824432D01*
X26465858Y-19954954D01*
X26304954Y-20115858D01*
X26174432Y-20302265D01*
X26174431Y-20302267D01*
X26147382Y-20360275D01*
X26101209Y-20412714D01*
X26034016Y-20431866D01*
X25967135Y-20411650D01*
X25922618Y-20360275D01*
X25911187Y-20335761D01*
X25895568Y-20302266D01*
X25765047Y-20115861D01*
X25765045Y-20115858D01*
X25604141Y-19954954D01*
X25417734Y-19824432D01*
X25417732Y-19824431D01*
X25211497Y-19728261D01*
X25211488Y-19728258D01*
X24991697Y-19669366D01*
X24991693Y-19669365D01*
X24991692Y-19669365D01*
X24991691Y-19669364D01*
X24991686Y-19669364D01*
X24765002Y-19649532D01*
X24764998Y-19649532D01*
X24538313Y-19669364D01*
X24538302Y-19669366D01*
X24318511Y-19728258D01*
X24318502Y-19728261D01*
X24112267Y-19824431D01*
X24112265Y-19824432D01*
X23925858Y-19954954D01*
X23764954Y-20115858D01*
X23634432Y-20302265D01*
X23634431Y-20302267D01*
X23607382Y-20360275D01*
X23561209Y-20412714D01*
X23494016Y-20431866D01*
X23427135Y-20411650D01*
X23382618Y-20360275D01*
X23371187Y-20335761D01*
X23355568Y-20302266D01*
X23225047Y-20115861D01*
X23225045Y-20115858D01*
X23064141Y-19954954D01*
X22877734Y-19824432D01*
X22877732Y-19824431D01*
X22671497Y-19728261D01*
X22671488Y-19728258D01*
X22451697Y-19669366D01*
X22451693Y-19669365D01*
X22451692Y-19669365D01*
X22451691Y-19669364D01*
X22451686Y-19669364D01*
X22225002Y-19649532D01*
X22224998Y-19649532D01*
X21998313Y-19669364D01*
X21998302Y-19669366D01*
X21778511Y-19728258D01*
X21778502Y-19728261D01*
X21572267Y-19824431D01*
X21572265Y-19824432D01*
X21385858Y-19954954D01*
X21224954Y-20115858D01*
X21175503Y-20186483D01*
X21120926Y-20230108D01*
X21051428Y-20237302D01*
X20989073Y-20205779D01*
X20955543Y-20152250D01*
X20928478Y-20065394D01*
X20840472Y-19919815D01*
X20840470Y-19919813D01*
X20840469Y-19919811D01*
X20720188Y-19799530D01*
X20636823Y-19749134D01*
X20574606Y-19711522D01*
X20412196Y-19660914D01*
X20412194Y-19660913D01*
X20412192Y-19660913D01*
X20362778Y-19656423D01*
X20341616Y-19654500D01*
X19028384Y-19654500D01*
X19009145Y-19656248D01*
X18957807Y-19660913D01*
X18795393Y-19711522D01*
X18649811Y-19799530D01*
X18529530Y-19919811D01*
X18441521Y-20065396D01*
X18414456Y-20152251D01*
X18375719Y-20210398D01*
X18311693Y-20238372D01*
X18242708Y-20227290D01*
X18194497Y-20186483D01*
X18145047Y-20115861D01*
X18145045Y-20115859D01*
X18145044Y-20115857D01*
X17984141Y-19954954D01*
X17797734Y-19824432D01*
X17797732Y-19824431D01*
X17591497Y-19728261D01*
X17591488Y-19728258D01*
X17371697Y-19669366D01*
X17371693Y-19669365D01*
X17371692Y-19669365D01*
X17371691Y-19669364D01*
X17371686Y-19669364D01*
X17145002Y-19649532D01*
X17144998Y-19649532D01*
X16918313Y-19669364D01*
X16918302Y-19669366D01*
X16698511Y-19728258D01*
X16698502Y-19728261D01*
X16492267Y-19824431D01*
X16492265Y-19824432D01*
X16305858Y-19954954D01*
X16144954Y-20115858D01*
X16014432Y-20302265D01*
X16014431Y-20302267D01*
X15987382Y-20360275D01*
X15941209Y-20412714D01*
X15874016Y-20431866D01*
X15807135Y-20411650D01*
X15762618Y-20360275D01*
X15751187Y-20335761D01*
X15735568Y-20302266D01*
X15605047Y-20115861D01*
X15605045Y-20115858D01*
X15444141Y-19954954D01*
X15257734Y-19824432D01*
X15257732Y-19824431D01*
X15051497Y-19728261D01*
X15051488Y-19728258D01*
X14831697Y-19669366D01*
X14831693Y-19669365D01*
X14831692Y-19669365D01*
X14831691Y-19669364D01*
X14831686Y-19669364D01*
X14605002Y-19649532D01*
X14604998Y-19649532D01*
X14378313Y-19669364D01*
X14378302Y-19669366D01*
X14158511Y-19728258D01*
X14158502Y-19728261D01*
X13952267Y-19824431D01*
X13952265Y-19824432D01*
X13765858Y-19954954D01*
X13604954Y-20115858D01*
X13474432Y-20302265D01*
X13474428Y-20302272D01*
X13447105Y-20360866D01*
X13400932Y-20413305D01*
X13333738Y-20432456D01*
X13266858Y-20412239D01*
X13222342Y-20360864D01*
X13214585Y-20344228D01*
X12603815Y-20954999D01*
X12603815Y-20955000D01*
X12565000Y-20955000D01*
X12565000Y-20883111D01*
X12524493Y-20745156D01*
X12446761Y-20624202D01*
X12338100Y-20530048D01*
X12207315Y-20470320D01*
X12100763Y-20455000D01*
X12029237Y-20455000D01*
X11922685Y-20470320D01*
X11791900Y-20530048D01*
X11683239Y-20624202D01*
X11605507Y-20745156D01*
X11565000Y-20883111D01*
X11565000Y-21026889D01*
X11454296Y-21026889D01*
X11526185Y-20955000D01*
X10915413Y-20344228D01*
X10907656Y-20360864D01*
X10861484Y-20413303D01*
X10794290Y-20432455D01*
X10727409Y-20412239D01*
X10682892Y-20360863D01*
X10655570Y-20302272D01*
X10655568Y-20302266D01*
X10525047Y-20115861D01*
X10525045Y-20115858D01*
X10364141Y-19954954D01*
X10177734Y-19824432D01*
X10177732Y-19824431D01*
X10136948Y-19805413D01*
X11454228Y-19805413D01*
X12065000Y-20416185D01*
X12065001Y-20416185D01*
X12675770Y-19805414D01*
X12675770Y-19805413D01*
X12511331Y-19728735D01*
X12511317Y-19728730D01*
X12291610Y-19669860D01*
X12291599Y-19669858D01*
X12065002Y-19650034D01*
X12064998Y-19650034D01*
X11838400Y-19669858D01*
X11838389Y-19669860D01*
X11618680Y-19728731D01*
X11454228Y-19805413D01*
X10136948Y-19805413D01*
X9971497Y-19728261D01*
X9971488Y-19728258D01*
X9751697Y-19669366D01*
X9751693Y-19669365D01*
X9751692Y-19669365D01*
X9751691Y-19669364D01*
X9751686Y-19669364D01*
X9525002Y-19649532D01*
X9524998Y-19649532D01*
X9298313Y-19669364D01*
X9298302Y-19669366D01*
X9078511Y-19728258D01*
X9078502Y-19728261D01*
X8872267Y-19824431D01*
X8872265Y-19824432D01*
X8685858Y-19954954D01*
X8524954Y-20115858D01*
X8475503Y-20186483D01*
X8420926Y-20230108D01*
X8351428Y-20237302D01*
X8289073Y-20205779D01*
X8255543Y-20152250D01*
X8228478Y-20065394D01*
X8140472Y-19919815D01*
X8140470Y-19919813D01*
X8140469Y-19919811D01*
X8020188Y-19799530D01*
X7936823Y-19749134D01*
X7874606Y-19711522D01*
X7712196Y-19660914D01*
X7712194Y-19660913D01*
X7712192Y-19660913D01*
X7662778Y-19656423D01*
X7641616Y-19654500D01*
X6328384Y-19654500D01*
X6309145Y-19656248D01*
X6257807Y-19660913D01*
X6095393Y-19711522D01*
X5949811Y-19799530D01*
X5829530Y-19919811D01*
X5741521Y-20065396D01*
X5714456Y-20152251D01*
X5675719Y-20210398D01*
X5611693Y-20238372D01*
X5542708Y-20227290D01*
X5494497Y-20186483D01*
X5445047Y-20115861D01*
X5445045Y-20115859D01*
X5445044Y-20115857D01*
X5284141Y-19954954D01*
X5097734Y-19824432D01*
X5097732Y-19824431D01*
X4891497Y-19728261D01*
X4891488Y-19728258D01*
X4671697Y-19669366D01*
X4671693Y-19669365D01*
X4671692Y-19669365D01*
X4671691Y-19669364D01*
X4671686Y-19669364D01*
X4445002Y-19649532D01*
X4444998Y-19649532D01*
X4218313Y-19669364D01*
X4218302Y-19669366D01*
X3998511Y-19728258D01*
X3998502Y-19728261D01*
X3792267Y-19824431D01*
X3792265Y-19824432D01*
X3605858Y-19954954D01*
X3444953Y-20115859D01*
X3356880Y-20241642D01*
X3302303Y-20285267D01*
X3232805Y-20292461D01*
X3170450Y-20260938D01*
X3151497Y-20238341D01*
X3041695Y-20070278D01*
X3041694Y-20070276D01*
X2880570Y-19895249D01*
X2880569Y-19895248D01*
X2880567Y-19895246D01*
X2880563Y-19895243D01*
X2692843Y-19749134D01*
X2692837Y-19749130D01*
X2483611Y-19635902D01*
X2483602Y-19635899D01*
X2258604Y-19558656D01*
X2023949Y-19519500D01*
X1786051Y-19519500D01*
X1551395Y-19558656D01*
X1326397Y-19635899D01*
X1326388Y-19635902D01*
X1117162Y-19749130D01*
X1117156Y-19749134D01*
X929436Y-19895243D01*
X929426Y-19895252D01*
X850229Y-19981283D01*
X790342Y-20017274D01*
X720504Y-20015173D01*
X662888Y-19975649D01*
X635787Y-19911249D01*
X635000Y-19897300D01*
X635000Y-18161002D01*
X51754824Y-18161002D01*
X51775461Y-18344171D01*
X51821729Y-18476396D01*
X51836344Y-18518163D01*
X51934415Y-18674242D01*
X52064758Y-18804585D01*
X52220837Y-18902656D01*
X52353059Y-18948922D01*
X52394828Y-18963538D01*
X52577997Y-18984176D01*
X52578000Y-18984176D01*
X52578003Y-18984176D01*
X52761171Y-18963538D01*
X52761174Y-18963537D01*
X52935163Y-18902656D01*
X53091242Y-18804585D01*
X53221585Y-18674242D01*
X53319656Y-18518163D01*
X53380537Y-18344174D01*
X53380537Y-18344173D01*
X53380538Y-18344171D01*
X53401176Y-18161002D01*
X53401176Y-18160997D01*
X53380538Y-17977828D01*
X53365922Y-17936059D01*
X53319656Y-17803837D01*
X53221585Y-17647758D01*
X53091242Y-17517415D01*
X52935163Y-17419344D01*
X52893396Y-17404729D01*
X52761171Y-17358461D01*
X52578003Y-17337824D01*
X52577997Y-17337824D01*
X52394828Y-17358461D01*
X52220834Y-17419345D01*
X52064757Y-17517415D01*
X51934415Y-17647757D01*
X51836345Y-17803834D01*
X51775461Y-17977828D01*
X51754824Y-18160997D01*
X51754824Y-18161002D01*
X635000Y-18161002D01*
X635000Y-14605002D01*
X19496824Y-14605002D01*
X19517461Y-14788171D01*
X19563729Y-14920396D01*
X19578344Y-14962163D01*
X19676415Y-15118242D01*
X19806758Y-15248585D01*
X19962837Y-15346656D01*
X20095059Y-15392922D01*
X20136828Y-15407538D01*
X20319997Y-15428176D01*
X20320000Y-15428176D01*
X20320003Y-15428176D01*
X20503171Y-15407538D01*
X20503174Y-15407537D01*
X20677163Y-15346656D01*
X20833242Y-15248585D01*
X20963585Y-15118242D01*
X21061656Y-14962163D01*
X21122537Y-14788174D01*
X21122537Y-14788173D01*
X21122538Y-14788171D01*
X21143176Y-14605002D01*
X21143176Y-14604997D01*
X21122538Y-14421828D01*
X21107922Y-14380059D01*
X21061656Y-14247837D01*
X20963585Y-14091758D01*
X20833242Y-13961415D01*
X20677163Y-13863344D01*
X20635396Y-13848729D01*
X20503171Y-13802461D01*
X20320003Y-13781824D01*
X20319997Y-13781824D01*
X20136828Y-13802461D01*
X19962834Y-13863345D01*
X19806757Y-13961415D01*
X19676415Y-14091757D01*
X19578345Y-14247834D01*
X19517461Y-14421828D01*
X19496824Y-14604997D01*
X19496824Y-14605002D01*
X635000Y-14605002D01*
X635000Y-13081002D01*
X29656824Y-13081002D01*
X29677461Y-13264171D01*
X29702254Y-13335023D01*
X29738344Y-13438163D01*
X29836415Y-13594242D01*
X29966758Y-13724585D01*
X30122837Y-13822656D01*
X30255059Y-13868922D01*
X30296828Y-13883538D01*
X30479997Y-13904176D01*
X30480000Y-13904176D01*
X30480003Y-13904176D01*
X30663171Y-13883538D01*
X30690329Y-13874035D01*
X30837163Y-13822656D01*
X30993242Y-13724585D01*
X31123585Y-13594242D01*
X31221656Y-13438163D01*
X31282537Y-13264174D01*
X31282537Y-13264173D01*
X31282538Y-13264171D01*
X31303176Y-13081002D01*
X34736824Y-13081002D01*
X34757461Y-13264171D01*
X34782254Y-13335023D01*
X34818344Y-13438163D01*
X34916415Y-13594242D01*
X35046758Y-13724585D01*
X35202837Y-13822656D01*
X35335059Y-13868922D01*
X35376828Y-13883538D01*
X35559997Y-13904176D01*
X35560000Y-13904176D01*
X35560003Y-13904176D01*
X35743171Y-13883538D01*
X35770329Y-13874035D01*
X35917163Y-13822656D01*
X36073242Y-13724585D01*
X36203585Y-13594242D01*
X36301656Y-13438163D01*
X36362537Y-13264174D01*
X36362537Y-13264173D01*
X36362538Y-13264171D01*
X36383176Y-13081002D01*
X36383176Y-13080997D01*
X36362538Y-12897828D01*
X36347922Y-12856059D01*
X36301656Y-12723837D01*
X36286678Y-12700000D01*
X71034341Y-12700000D01*
X71054936Y-12935403D01*
X71054938Y-12935413D01*
X71116094Y-13163655D01*
X71116096Y-13163659D01*
X71116097Y-13163663D01*
X71120000Y-13172032D01*
X71215965Y-13377830D01*
X71215967Y-13377834D01*
X71258212Y-13438165D01*
X71351505Y-13571401D01*
X71518599Y-13738495D01*
X71580479Y-13781824D01*
X71712165Y-13874032D01*
X71712167Y-13874033D01*
X71712170Y-13874035D01*
X71926337Y-13973903D01*
X72154592Y-14035063D01*
X72342918Y-14051539D01*
X72389999Y-14055659D01*
X72390000Y-14055659D01*
X72390001Y-14055659D01*
X72429234Y-14052226D01*
X72625408Y-14035063D01*
X72853663Y-13973903D01*
X73067830Y-13874035D01*
X73261401Y-13738495D01*
X73428495Y-13571401D01*
X73558425Y-13385842D01*
X73613002Y-13342217D01*
X73682500Y-13335023D01*
X73744855Y-13366546D01*
X73761575Y-13385842D01*
X73891500Y-13571395D01*
X73891505Y-13571401D01*
X74058599Y-13738495D01*
X74120479Y-13781824D01*
X74252165Y-13874032D01*
X74252167Y-13874033D01*
X74252170Y-13874035D01*
X74466337Y-13973903D01*
X74694592Y-14035063D01*
X74882918Y-14051539D01*
X74929999Y-14055659D01*
X74930000Y-14055659D01*
X74930001Y-14055659D01*
X74969234Y-14052226D01*
X75165408Y-14035063D01*
X75393663Y-13973903D01*
X75607830Y-13874035D01*
X75801401Y-13738495D01*
X75968495Y-13571401D01*
X76104035Y-13377830D01*
X76203903Y-13163663D01*
X76265063Y-12935408D01*
X76285659Y-12700000D01*
X76265063Y-12464592D01*
X76218626Y-12291285D01*
X76203905Y-12236344D01*
X76203904Y-12236343D01*
X76203903Y-12236337D01*
X76104035Y-12022171D01*
X76098425Y-12014158D01*
X75968494Y-11828597D01*
X75801402Y-11661506D01*
X75801396Y-11661501D01*
X75615842Y-11531575D01*
X75572217Y-11476998D01*
X75565023Y-11407500D01*
X75596546Y-11345145D01*
X75615842Y-11328425D01*
X75638026Y-11312891D01*
X75801401Y-11198495D01*
X75968495Y-11031401D01*
X76104035Y-10837830D01*
X76203903Y-10623663D01*
X76265063Y-10395408D01*
X76285659Y-10160000D01*
X76265063Y-9924592D01*
X76203903Y-9696337D01*
X76104035Y-9482171D01*
X76087410Y-9458427D01*
X75968494Y-9288597D01*
X75801402Y-9121506D01*
X75801395Y-9121501D01*
X75607834Y-8985967D01*
X75607830Y-8985965D01*
X75607828Y-8985964D01*
X75393663Y-8886097D01*
X75393659Y-8886096D01*
X75393655Y-8886094D01*
X75165413Y-8824938D01*
X75165403Y-8824936D01*
X74930001Y-8804341D01*
X74929999Y-8804341D01*
X74694596Y-8824936D01*
X74694586Y-8824938D01*
X74466344Y-8886094D01*
X74466335Y-8886098D01*
X74252171Y-8985964D01*
X74252169Y-8985965D01*
X74058600Y-9121503D01*
X73936673Y-9243430D01*
X73875350Y-9276914D01*
X73805658Y-9271930D01*
X73749725Y-9230058D01*
X73732810Y-9199081D01*
X73683797Y-9067671D01*
X73683793Y-9067664D01*
X73597547Y-8952455D01*
X73597544Y-8952452D01*
X73482335Y-8866206D01*
X73482328Y-8866202D01*
X73347482Y-8815908D01*
X73347483Y-8815908D01*
X73287883Y-8809501D01*
X73287881Y-8809500D01*
X73287873Y-8809500D01*
X73287864Y-8809500D01*
X71492129Y-8809500D01*
X71492123Y-8809501D01*
X71432516Y-8815908D01*
X71297671Y-8866202D01*
X71297664Y-8866206D01*
X71182455Y-8952452D01*
X71182452Y-8952455D01*
X71096206Y-9067664D01*
X71096202Y-9067671D01*
X71045908Y-9202517D01*
X71039501Y-9262116D01*
X71039500Y-9262135D01*
X71039500Y-11057870D01*
X71039501Y-11057876D01*
X71045908Y-11117483D01*
X71096202Y-11252328D01*
X71096206Y-11252335D01*
X71182452Y-11367544D01*
X71182455Y-11367547D01*
X71297664Y-11453793D01*
X71297671Y-11453797D01*
X71429081Y-11502810D01*
X71485015Y-11544681D01*
X71509432Y-11610145D01*
X71494580Y-11678418D01*
X71473430Y-11706673D01*
X71351503Y-11828600D01*
X71215965Y-12022169D01*
X71215964Y-12022171D01*
X71116098Y-12236335D01*
X71116094Y-12236344D01*
X71054938Y-12464586D01*
X71054936Y-12464596D01*
X71034341Y-12699999D01*
X71034341Y-12700000D01*
X36286678Y-12700000D01*
X36203585Y-12567758D01*
X36073242Y-12437415D01*
X35917163Y-12339344D01*
X35875396Y-12324729D01*
X35743171Y-12278461D01*
X35560003Y-12257824D01*
X35559997Y-12257824D01*
X35376828Y-12278461D01*
X35202834Y-12339345D01*
X35046757Y-12437415D01*
X34916415Y-12567757D01*
X34818345Y-12723834D01*
X34757461Y-12897828D01*
X34736824Y-13080997D01*
X34736824Y-13081002D01*
X31303176Y-13081002D01*
X31303176Y-13080997D01*
X31282538Y-12897828D01*
X31267922Y-12856059D01*
X31221656Y-12723837D01*
X31123585Y-12567758D01*
X30993242Y-12437415D01*
X30837163Y-12339344D01*
X30795396Y-12324729D01*
X30663171Y-12278461D01*
X30480003Y-12257824D01*
X30479997Y-12257824D01*
X30296828Y-12278461D01*
X30122834Y-12339345D01*
X29966757Y-12437415D01*
X29836415Y-12567757D01*
X29738345Y-12723834D01*
X29677461Y-12897828D01*
X29656824Y-13080997D01*
X29656824Y-13081002D01*
X635000Y-13081002D01*
X635000Y-7213276D01*
X654685Y-7146237D01*
X707489Y-7100482D01*
X776647Y-7090538D01*
X840203Y-7119563D01*
X872435Y-7163191D01*
X876748Y-7172961D01*
X876757Y-7172978D01*
X1087792Y-7551859D01*
X1087796Y-7551866D01*
X1087797Y-7551867D01*
X1332902Y-7909677D01*
X1332904Y-7909679D01*
X1332911Y-7909689D01*
X1560841Y-8184174D01*
X1609976Y-8243345D01*
X1916655Y-8550024D01*
X1916666Y-8550033D01*
X2250310Y-8827088D01*
X2250316Y-8827092D01*
X2250323Y-8827098D01*
X2608133Y-9072203D01*
X2987031Y-9283248D01*
X2987048Y-9283255D01*
X2987049Y-9283256D01*
X3383770Y-9458427D01*
X3383774Y-9458428D01*
X3383776Y-9458428D01*
X3383786Y-9458433D01*
X3795013Y-9596262D01*
X4217202Y-9695560D01*
X4646753Y-9755480D01*
X4971634Y-9770500D01*
X4971637Y-9770500D01*
X5188363Y-9770500D01*
X5188366Y-9770500D01*
X5513247Y-9755480D01*
X5942798Y-9695560D01*
X6364987Y-9596262D01*
X6776214Y-9458433D01*
X6776225Y-9458427D01*
X6776229Y-9458427D01*
X7020397Y-9350615D01*
X7172969Y-9283248D01*
X7194955Y-9271002D01*
X29656824Y-9271002D01*
X29677461Y-9454171D01*
X29738345Y-9628165D01*
X29781185Y-9696344D01*
X29836415Y-9784242D01*
X29966758Y-9914585D01*
X30122837Y-10012656D01*
X30255059Y-10058922D01*
X30296828Y-10073538D01*
X30479997Y-10094176D01*
X30480000Y-10094176D01*
X30480003Y-10094176D01*
X30663171Y-10073538D01*
X30663174Y-10073537D01*
X30837163Y-10012656D01*
X30993242Y-9914585D01*
X31123585Y-9784242D01*
X31221656Y-9628163D01*
X31282537Y-9454174D01*
X31282537Y-9454173D01*
X31282538Y-9454171D01*
X31303176Y-9271002D01*
X31303176Y-9270997D01*
X31282538Y-9087828D01*
X31246895Y-8985967D01*
X31221656Y-8913837D01*
X31123585Y-8757758D01*
X30993242Y-8627415D01*
X30837165Y-8529345D01*
X30837164Y-8529344D01*
X30837163Y-8529344D01*
X30794004Y-8514242D01*
X30663171Y-8468461D01*
X30480003Y-8447824D01*
X30479997Y-8447824D01*
X30296828Y-8468461D01*
X30122834Y-8529345D01*
X29966757Y-8627415D01*
X29836415Y-8757757D01*
X29738345Y-8913834D01*
X29677461Y-9087828D01*
X29656824Y-9270997D01*
X29656824Y-9271002D01*
X7194955Y-9271002D01*
X7551867Y-9072203D01*
X7909677Y-8827098D01*
X8243345Y-8550024D01*
X8550024Y-8243345D01*
X8751263Y-8001002D01*
X34736824Y-8001002D01*
X34757461Y-8184171D01*
X34778170Y-8243353D01*
X34818344Y-8358163D01*
X34916415Y-8514242D01*
X35046758Y-8644585D01*
X35202837Y-8742656D01*
X35335059Y-8788922D01*
X35376828Y-8803538D01*
X35559997Y-8824176D01*
X35560000Y-8824176D01*
X35560003Y-8824176D01*
X35743171Y-8803538D01*
X35743174Y-8803537D01*
X35917163Y-8742656D01*
X36073242Y-8644585D01*
X36203585Y-8514242D01*
X36301656Y-8358163D01*
X36362537Y-8184174D01*
X36362537Y-8184173D01*
X36362538Y-8184171D01*
X36383176Y-8001002D01*
X36383176Y-8000997D01*
X36362538Y-7817828D01*
X36347922Y-7776059D01*
X36301656Y-7643837D01*
X36203585Y-7487758D01*
X36073242Y-7357415D01*
X35917163Y-7259344D01*
X35875396Y-7244729D01*
X35743171Y-7198461D01*
X35560003Y-7177824D01*
X35559997Y-7177824D01*
X35376828Y-7198461D01*
X35202834Y-7259345D01*
X35046757Y-7357415D01*
X34916415Y-7487757D01*
X34818345Y-7643834D01*
X34757461Y-7817828D01*
X34736824Y-8000997D01*
X34736824Y-8001002D01*
X8751263Y-8001002D01*
X8827098Y-7909677D01*
X9072203Y-7551867D01*
X9283248Y-7172969D01*
X9350615Y-7020397D01*
X9458427Y-6776229D01*
X9458428Y-6776225D01*
X9458433Y-6776214D01*
X9596262Y-6364987D01*
X9695560Y-5942798D01*
X9755480Y-5513247D01*
X9757895Y-5461000D01*
X43100000Y-5461000D01*
X43100000Y-5977844D01*
X43106401Y-6037372D01*
X43106403Y-6037379D01*
X43156645Y-6172086D01*
X43156649Y-6172093D01*
X43242809Y-6287187D01*
X43242812Y-6287190D01*
X43357906Y-6373350D01*
X43357913Y-6373354D01*
X43492620Y-6423596D01*
X43492627Y-6423598D01*
X43552155Y-6429999D01*
X43552172Y-6430000D01*
X44069000Y-6430000D01*
X44069000Y-5461000D01*
X43100000Y-5461000D01*
X9757895Y-5461000D01*
X9772186Y-5151889D01*
X43950000Y-5151889D01*
X43990507Y-5289844D01*
X44068239Y-5410798D01*
X44176900Y-5504952D01*
X44307685Y-5564680D01*
X44414237Y-5580000D01*
X44485763Y-5580000D01*
X44592315Y-5564680D01*
X44723100Y-5504952D01*
X44831000Y-5411457D01*
X44831000Y-6430000D01*
X45347828Y-6430000D01*
X45347844Y-6429999D01*
X45407372Y-6423598D01*
X45407379Y-6423596D01*
X45542086Y-6373354D01*
X45542093Y-6373350D01*
X45657187Y-6287190D01*
X45657190Y-6287187D01*
X45743350Y-6172093D01*
X45743354Y-6172086D01*
X45792422Y-6040529D01*
X45834293Y-5984595D01*
X45899757Y-5960178D01*
X45968030Y-5975030D01*
X45996285Y-5996181D01*
X46118599Y-6118495D01*
X46195135Y-6172086D01*
X46312165Y-6254032D01*
X46312167Y-6254033D01*
X46312170Y-6254035D01*
X46526337Y-6353903D01*
X46526343Y-6353904D01*
X46526344Y-6353905D01*
X46581285Y-6368626D01*
X46754592Y-6415063D01*
X46925319Y-6430000D01*
X46989999Y-6435659D01*
X46990000Y-6435659D01*
X46990001Y-6435659D01*
X47054681Y-6430000D01*
X47225408Y-6415063D01*
X47453663Y-6353903D01*
X47667830Y-6254035D01*
X47861401Y-6118495D01*
X48028495Y-5951401D01*
X48158425Y-5765842D01*
X48213002Y-5722217D01*
X48282500Y-5715023D01*
X48344855Y-5746546D01*
X48361575Y-5765842D01*
X48491500Y-5951395D01*
X48491505Y-5951401D01*
X48658599Y-6118495D01*
X48735135Y-6172086D01*
X48852165Y-6254032D01*
X48852167Y-6254033D01*
X48852170Y-6254035D01*
X49066337Y-6353903D01*
X49066343Y-6353904D01*
X49066344Y-6353905D01*
X49121285Y-6368626D01*
X49294592Y-6415063D01*
X49465319Y-6430000D01*
X49529999Y-6435659D01*
X49530000Y-6435659D01*
X49530001Y-6435659D01*
X49594681Y-6430000D01*
X49765408Y-6415063D01*
X49993663Y-6353903D01*
X50207830Y-6254035D01*
X50401401Y-6118495D01*
X50568495Y-5951401D01*
X50698425Y-5765842D01*
X50753002Y-5722217D01*
X50822500Y-5715023D01*
X50884855Y-5746546D01*
X50901575Y-5765842D01*
X51031500Y-5951395D01*
X51031505Y-5951401D01*
X51198599Y-6118495D01*
X51275135Y-6172086D01*
X51392165Y-6254032D01*
X51392167Y-6254033D01*
X51392170Y-6254035D01*
X51606337Y-6353903D01*
X51606343Y-6353904D01*
X51606344Y-6353905D01*
X51661285Y-6368626D01*
X51834592Y-6415063D01*
X52005319Y-6430000D01*
X52069999Y-6435659D01*
X52070000Y-6435659D01*
X52070001Y-6435659D01*
X52134681Y-6430000D01*
X52305408Y-6415063D01*
X52533663Y-6353903D01*
X52747830Y-6254035D01*
X52941401Y-6118495D01*
X53108495Y-5951401D01*
X53244035Y-5757830D01*
X53343903Y-5543663D01*
X53366052Y-5461000D01*
X65960000Y-5461000D01*
X65960000Y-5977844D01*
X65966401Y-6037372D01*
X65966403Y-6037379D01*
X66016645Y-6172086D01*
X66016649Y-6172093D01*
X66102809Y-6287187D01*
X66102812Y-6287190D01*
X66217906Y-6373350D01*
X66217913Y-6373354D01*
X66352620Y-6423596D01*
X66352627Y-6423598D01*
X66412155Y-6429999D01*
X66412172Y-6430000D01*
X66929000Y-6430000D01*
X66929000Y-5461000D01*
X65960000Y-5461000D01*
X53366052Y-5461000D01*
X53405063Y-5315408D01*
X53419369Y-5151889D01*
X66810000Y-5151889D01*
X66850507Y-5289844D01*
X66928239Y-5410798D01*
X67036900Y-5504952D01*
X67167685Y-5564680D01*
X67274237Y-5580000D01*
X67345763Y-5580000D01*
X67452315Y-5564680D01*
X67583100Y-5504952D01*
X67691000Y-5411457D01*
X67691000Y-6430000D01*
X68207828Y-6430000D01*
X68207844Y-6429999D01*
X68267372Y-6423598D01*
X68267379Y-6423596D01*
X68402086Y-6373354D01*
X68402093Y-6373350D01*
X68517187Y-6287190D01*
X68517190Y-6287187D01*
X68603350Y-6172093D01*
X68603354Y-6172086D01*
X68652422Y-6040529D01*
X68694293Y-5984595D01*
X68759757Y-5960178D01*
X68828030Y-5975030D01*
X68856285Y-5996181D01*
X68978599Y-6118495D01*
X69055135Y-6172086D01*
X69172165Y-6254032D01*
X69172167Y-6254033D01*
X69172170Y-6254035D01*
X69386337Y-6353903D01*
X69386343Y-6353904D01*
X69386344Y-6353905D01*
X69441285Y-6368626D01*
X69614592Y-6415063D01*
X69785319Y-6430000D01*
X69849999Y-6435659D01*
X69850000Y-6435659D01*
X69850001Y-6435659D01*
X69914681Y-6430000D01*
X70085408Y-6415063D01*
X70313663Y-6353903D01*
X70527830Y-6254035D01*
X70721401Y-6118495D01*
X70888495Y-5951401D01*
X71018425Y-5765842D01*
X71073002Y-5722217D01*
X71142500Y-5715023D01*
X71204855Y-5746546D01*
X71221575Y-5765842D01*
X71351500Y-5951395D01*
X71351505Y-5951401D01*
X71518599Y-6118495D01*
X71595135Y-6172086D01*
X71712165Y-6254032D01*
X71712167Y-6254033D01*
X71712170Y-6254035D01*
X71926337Y-6353903D01*
X71926343Y-6353904D01*
X71926344Y-6353905D01*
X71981285Y-6368626D01*
X72154592Y-6415063D01*
X72325319Y-6430000D01*
X72389999Y-6435659D01*
X72390000Y-6435659D01*
X72390001Y-6435659D01*
X72454681Y-6430000D01*
X72625408Y-6415063D01*
X72853663Y-6353903D01*
X73067830Y-6254035D01*
X73261401Y-6118495D01*
X73428495Y-5951401D01*
X73558425Y-5765842D01*
X73613002Y-5722217D01*
X73682500Y-5715023D01*
X73744855Y-5746546D01*
X73761575Y-5765842D01*
X73891500Y-5951395D01*
X73891505Y-5951401D01*
X74058599Y-6118495D01*
X74135135Y-6172086D01*
X74252165Y-6254032D01*
X74252167Y-6254033D01*
X74252170Y-6254035D01*
X74466337Y-6353903D01*
X74466343Y-6353904D01*
X74466344Y-6353905D01*
X74521285Y-6368626D01*
X74694592Y-6415063D01*
X74865319Y-6430000D01*
X74929999Y-6435659D01*
X74930000Y-6435659D01*
X74930001Y-6435659D01*
X74994681Y-6430000D01*
X75165408Y-6415063D01*
X75393663Y-6353903D01*
X75607830Y-6254035D01*
X75801401Y-6118495D01*
X75968495Y-5951401D01*
X76098425Y-5765842D01*
X76153002Y-5722217D01*
X76222500Y-5715023D01*
X76284855Y-5746546D01*
X76301575Y-5765842D01*
X76431500Y-5951395D01*
X76431505Y-5951401D01*
X76598599Y-6118495D01*
X76675135Y-6172086D01*
X76792165Y-6254032D01*
X76792167Y-6254033D01*
X76792170Y-6254035D01*
X77006337Y-6353903D01*
X77006343Y-6353904D01*
X77006344Y-6353905D01*
X77061285Y-6368626D01*
X77234592Y-6415063D01*
X77405319Y-6430000D01*
X77469999Y-6435659D01*
X77470000Y-6435659D01*
X77470001Y-6435659D01*
X77534681Y-6430000D01*
X77705408Y-6415063D01*
X77933663Y-6353903D01*
X78147830Y-6254035D01*
X78341401Y-6118495D01*
X78508495Y-5951401D01*
X78638425Y-5765842D01*
X78693002Y-5722217D01*
X78762500Y-5715023D01*
X78824855Y-5746546D01*
X78841575Y-5765842D01*
X78971500Y-5951395D01*
X78971505Y-5951401D01*
X79138599Y-6118495D01*
X79215135Y-6172086D01*
X79332165Y-6254032D01*
X79332167Y-6254033D01*
X79332170Y-6254035D01*
X79546337Y-6353903D01*
X79546343Y-6353904D01*
X79546344Y-6353905D01*
X79601285Y-6368626D01*
X79774592Y-6415063D01*
X79945319Y-6430000D01*
X80009999Y-6435659D01*
X80010000Y-6435659D01*
X80010001Y-6435659D01*
X80074681Y-6430000D01*
X80245408Y-6415063D01*
X80473663Y-6353903D01*
X80687830Y-6254035D01*
X80881401Y-6118495D01*
X81048495Y-5951401D01*
X81184035Y-5757830D01*
X81283903Y-5543663D01*
X81345063Y-5315408D01*
X81365659Y-5080000D01*
X81345063Y-4844592D01*
X81298626Y-4671285D01*
X81283905Y-4616344D01*
X81283904Y-4616343D01*
X81283903Y-4616337D01*
X81184035Y-4402171D01*
X81178425Y-4394158D01*
X81048494Y-4208597D01*
X80881402Y-4041506D01*
X80881395Y-4041501D01*
X80687834Y-3905967D01*
X80687830Y-3905965D01*
X80616727Y-3872809D01*
X80473663Y-3806097D01*
X80473659Y-3806096D01*
X80473655Y-3806094D01*
X80245413Y-3744938D01*
X80245403Y-3744936D01*
X80010001Y-3724341D01*
X80009999Y-3724341D01*
X79774596Y-3744936D01*
X79774586Y-3744938D01*
X79546344Y-3806094D01*
X79546335Y-3806098D01*
X79332171Y-3905964D01*
X79332169Y-3905965D01*
X79138597Y-4041505D01*
X78971505Y-4208597D01*
X78841575Y-4394158D01*
X78786998Y-4437783D01*
X78717500Y-4444977D01*
X78655145Y-4413454D01*
X78638425Y-4394158D01*
X78508494Y-4208597D01*
X78341402Y-4041506D01*
X78341395Y-4041501D01*
X78147834Y-3905967D01*
X78147830Y-3905965D01*
X78076727Y-3872809D01*
X77933663Y-3806097D01*
X77933659Y-3806096D01*
X77933655Y-3806094D01*
X77705413Y-3744938D01*
X77705403Y-3744936D01*
X77470001Y-3724341D01*
X77469999Y-3724341D01*
X77234596Y-3744936D01*
X77234586Y-3744938D01*
X77006344Y-3806094D01*
X77006335Y-3806098D01*
X76792171Y-3905964D01*
X76792169Y-3905965D01*
X76598597Y-4041505D01*
X76431505Y-4208597D01*
X76301575Y-4394158D01*
X76246998Y-4437783D01*
X76177500Y-4444977D01*
X76115145Y-4413454D01*
X76098425Y-4394158D01*
X75968494Y-4208597D01*
X75801402Y-4041506D01*
X75801395Y-4041501D01*
X75607834Y-3905967D01*
X75607830Y-3905965D01*
X75536727Y-3872809D01*
X75393663Y-3806097D01*
X75393659Y-3806096D01*
X75393655Y-3806094D01*
X75165413Y-3744938D01*
X75165403Y-3744936D01*
X74930001Y-3724341D01*
X74929999Y-3724341D01*
X74694596Y-3744936D01*
X74694586Y-3744938D01*
X74466344Y-3806094D01*
X74466335Y-3806098D01*
X74252171Y-3905964D01*
X74252169Y-3905965D01*
X74058597Y-4041505D01*
X73891505Y-4208597D01*
X73761575Y-4394158D01*
X73706998Y-4437783D01*
X73637500Y-4444977D01*
X73575145Y-4413454D01*
X73558425Y-4394158D01*
X73428494Y-4208597D01*
X73261402Y-4041506D01*
X73261395Y-4041501D01*
X73067834Y-3905967D01*
X73067830Y-3905965D01*
X72996727Y-3872809D01*
X72853663Y-3806097D01*
X72853659Y-3806096D01*
X72853655Y-3806094D01*
X72625413Y-3744938D01*
X72625403Y-3744936D01*
X72390001Y-3724341D01*
X72389999Y-3724341D01*
X72154596Y-3744936D01*
X72154586Y-3744938D01*
X71926344Y-3806094D01*
X71926335Y-3806098D01*
X71712171Y-3905964D01*
X71712169Y-3905965D01*
X71518597Y-4041505D01*
X71351505Y-4208597D01*
X71221575Y-4394158D01*
X71166998Y-4437783D01*
X71097500Y-4444977D01*
X71035145Y-4413454D01*
X71018425Y-4394158D01*
X70888494Y-4208597D01*
X70721402Y-4041506D01*
X70721395Y-4041501D01*
X70527834Y-3905967D01*
X70527830Y-3905965D01*
X70456727Y-3872809D01*
X70313663Y-3806097D01*
X70313659Y-3806096D01*
X70313655Y-3806094D01*
X70085413Y-3744938D01*
X70085403Y-3744936D01*
X69850001Y-3724341D01*
X69849999Y-3724341D01*
X69614596Y-3744936D01*
X69614586Y-3744938D01*
X69386344Y-3806094D01*
X69386335Y-3806098D01*
X69172171Y-3905964D01*
X69172169Y-3905965D01*
X68978600Y-4041503D01*
X68856284Y-4163819D01*
X68794961Y-4197303D01*
X68725269Y-4192319D01*
X68669336Y-4150447D01*
X68652421Y-4119470D01*
X68603354Y-3987913D01*
X68603350Y-3987906D01*
X68517190Y-3872812D01*
X68517187Y-3872809D01*
X68402093Y-3786649D01*
X68402086Y-3786645D01*
X68267379Y-3736403D01*
X68267372Y-3736401D01*
X68207844Y-3730000D01*
X67691000Y-3730000D01*
X67691000Y-4748542D01*
X67583100Y-4655048D01*
X67452315Y-4595320D01*
X67345763Y-4580000D01*
X67274237Y-4580000D01*
X67167685Y-4595320D01*
X67036900Y-4655048D01*
X66928239Y-4749202D01*
X66850507Y-4870156D01*
X66810000Y-5008111D01*
X66810000Y-5151889D01*
X53419369Y-5151889D01*
X53425659Y-5080000D01*
X53405063Y-4844592D01*
X53366052Y-4699000D01*
X65960000Y-4699000D01*
X66929000Y-4699000D01*
X66929000Y-3730000D01*
X66412155Y-3730000D01*
X66352627Y-3736401D01*
X66352620Y-3736403D01*
X66217913Y-3786645D01*
X66217906Y-3786649D01*
X66102812Y-3872809D01*
X66102809Y-3872812D01*
X66016649Y-3987906D01*
X66016645Y-3987913D01*
X65966403Y-4122620D01*
X65966401Y-4122627D01*
X65960000Y-4182155D01*
X65960000Y-4699000D01*
X53366052Y-4699000D01*
X53358626Y-4671285D01*
X53343905Y-4616344D01*
X53343904Y-4616343D01*
X53343903Y-4616337D01*
X53244035Y-4402171D01*
X53238425Y-4394158D01*
X53108494Y-4208597D01*
X52941402Y-4041506D01*
X52941395Y-4041501D01*
X52747834Y-3905967D01*
X52747830Y-3905965D01*
X52676727Y-3872809D01*
X52533663Y-3806097D01*
X52533659Y-3806096D01*
X52533655Y-3806094D01*
X52305413Y-3744938D01*
X52305403Y-3744936D01*
X52070001Y-3724341D01*
X52069999Y-3724341D01*
X51834596Y-3744936D01*
X51834586Y-3744938D01*
X51606344Y-3806094D01*
X51606335Y-3806098D01*
X51392171Y-3905964D01*
X51392169Y-3905965D01*
X51198597Y-4041505D01*
X51031505Y-4208597D01*
X50901575Y-4394158D01*
X50846998Y-4437783D01*
X50777500Y-4444977D01*
X50715145Y-4413454D01*
X50698425Y-4394158D01*
X50568494Y-4208597D01*
X50401402Y-4041506D01*
X50401395Y-4041501D01*
X50207834Y-3905967D01*
X50207830Y-3905965D01*
X50136727Y-3872809D01*
X49993663Y-3806097D01*
X49993659Y-3806096D01*
X49993655Y-3806094D01*
X49765413Y-3744938D01*
X49765403Y-3744936D01*
X49530001Y-3724341D01*
X49529999Y-3724341D01*
X49294596Y-3744936D01*
X49294586Y-3744938D01*
X49066344Y-3806094D01*
X49066335Y-3806098D01*
X48852171Y-3905964D01*
X48852169Y-3905965D01*
X48658597Y-4041505D01*
X48491505Y-4208597D01*
X48361575Y-4394158D01*
X48306998Y-4437783D01*
X48237500Y-4444977D01*
X48175145Y-4413454D01*
X48158425Y-4394158D01*
X48028494Y-4208597D01*
X47861402Y-4041506D01*
X47861395Y-4041501D01*
X47667834Y-3905967D01*
X47667830Y-3905965D01*
X47596727Y-3872809D01*
X47453663Y-3806097D01*
X47453659Y-3806096D01*
X47453655Y-3806094D01*
X47225413Y-3744938D01*
X47225403Y-3744936D01*
X46990001Y-3724341D01*
X46989999Y-3724341D01*
X46754596Y-3744936D01*
X46754586Y-3744938D01*
X46526344Y-3806094D01*
X46526335Y-3806098D01*
X46312171Y-3905964D01*
X46312169Y-3905965D01*
X46118600Y-4041503D01*
X45996284Y-4163819D01*
X45934961Y-4197303D01*
X45865269Y-4192319D01*
X45809336Y-4150447D01*
X45792421Y-4119470D01*
X45743354Y-3987913D01*
X45743350Y-3987906D01*
X45657190Y-3872812D01*
X45657187Y-3872809D01*
X45542093Y-3786649D01*
X45542086Y-3786645D01*
X45407379Y-3736403D01*
X45407372Y-3736401D01*
X45347844Y-3730000D01*
X44831000Y-3730000D01*
X44831000Y-4748542D01*
X44723100Y-4655048D01*
X44592315Y-4595320D01*
X44485763Y-4580000D01*
X44414237Y-4580000D01*
X44307685Y-4595320D01*
X44176900Y-4655048D01*
X44068239Y-4749202D01*
X43990507Y-4870156D01*
X43950000Y-5008111D01*
X43950000Y-5151889D01*
X9772186Y-5151889D01*
X9775510Y-5080000D01*
X9757895Y-4699000D01*
X43100000Y-4699000D01*
X44069000Y-4699000D01*
X44069000Y-3730000D01*
X43552155Y-3730000D01*
X43492627Y-3736401D01*
X43492620Y-3736403D01*
X43357913Y-3786645D01*
X43357906Y-3786649D01*
X43242812Y-3872809D01*
X43242809Y-3872812D01*
X43156649Y-3987906D01*
X43156645Y-3987913D01*
X43106403Y-4122620D01*
X43106401Y-4122627D01*
X43100000Y-4182155D01*
X43100000Y-4699000D01*
X9757895Y-4699000D01*
X9755480Y-4646753D01*
X9695560Y-4217202D01*
X9596262Y-3795013D01*
X9458433Y-3383786D01*
X9458428Y-3383774D01*
X9458427Y-3383770D01*
X9283256Y-2987049D01*
X9283254Y-2987044D01*
X9283248Y-2987031D01*
X9072203Y-2608133D01*
X8827098Y-2250323D01*
X8827092Y-2250316D01*
X8827088Y-2250310D01*
X8550033Y-1916666D01*
X8550024Y-1916655D01*
X8243345Y-1609976D01*
X8197216Y-1571671D01*
X7909689Y-1332911D01*
X7909679Y-1332904D01*
X7909677Y-1332902D01*
X7671137Y-1169498D01*
X7551866Y-1087796D01*
X7551859Y-1087792D01*
X7172978Y-876757D01*
X7172961Y-876748D01*
X7167827Y-874481D01*
X7163189Y-872434D01*
X7109814Y-827349D01*
X7089286Y-760563D01*
X7108124Y-693281D01*
X7160346Y-646864D01*
X7213276Y-635000D01*
X91846724Y-635000D01*
X91913763Y-654685D01*
G37*
%TD.AperFunction*%
%TD*%
M02*
