M48
; DRILL file {KiCad 7.0.11-7.0.11~ubuntu20.04.1} date Wed 20 Mar 2024 21:38:17 GMT
; FORMAT={-:-/ absolute / inch / decimal}
; #@! TF.CreationDate,2024-03-20T21:38:17+00:00
; #@! TF.GenerationSoftware,Kicad,Pcbnew,7.0.11-7.0.11~ubuntu20.04.1
; #@! TF.FileFunction,Plated,1,4,PTH
FMAT,2
INCH
; #@! TA.AperFunction,Plated,PTH,ViaDrill
T1C0.0120
; #@! TA.AperFunction,Plated,PTH,ComponentDrill
T2C0.0394
; #@! TA.AperFunction,Plated,PTH,ComponentDrill
T3C0.0598
; #@! TA.AperFunction,Plated,PTH,ComponentDrill
T4C0.0669
%
G90
G05
T1
X0.8Y-0.575
X1.19Y-0.215
X1.2Y-0.365
X1.2Y-0.515
X1.4Y-0.315
X1.4Y-0.515
X2.07Y-0.715
X2.425Y-0.0898
X2.425Y-0.1898
X2.4551Y-1.2498
X2.5101Y-1.3031
X2.6251Y-1.6698
X2.6301Y-1.5598
X2.6451Y-1.3348
X2.6701Y-1.0948
X2.6701Y-1.1898
X2.6851Y-1.2548
X2.7051Y-1.5898
X2.7051Y-1.84
X2.7301Y-1.0948
X2.7301Y-1.1898
X2.7549Y-1.4575
X2.7901Y-1.0948
X2.7901Y-1.1898
X2.8101Y-1.2998
X2.8901Y-1.2098
X2.9301Y-1.4148
X2.9301Y-1.5148
X2.9751Y-1.2198
X2.9801Y-1.4148
X2.9801Y-1.5148
X3.0301Y-1.4148
X3.0301Y-1.5148
X3.0351Y-0.9798
X3.0551Y-1.0948
X3.0551Y-1.1448
X3.1051Y-1.0948
X3.1051Y-1.1448
X3.1451Y-0.8298
X3.1551Y-1.0948
X3.1551Y-1.1448
X3.1901Y-0.9848
X3.1951Y-1.5198
X3.2051Y-1.0948
X3.2051Y-1.1448
X3.2551Y-1.0948
X3.2551Y-1.1448
X3.291Y-2.1398
X3.291Y-2.2648
X3.2951Y-0.7698
X3.305Y-1.395
X3.3051Y-1.0948
X3.3051Y-1.1448
X3.3151Y-1.3498
X3.3551Y-1.0948
X3.3551Y-1.1448
X3.37Y-0.96
X3.39Y-1.47
X3.4051Y-1.0948
X3.4051Y-1.1448
X3.43Y-1.675
X3.4301Y-1.4198
X3.4551Y-1.0948
X3.4551Y-1.1448
X3.465Y-1.515
X3.4701Y-0.7088
X3.4751Y-1.4198
X3.4896Y-2.5648
X3.49Y-1.535
X3.5051Y-1.3898
X3.5051Y-1.4298
X3.515Y-1.555
X3.54Y-1.575
X3.5451Y-1.3898
X3.5451Y-1.4298
X3.5701Y-0.7098
X3.65Y-1.7649
X3.8Y-2.1038
T2
X0.075Y-0.825
X0.075Y-1.525
X0.075Y-1.825
X0.175Y-0.825
X0.175Y-1.525
X0.175Y-1.825
X0.275Y-0.825
X0.275Y-1.525
X0.275Y-1.825
X0.375Y-0.825
X0.375Y-1.525
X0.375Y-1.825
X0.475Y-0.825
X0.475Y-1.525
X0.575Y-0.825
X0.575Y-1.525
X0.675Y-0.825
X0.675Y-1.525
X0.775Y-0.825
X0.775Y-1.525
X0.8Y-1.9
X0.8Y-2.0
X0.875Y-0.825
X0.875Y-1.525
X0.9Y-1.9
X0.9Y-2.0
X0.975Y-0.825
X0.975Y-1.525
X1.0Y-1.9
X1.0Y-2.0
X1.075Y-0.825
X1.075Y-1.525
X1.1Y-1.9
X1.1Y-2.0
X1.175Y-0.825
X1.175Y-1.525
X1.2Y-1.9
X1.2Y-2.0
X1.275Y-0.825
X1.275Y-1.525
X1.3Y-1.9
X1.3Y-2.0
X1.375Y-0.825
X1.375Y-1.525
X1.4Y-1.9
X1.4Y-2.0
X1.475Y-0.825
X1.475Y-1.525
X1.5Y-1.9
X1.5Y-2.0
X1.575Y-0.825
X1.575Y-1.5234
X1.675Y-0.825
X1.675Y-1.525
X1.75Y-0.2
X1.775Y-0.825
X1.775Y-1.525
X1.85Y-0.2
X1.875Y-0.825
X1.875Y-1.525
X1.95Y-0.2
X1.975Y-0.825
X1.975Y-1.525
X2.05Y-0.2
X2.2301Y-1.9
X2.2301Y-2.0
X2.3301Y-1.9
X2.3301Y-2.0
X2.4301Y-1.9
X2.4301Y-2.0
X2.5301Y-1.9
X2.5301Y-2.0
X2.6301Y-1.9
X2.6301Y-2.0
X2.65Y-0.2
X2.7301Y-1.9
X2.7301Y-2.0
X2.75Y-0.2
X2.8004Y-2.5648
X2.8301Y-1.9
X2.8301Y-2.0
X2.85Y-0.2
X2.85Y-0.4
X2.85Y-0.5
X2.9301Y-1.9
X2.9301Y-2.0
X2.95Y-0.2
X2.95Y-0.4
X2.95Y-0.5
X3.05Y-0.2
X3.0996Y-2.5648
X3.15Y-0.2
X3.35Y-1.95
X3.45Y-1.95
X3.65Y-1.1
X3.65Y-2.25
X3.75Y-1.1
X3.75Y-2.25
T3
X2.2551Y-2.5148
X2.2551Y-2.7148
T4
X0.9333Y-2.2661
X0.9333Y-2.422
X0.9333Y-2.578
X0.9333Y-2.7339
T2
G00X0.225Y-2.1729
M15
G01X0.225Y-2.2517
M16
G05
G00X0.3037Y-2.3973
M15
G01X0.3825Y-2.3973
M16
G05
G00X0.4612Y-2.1729
M15
G01X0.4612Y-2.2517
M16
G05
M30
